<svg width="900" height="210" viewBox="0 0 900 210" fill="none" xmlns="http://www.w3.org/2000/svg">
<rect width="900" height="210" fill="#00E5A4"/>
<g clip-path="url(#clip0_1_1291)">
<path fill-rule="evenodd" clip-rule="evenodd" d="M43.266 40H40V61.7977H43.5207V46.3501L54.1376 61.7977H57.4036V40H53.8828V55.4476L43.266 40ZM67.5387 45.668C62.8443 45.668 59.6966 48.934 59.6966 53.8557H59.6875C59.6875 58.7411 62.8352 61.9798 67.848 61.9798C71.8054 61.9798 74.4801 59.5872 75.0441 56.4394H71.678C71.2141 58.2135 69.7221 59.2415 67.666 59.2415C65.0277 59.2415 63.3083 57.4675 63.2173 54.7564V54.5381H75.2352C75.2989 54.1014 75.3261 53.6647 75.3261 53.2644C75.2261 48.5974 72.233 45.668 67.5387 45.668ZM67.5751 48.379C69.9131 48.379 71.5598 49.7164 71.8418 52.0817H63.3447C63.5903 49.8073 65.428 48.379 67.5751 48.379ZM84.5055 45.668C88.7358 45.668 91.1649 47.6876 91.1649 51.4631V57.8496C91.1649 58.6592 91.5106 58.8776 92.1929 58.8776H92.8752V61.807H91.1012C88.9178 61.807 88.1718 60.8426 88.1718 59.2506C87.1165 60.8699 85.4971 61.9889 82.9134 61.9889C79.429 61.9889 77 60.2786 77 57.3219C77 54.0559 79.3654 52.2182 83.8231 52.2182H87.8443V51.2538C87.8443 49.4798 86.5706 48.3881 84.3599 48.3881C82.3675 48.3881 81.0302 49.3252 80.7755 50.7262H77.4731C77.8188 47.6148 80.4935 45.6862 84.5055 45.6862V45.668ZM83.3865 59.3688C86.1885 59.3688 87.8079 57.7222 87.8352 55.2568V54.6927H83.6594C81.5761 54.6927 80.4207 55.4751 80.4207 57.0945C80.4207 58.4318 81.5397 59.3688 83.3774 59.3688H83.3865ZM98.4879 48.2514L98.1149 45.8496H95.1218V61.7976H98.4879V53.7917C98.4879 51.3354 99.4522 48.9974 102.445 48.9974H108.013V61.7886H111.406V48.9974H115.673V48.8064V45.8497V45.8496H111.343V44.5124C111.343 43.4207 111.807 42.9567 112.898 42.9567H115.673V40H112.462C109.387 40 108.013 41.492 108.013 44.3577V45.8496H103.191C100.571 45.8496 99.2976 46.914 98.4879 48.2514ZM132.321 53.8284C132.321 48.9704 129.055 45.668 124.197 45.668C119.339 45.668 116.073 48.934 116.073 53.8284C116.073 58.7229 119.339 61.9889 124.197 61.9889C129.055 61.9889 132.321 58.6865 132.321 53.8284ZM124.197 48.5337C127.036 48.5337 128.901 50.7444 128.901 53.8284C128.901 56.9125 127.027 59.1232 124.197 59.1232C121.368 59.1232 119.53 56.9125 119.53 53.8284C119.53 50.7444 121.359 48.5337 124.197 48.5337ZM137.498 45.8496L137.871 48.2514C138.681 46.914 139.955 45.8496 142.575 45.8496H143.321V48.9974H141.829C138.836 48.9974 137.871 51.3354 137.871 53.7917V61.7976H134.505V45.8496H137.498ZM148.306 45.8493H145.376H145.367V61.7881H148.733V53.2546C148.733 50.4162 150.262 48.5512 152.472 48.5512C154.683 48.5512 155.838 50.0159 155.838 52.818V61.7881H159.232V53.1637C159.232 50.2979 160.697 48.5512 162.998 48.5512C165.173 48.5512 166.328 50.0159 166.328 52.818V61.7881H169.694V52.5996C169.694 47.5596 167.019 45.6582 163.717 45.6582C161.097 45.6582 159.296 46.8045 158.267 48.5512C157.303 46.4952 155.429 45.6582 153.346 45.6582C150.953 45.6946 149.579 46.7499 148.679 47.9326L148.306 45.8493Z" fill="#000E38"/>
<path d="M171.505 61.7977H183.741V65.0092H171.505V61.7977Z" fill="white"/>
</g>
<path d="M409.818 63V39.7273H412.636V60.5H423.455V63H409.818ZM427.135 63V45.5455H429.816V63H427.135ZM428.498 42.6364C427.975 42.6364 427.525 42.4583 427.146 42.1023C426.775 41.7462 426.589 41.3182 426.589 40.8182C426.589 40.3182 426.775 39.8902 427.146 39.5341C427.525 39.178 427.975 39 428.498 39C429.021 39 429.468 39.178 429.839 39.5341C430.218 39.8902 430.407 40.3182 430.407 40.8182C430.407 41.3182 430.218 41.7462 429.839 42.1023C429.468 42.4583 429.021 42.6364 428.498 42.6364ZM436.908 56.6364L436.863 53.3182H437.408L445.045 45.5455H448.363L440.226 53.7727H439.999L436.908 56.6364ZM434.408 63V39.7273H437.09V63H434.408ZM445.499 63L438.681 54.3636L440.59 52.5L448.908 63H445.499ZM458.094 63.3636C456.412 63.3636 454.961 62.9924 453.742 62.25C452.53 61.5 451.594 60.4545 450.935 59.1136C450.283 57.7652 449.958 56.197 449.958 54.4091C449.958 52.6212 450.283 51.0455 450.935 49.6818C451.594 48.3106 452.511 47.2424 453.685 46.4773C454.867 45.7045 456.245 45.3182 457.821 45.3182C458.73 45.3182 459.628 45.4697 460.514 45.7727C461.401 46.0758 462.208 46.5682 462.935 47.25C463.662 47.9242 464.242 48.8182 464.674 49.9318C465.105 51.0455 465.321 52.4167 465.321 54.0455V55.1818H451.867V52.8636H462.594C462.594 51.8788 462.397 51 462.003 50.2273C461.617 49.4545 461.064 48.8447 460.344 48.3977C459.632 47.9508 458.791 47.7273 457.821 47.7273C456.753 47.7273 455.829 47.9924 455.049 48.5227C454.276 49.0455 453.681 49.7273 453.264 50.5682C452.848 51.4091 452.639 52.3106 452.639 53.2727V54.8182C452.639 56.1364 452.867 57.2538 453.321 58.1705C453.783 59.0795 454.424 59.7727 455.242 60.25C456.06 60.7197 457.011 60.9545 458.094 60.9545C458.799 60.9545 459.435 60.8561 460.003 60.6591C460.579 60.4545 461.075 60.1515 461.492 59.75C461.908 59.3409 462.23 58.8333 462.458 58.2273L465.049 58.9545C464.776 59.8333 464.317 60.6061 463.674 61.2727C463.03 61.9318 462.234 62.447 461.287 62.8182C460.34 63.1818 459.276 63.3636 458.094 63.3636ZM485.352 45.5455V47.8182H476.306V45.5455H485.352ZM478.943 41.3636H481.624V58C481.624 58.7576 481.734 59.3258 481.954 59.7045C482.181 60.0758 482.469 60.3258 482.818 60.4545C483.174 60.5758 483.549 60.6364 483.943 60.6364C484.238 60.6364 484.48 60.6212 484.67 60.5909C484.859 60.553 485.011 60.5227 485.124 60.5L485.67 62.9091C485.488 62.9773 485.234 63.0455 484.909 63.1136C484.583 63.1894 484.17 63.2273 483.67 63.2273C482.912 63.2273 482.17 63.0644 481.443 62.7386C480.723 62.4129 480.124 61.9167 479.647 61.25C479.177 60.5833 478.943 59.7424 478.943 58.7273V41.3636ZM492.123 52.5V63H489.441V39.7273H492.123V48.2727H492.35C492.759 47.3712 493.373 46.6553 494.191 46.125C495.017 45.5871 496.115 45.3182 497.486 45.3182C498.676 45.3182 499.717 45.5568 500.611 46.0341C501.505 46.5038 502.198 47.2273 502.691 48.2045C503.191 49.1742 503.441 50.4091 503.441 51.9091V63H500.759V52.0909C500.759 50.7045 500.399 49.6326 499.679 48.875C498.967 48.1098 497.979 47.7273 496.714 47.7273C495.835 47.7273 495.047 47.9129 494.35 48.2841C493.66 48.6553 493.115 49.197 492.714 49.9091C492.32 50.6212 492.123 51.4848 492.123 52.5ZM508.027 63V45.5455H510.709V63H508.027ZM509.391 42.6364C508.868 42.6364 508.417 42.4583 508.038 42.1023C507.667 41.7462 507.482 41.3182 507.482 40.8182C507.482 40.3182 507.667 39.8902 508.038 39.5341C508.417 39.178 508.868 39 509.391 39C509.913 39 510.36 39.178 510.732 39.5341C511.11 39.8902 511.3 40.3182 511.3 40.8182C511.3 41.3182 511.11 41.7462 510.732 42.1023C510.36 42.4583 509.913 42.6364 509.391 42.6364ZM527.664 49.4545L525.255 50.1364C525.104 49.7348 524.88 49.3447 524.585 48.9659C524.297 48.5795 523.903 48.2614 523.403 48.0114C522.903 47.7614 522.263 47.6364 521.483 47.6364C520.414 47.6364 519.524 47.8826 518.812 48.375C518.108 48.8598 517.755 49.4773 517.755 50.2273C517.755 50.8939 517.998 51.4205 518.483 51.8068C518.967 52.1932 519.725 52.5152 520.755 52.7727L523.346 53.4091C524.907 53.7879 526.07 54.3674 526.835 55.1477C527.6 55.9205 527.983 56.9167 527.983 58.1364C527.983 59.1364 527.695 60.0303 527.119 60.8182C526.551 61.6061 525.755 62.2273 524.733 62.6818C523.71 63.1364 522.52 63.3636 521.164 63.3636C519.384 63.3636 517.911 62.9773 516.744 62.2045C515.577 61.4318 514.839 60.303 514.528 58.8182L517.074 58.1818C517.316 59.1212 517.774 59.8258 518.449 60.2955C519.13 60.7652 520.02 61 521.119 61C522.369 61 523.361 60.7348 524.096 60.2045C524.839 59.6667 525.21 59.0227 525.21 58.2727C525.21 57.6667 524.998 57.1591 524.574 56.75C524.149 56.3333 523.498 56.0227 522.619 55.8182L519.71 55.1364C518.111 54.7576 516.937 54.1705 516.187 53.375C515.445 52.572 515.074 51.5682 515.074 50.3636C515.074 49.3788 515.35 48.5076 515.903 47.75C516.464 46.9924 517.225 46.3977 518.187 45.9659C519.157 45.5341 520.255 45.3182 521.483 45.3182C523.21 45.3182 524.566 45.697 525.551 46.4545C526.543 47.2121 527.248 48.2121 527.664 49.4545ZM540.38 69.5455V45.5455H542.97V48.3182H543.289C543.486 48.0152 543.758 47.6288 544.107 47.1591C544.463 46.6818 544.97 46.2576 545.63 45.8864C546.296 45.5076 547.198 45.3182 548.334 45.3182C549.804 45.3182 551.099 45.6856 552.22 46.4205C553.342 47.1553 554.217 48.197 554.845 49.5455C555.474 50.8939 555.789 52.4848 555.789 54.3182C555.789 56.1667 555.474 57.7689 554.845 59.125C554.217 60.4735 553.345 61.5189 552.232 62.2614C551.118 62.9962 549.834 63.3636 548.38 63.3636C547.258 63.3636 546.361 63.178 545.686 62.8068C545.012 62.428 544.493 62 544.13 61.5227C543.766 61.0379 543.486 60.6364 543.289 60.3182H543.061V69.5455H540.38ZM543.016 54.2727C543.016 55.5909 543.209 56.7538 543.595 57.7614C543.982 58.7614 544.546 59.5455 545.289 60.1136C546.031 60.6742 546.94 60.9545 548.016 60.9545C549.137 60.9545 550.073 60.6591 550.823 60.0682C551.58 59.4697 552.148 58.6667 552.527 57.6591C552.914 56.6439 553.107 55.5152 553.107 54.2727C553.107 53.0455 552.917 51.9394 552.539 50.9545C552.167 49.9621 551.603 49.178 550.845 48.6023C550.095 48.0189 549.152 47.7273 548.016 47.7273C546.925 47.7273 546.008 48.0038 545.266 48.5568C544.523 49.1023 543.963 49.8674 543.584 50.8523C543.205 51.8295 543.016 52.9697 543.016 54.2727ZM559.56 63V45.5455H562.15V48.1818H562.332C562.65 47.3182 563.226 46.6174 564.06 46.0795C564.893 45.5417 565.832 45.2727 566.878 45.2727C567.075 45.2727 567.321 45.2765 567.616 45.2841C567.912 45.2917 568.135 45.303 568.287 45.3182V48.0455C568.196 48.0227 567.988 47.9886 567.662 47.9432C567.344 47.8902 567.007 47.8636 566.65 47.8636C565.802 47.8636 565.044 48.0417 564.378 48.3977C563.719 48.7462 563.196 49.2311 562.81 49.8523C562.431 50.4659 562.241 51.1667 562.241 51.9545V63H559.56ZM577.705 63.3636C576.13 63.3636 574.747 62.9886 573.558 62.2386C572.376 61.4886 571.452 60.4394 570.785 59.0909C570.126 57.7424 569.796 56.1667 569.796 54.3636C569.796 52.5455 570.126 50.9583 570.785 49.6023C571.452 48.2462 572.376 47.1932 573.558 46.4432C574.747 45.6932 576.13 45.3182 577.705 45.3182C579.281 45.3182 580.66 45.6932 581.842 46.4432C583.031 47.1932 583.955 48.2462 584.615 49.6023C585.281 50.9583 585.615 52.5455 585.615 54.3636C585.615 56.1667 585.281 57.7424 584.615 59.0909C583.955 60.4394 583.031 61.4886 581.842 62.2386C580.66 62.9886 579.281 63.3636 577.705 63.3636ZM577.705 60.9545C578.902 60.9545 579.887 60.6477 580.66 60.0341C581.433 59.4205 582.005 58.6136 582.376 57.6136C582.747 56.6136 582.933 55.5303 582.933 54.3636C582.933 53.197 582.747 52.1098 582.376 51.1023C582.005 50.0947 581.433 49.2803 580.66 48.6591C579.887 48.0379 578.902 47.7273 577.705 47.7273C576.508 47.7273 575.524 48.0379 574.751 48.6591C573.978 49.2803 573.406 50.0947 573.035 51.1023C572.664 52.1098 572.478 53.197 572.478 54.3636C572.478 55.5303 572.664 56.6136 573.035 57.6136C573.406 58.6136 573.978 59.4205 574.751 60.0341C575.524 60.6477 576.508 60.9545 577.705 60.9545ZM589.388 45.5455H592.07V64.2727C592.07 65.3485 591.885 66.2803 591.513 67.0682C591.15 67.8561 590.597 68.4659 589.854 68.8977C589.119 69.3295 588.191 69.5455 587.07 69.5455C586.979 69.5455 586.888 69.5455 586.797 69.5455C586.706 69.5455 586.616 69.5455 586.525 69.5455V67.0455C586.616 67.0455 586.699 67.0455 586.775 67.0455C586.85 67.0455 586.934 67.0455 587.025 67.0455C587.843 67.0455 588.441 66.803 588.82 66.3182C589.199 65.8409 589.388 65.1591 589.388 64.2727V45.5455ZM590.706 42.6364C590.184 42.6364 589.733 42.4583 589.354 42.1023C588.983 41.7462 588.797 41.3182 588.797 40.8182C588.797 40.3182 588.983 39.8902 589.354 39.5341C589.733 39.178 590.184 39 590.706 39C591.229 39 591.676 39.178 592.047 39.5341C592.426 39.8902 592.616 40.3182 592.616 40.8182C592.616 41.3182 592.426 41.7462 592.047 42.1023C591.676 42.4583 591.229 42.6364 590.706 42.6364ZM603.98 63.3636C602.298 63.3636 600.848 62.9924 599.628 62.25C598.416 61.5 597.48 60.4545 596.821 59.1136C596.17 57.7652 595.844 56.197 595.844 54.4091C595.844 52.6212 596.17 51.0455 596.821 49.6818C597.48 48.3106 598.397 47.2424 599.571 46.4773C600.753 45.7045 602.132 45.3182 603.708 45.3182C604.617 45.3182 605.514 45.4697 606.401 45.7727C607.287 46.0758 608.094 46.5682 608.821 47.25C609.548 47.9242 610.128 48.8182 610.56 49.9318C610.992 51.0455 611.208 52.4167 611.208 54.0455V55.1818H597.753V52.8636H608.48C608.48 51.8788 608.283 51 607.889 50.2273C607.503 49.4545 606.95 48.8447 606.23 48.3977C605.518 47.9508 604.677 47.7273 603.708 47.7273C602.639 47.7273 601.715 47.9924 600.935 48.5227C600.162 49.0455 599.567 49.7273 599.151 50.5682C598.734 51.4091 598.526 52.3106 598.526 53.2727V54.8182C598.526 56.1364 598.753 57.2538 599.208 58.1705C599.67 59.0795 600.31 59.7727 601.128 60.25C601.946 60.7197 602.897 60.9545 603.98 60.9545C604.685 60.9545 605.321 60.8561 605.889 60.6591C606.465 60.4545 606.961 60.1515 607.378 59.75C607.795 59.3409 608.117 58.8333 608.344 58.2273L610.935 58.9545C610.662 59.8333 610.204 60.6061 609.56 61.2727C608.916 61.9318 608.12 62.447 607.173 62.8182C606.226 63.1818 605.162 63.3636 603.98 63.3636ZM622.058 63.3636C620.422 63.3636 619.012 62.9773 617.831 62.2045C616.649 61.4318 615.74 60.3674 615.103 59.0114C614.467 57.6553 614.149 56.1061 614.149 54.3636C614.149 52.5909 614.475 51.0265 615.126 49.6705C615.785 48.3068 616.702 47.2424 617.876 46.4773C619.058 45.7045 620.437 45.3182 622.012 45.3182C623.24 45.3182 624.346 45.5455 625.331 46C626.316 46.4545 627.122 47.0909 627.751 47.9091C628.38 48.7273 628.77 49.6818 628.922 50.7727H626.24C626.035 49.9773 625.581 49.2727 624.876 48.6591C624.179 48.0379 623.24 47.7273 622.058 47.7273C621.012 47.7273 620.096 48 619.308 48.5455C618.528 49.0833 617.918 49.8447 617.478 50.8295C617.047 51.8068 616.831 52.9545 616.831 54.2727C616.831 55.6212 617.043 56.7955 617.467 57.7955C617.899 58.7955 618.505 59.572 619.285 60.125C620.073 60.678 620.997 60.9545 622.058 60.9545C622.755 60.9545 623.387 60.8333 623.956 60.5909C624.524 60.3485 625.005 60 625.399 59.5455C625.793 59.0909 626.073 58.5455 626.24 57.9091H628.922C628.77 58.9394 628.395 59.8674 627.797 60.6932C627.206 61.5114 626.422 62.1629 625.444 62.6477C624.475 63.125 623.346 63.3636 622.058 63.3636ZM640.113 45.5455V47.8182H631.068V45.5455H640.113ZM633.704 41.3636H636.386V58C636.386 58.7576 636.496 59.3258 636.715 59.7045C636.943 60.0758 637.23 60.3258 637.579 60.4545C637.935 60.5758 638.31 60.6364 638.704 60.6364C638.999 60.6364 639.242 60.6212 639.431 60.5909C639.621 60.553 639.772 60.5227 639.886 60.5L640.431 62.9091C640.249 62.9773 639.996 63.0455 639.67 63.1136C639.344 63.1894 638.931 63.2273 638.431 63.2273C637.674 63.2273 636.931 63.0644 636.204 62.7386C635.484 62.4129 634.886 61.9167 634.408 61.25C633.939 60.5833 633.704 59.7424 633.704 58.7273V41.3636ZM647.327 56.4545V56.3182C647.342 54.8712 647.494 53.7197 647.782 52.8636C648.069 52.0076 648.479 51.3144 649.009 50.7841C649.539 50.2538 650.176 49.7652 650.918 49.3182C651.365 49.0455 651.766 48.7235 652.122 48.3523C652.479 47.9735 652.759 47.5379 652.963 47.0455C653.176 46.553 653.282 46.0076 653.282 45.4091C653.282 44.6667 653.107 44.0227 652.759 43.4773C652.41 42.9318 651.944 42.5114 651.361 42.2159C650.778 41.9205 650.13 41.7727 649.418 41.7727C648.797 41.7727 648.198 41.9015 647.622 42.1591C647.047 42.4167 646.566 42.822 646.179 43.375C645.793 43.928 645.569 44.6515 645.509 45.5455H642.645C642.706 44.2576 643.039 43.1553 643.645 42.2386C644.259 41.322 645.066 40.6212 646.066 40.1364C647.073 39.6515 648.191 39.4091 649.418 39.4091C650.751 39.4091 651.91 39.6742 652.895 40.2045C653.888 40.7348 654.653 41.4621 655.191 42.3864C655.736 43.3106 656.009 44.3636 656.009 45.5455C656.009 46.3788 655.88 47.1326 655.622 47.8068C655.372 48.4811 655.009 49.0833 654.532 49.6136C654.062 50.1439 653.494 50.6136 652.827 51.0227C652.16 51.4394 651.626 51.8788 651.225 52.3409C650.823 52.7955 650.532 53.3371 650.35 53.9659C650.168 54.5947 650.069 55.3788 650.054 56.3182V56.4545H647.327ZM648.782 63.1818C648.221 63.1818 647.74 62.9811 647.338 62.5795C646.937 62.178 646.736 61.697 646.736 61.1364C646.736 60.5758 646.937 60.0947 647.338 59.6932C647.74 59.2917 648.221 59.0909 648.782 59.0909C649.342 59.0909 649.823 59.2917 650.225 59.6932C650.626 60.0947 650.827 60.5758 650.827 61.1364C650.827 61.5076 650.732 61.8485 650.543 62.1591C650.361 62.4697 650.115 62.7197 649.804 62.9091C649.501 63.0909 649.16 63.1818 648.782 63.1818ZM407.818 81.7273H411.045L417.5 92.5909H417.773L424.227 81.7273H427.455L419.045 95.4091V105H416.227V95.4091L407.818 81.7273ZM435.038 105.364C433.462 105.364 432.08 104.989 430.89 104.239C429.708 103.489 428.784 102.439 428.118 101.091C427.458 99.7424 427.129 98.1667 427.129 96.3636C427.129 94.5455 427.458 92.9583 428.118 91.6023C428.784 90.2462 429.708 89.1932 430.89 88.4432C432.08 87.6932 433.462 87.3182 435.038 87.3182C436.614 87.3182 437.993 87.6932 439.174 88.4432C440.364 89.1932 441.288 90.2462 441.947 91.6023C442.614 92.9583 442.947 94.5455 442.947 96.3636C442.947 98.1667 442.614 99.7424 441.947 101.091C441.288 102.439 440.364 103.489 439.174 104.239C437.993 104.989 436.614 105.364 435.038 105.364ZM435.038 102.955C436.235 102.955 437.22 102.648 437.993 102.034C438.765 101.42 439.337 100.614 439.708 99.6136C440.08 98.6136 440.265 97.5303 440.265 96.3636C440.265 95.197 440.08 94.1098 439.708 93.1023C439.337 92.0947 438.765 91.2803 437.993 90.6591C437.22 90.0379 436.235 89.7273 435.038 89.7273C433.841 89.7273 432.856 90.0379 432.083 90.6591C431.311 91.2803 430.739 92.0947 430.368 93.1023C429.996 94.1098 429.811 95.197 429.811 96.3636C429.811 97.5303 429.996 98.6136 430.368 99.6136C430.739 100.614 431.311 101.42 432.083 102.034C432.856 102.648 433.841 102.955 435.038 102.955ZM457.721 97.8636V87.5455H460.403V105H457.721V102.045H457.539C457.13 102.932 456.494 103.686 455.63 104.307C454.766 104.92 453.675 105.227 452.357 105.227C451.266 105.227 450.297 104.989 449.448 104.511C448.6 104.027 447.933 103.299 447.448 102.33C446.963 101.352 446.721 100.121 446.721 98.6364V87.5455H449.403V98.4545C449.403 99.7273 449.759 100.742 450.471 101.5C451.19 102.258 452.107 102.636 453.221 102.636C453.887 102.636 454.565 102.466 455.255 102.125C455.952 101.784 456.535 101.261 457.005 100.557C457.482 99.8523 457.721 98.9545 457.721 97.8636ZM467.827 81.7273V83.7727C467.827 84.3939 467.713 85.0568 467.486 85.7614C467.266 86.4583 466.941 87.1364 466.509 87.7955C466.085 88.447 465.569 89.0152 464.963 89.5L463.509 88.3182C463.986 87.6364 464.399 86.928 464.747 86.1932C465.103 85.4508 465.281 84.6591 465.281 83.8182V81.7273H467.827ZM473.731 81.7273V105H471.05V81.7273H473.731ZM481.005 81.7273V105H478.323V81.7273H481.005ZM496.959 81.7273V105H494.277V81.7273H496.959ZM508.642 105.364C507.066 105.364 505.683 104.989 504.494 104.239C503.312 103.489 502.388 102.439 501.721 101.091C501.062 99.7424 500.733 98.1667 500.733 96.3636C500.733 94.5455 501.062 92.9583 501.721 91.6023C502.388 90.2462 503.312 89.1932 504.494 88.4432C505.683 87.6932 507.066 87.3182 508.642 87.3182C510.217 87.3182 511.596 87.6932 512.778 88.4432C513.967 89.1932 514.892 90.2462 515.551 91.6023C516.217 92.9583 516.551 94.5455 516.551 96.3636C516.551 98.1667 516.217 99.7424 515.551 101.091C514.892 102.439 513.967 103.489 512.778 104.239C511.596 104.989 510.217 105.364 508.642 105.364ZM508.642 102.955C509.839 102.955 510.824 102.648 511.596 102.034C512.369 101.42 512.941 100.614 513.312 99.6136C513.683 98.6136 513.869 97.5303 513.869 96.3636C513.869 95.197 513.683 94.1098 513.312 93.1023C512.941 92.0947 512.369 91.2803 511.596 90.6591C510.824 90.0379 509.839 89.7273 508.642 89.7273C507.445 89.7273 506.46 90.0379 505.687 90.6591C504.914 91.2803 504.342 92.0947 503.971 93.1023C503.6 94.1098 503.414 95.197 503.414 96.3636C503.414 97.5303 503.6 98.6136 503.971 99.6136C504.342 100.614 504.914 101.42 505.687 102.034C506.46 102.648 507.445 102.955 508.642 102.955ZM533.972 87.5455L527.518 105H524.79L518.336 87.5455H521.245L526.063 101.455H526.245L531.063 87.5455H533.972ZM543.885 105.364C542.203 105.364 540.753 104.992 539.533 104.25C538.321 103.5 537.385 102.455 536.726 101.114C536.075 99.7652 535.749 98.197 535.749 96.4091C535.749 94.6212 536.075 93.0455 536.726 91.6818C537.385 90.3106 538.302 89.2424 539.476 88.4773C540.658 87.7045 542.037 87.3182 543.613 87.3182C544.522 87.3182 545.419 87.4697 546.306 87.7727C547.192 88.0758 547.999 88.5682 548.726 89.25C549.453 89.9242 550.033 90.8182 550.465 91.9318C550.897 93.0455 551.113 94.4167 551.113 96.0455V97.1818H537.658V94.8636H548.385C548.385 93.8788 548.188 93 547.794 92.2273C547.408 91.4545 546.855 90.8447 546.135 90.3977C545.423 89.9508 544.582 89.7273 543.613 89.7273C542.544 89.7273 541.62 89.9924 540.84 90.5227C540.067 91.0455 539.472 91.7273 539.056 92.5682C538.639 93.4091 538.431 94.3106 538.431 95.2727V96.8182C538.431 98.1364 538.658 99.2538 539.113 100.17C539.575 101.08 540.215 101.773 541.033 102.25C541.851 102.72 542.802 102.955 543.885 102.955C544.59 102.955 545.226 102.856 545.794 102.659C546.37 102.455 546.866 102.152 547.283 101.75C547.7 101.341 548.022 100.833 548.249 100.227L550.84 100.955C550.567 101.833 550.109 102.606 549.465 103.273C548.821 103.932 548.025 104.447 547.078 104.818C546.131 105.182 545.067 105.364 543.885 105.364ZM567.507 105L562.188 87.5455H565.007L568.779 100.909H568.961L572.688 87.5455H575.552L579.234 100.864H579.416L583.188 87.5455H586.007L580.688 105H578.052L574.234 91.5909H573.961L570.143 105H567.507ZM595.729 105.364C594.153 105.364 592.771 104.989 591.581 104.239C590.4 103.489 589.475 102.439 588.809 101.091C588.15 99.7424 587.82 98.1667 587.82 96.3636C587.82 94.5455 588.15 92.9583 588.809 91.6023C589.475 90.2462 590.4 89.1932 591.581 88.4432C592.771 87.6932 594.153 87.3182 595.729 87.3182C597.305 87.3182 598.684 87.6932 599.866 88.4432C601.055 89.1932 601.979 90.2462 602.638 91.6023C603.305 92.9583 603.638 94.5455 603.638 96.3636C603.638 98.1667 603.305 99.7424 602.638 101.091C601.979 102.439 601.055 103.489 599.866 104.239C598.684 104.989 597.305 105.364 595.729 105.364ZM595.729 102.955C596.926 102.955 597.911 102.648 598.684 102.034C599.456 101.42 600.028 100.614 600.4 99.6136C600.771 98.6136 600.956 97.5303 600.956 96.3636C600.956 95.197 600.771 94.1098 600.4 93.1023C600.028 92.0947 599.456 91.2803 598.684 90.6591C597.911 90.0379 596.926 89.7273 595.729 89.7273C594.532 89.7273 593.547 90.0379 592.775 90.6591C592.002 91.2803 591.43 92.0947 591.059 93.1023C590.688 94.1098 590.502 95.197 590.502 96.3636C590.502 97.5303 590.688 98.6136 591.059 99.6136C591.43 100.614 592.002 101.42 592.775 102.034C593.547 102.648 594.532 102.955 595.729 102.955ZM607.412 105V87.5455H610.003V90.1818H610.185C610.503 89.3182 611.079 88.6174 611.912 88.0795C612.745 87.5417 613.685 87.2727 614.73 87.2727C614.927 87.2727 615.173 87.2765 615.469 87.2841C615.764 87.2917 615.988 87.303 616.139 87.3182V90.0455C616.048 90.0227 615.84 89.9886 615.514 89.9432C615.196 89.8902 614.859 89.8636 614.503 89.8636C613.654 89.8636 612.897 90.0417 612.23 90.3977C611.571 90.7462 611.048 91.2311 610.662 91.8523C610.283 92.4659 610.094 93.1667 610.094 93.9545V105H607.412ZM621.498 98.6364L621.453 95.3182H621.998L629.635 87.5455H632.953L624.816 95.7727H624.589L621.498 98.6364ZM618.998 105V81.7273H621.68V105H618.998ZM630.089 105L623.271 96.3636L625.18 94.5L633.498 105H630.089ZM636.085 105V87.5455H638.766V105H636.085ZM637.448 84.6364C636.925 84.6364 636.475 84.4583 636.096 84.1023C635.725 83.7462 635.539 83.3182 635.539 82.8182C635.539 82.3182 635.725 81.8902 636.096 81.5341C636.475 81.178 636.925 81 637.448 81C637.971 81 638.418 81.178 638.789 81.5341C639.168 81.8902 639.357 82.3182 639.357 82.8182C639.357 83.3182 639.168 83.7462 638.789 84.1023C638.418 84.4583 637.971 84.6364 637.448 84.6364ZM646.04 94.5V105H643.358V87.5455H645.949V90.2727H646.176C646.586 89.3864 647.207 88.6742 648.04 88.1364C648.873 87.5909 649.949 87.3182 651.267 87.3182C652.449 87.3182 653.483 87.5606 654.37 88.0455C655.256 88.5227 655.945 89.25 656.438 90.2273C656.93 91.197 657.176 92.4242 657.176 93.9091V105H654.495V94.0909C654.495 92.7197 654.139 91.6515 653.426 90.8864C652.714 90.1136 651.737 89.7273 650.495 89.7273C649.639 89.7273 648.873 89.9129 648.199 90.2841C647.533 90.6553 647.006 91.197 646.62 91.9091C646.233 92.6212 646.04 93.4848 646.04 94.5ZM668.803 111.909C667.507 111.909 666.393 111.742 665.462 111.409C664.53 111.083 663.753 110.652 663.132 110.114C662.518 109.583 662.03 109.015 661.666 108.409L663.803 106.909C664.045 107.227 664.352 107.591 664.723 108C665.094 108.417 665.602 108.777 666.246 109.08C666.897 109.39 667.749 109.545 668.803 109.545C670.212 109.545 671.374 109.205 672.291 108.523C673.208 107.841 673.666 106.773 673.666 105.318V101.773H673.439C673.242 102.091 672.962 102.485 672.598 102.955C672.242 103.417 671.727 103.83 671.053 104.193C670.386 104.549 669.484 104.727 668.348 104.727C666.939 104.727 665.674 104.394 664.553 103.727C663.439 103.061 662.556 102.091 661.905 100.818C661.261 99.5455 660.939 98 660.939 96.1818C660.939 94.3939 661.253 92.8371 661.882 91.5114C662.511 90.178 663.386 89.1477 664.507 88.4205C665.628 87.6856 666.924 87.3182 668.393 87.3182C669.53 87.3182 670.431 87.5076 671.098 87.8864C671.772 88.2576 672.287 88.6818 672.643 89.1591C673.007 89.6288 673.287 90.0152 673.484 90.3182H673.757V87.5455H676.348V105.5C676.348 107 676.007 108.22 675.325 109.159C674.651 110.106 673.742 110.799 672.598 111.239C671.462 111.686 670.196 111.909 668.803 111.909ZM668.712 102.318C669.787 102.318 670.696 102.072 671.439 101.58C672.181 101.087 672.746 100.379 673.132 99.4545C673.518 98.5303 673.712 97.4242 673.712 96.1364C673.712 94.8788 673.522 93.7689 673.143 92.8068C672.765 91.8447 672.204 91.0909 671.462 90.5455C670.719 90 669.803 89.7273 668.712 89.7273C667.575 89.7273 666.628 90.0152 665.871 90.5909C665.121 91.1667 664.556 91.9394 664.178 92.9091C663.806 93.8788 663.621 94.9545 663.621 96.1364C663.621 97.3485 663.81 98.4205 664.189 99.3523C664.575 100.277 665.143 101.004 665.893 101.534C666.651 102.057 667.59 102.318 668.712 102.318ZM693.572 105L688.253 87.5455H691.072L694.844 100.909H695.026L698.753 87.5455H701.617L705.299 100.864H705.481L709.253 87.5455H712.072L706.753 105H704.117L700.299 91.5909H700.026L696.208 105H693.572ZM715.297 105V87.5455H717.979V105H715.297ZM716.661 84.6364C716.138 84.6364 715.687 84.4583 715.308 84.1023C714.937 83.7462 714.752 83.3182 714.752 82.8182C714.752 82.3182 714.937 81.8902 715.308 81.5341C715.687 81.178 716.138 81 716.661 81C717.183 81 717.63 81.178 718.002 81.5341C718.38 81.8902 718.57 82.3182 718.57 82.8182C718.57 83.3182 718.38 83.7462 718.002 84.1023C717.63 84.4583 717.183 84.6364 716.661 84.6364ZM730.162 87.5455V89.8182H721.116V87.5455H730.162ZM723.753 83.3636H726.434V100C726.434 100.758 726.544 101.326 726.764 101.705C726.991 102.076 727.279 102.326 727.628 102.455C727.984 102.576 728.359 102.636 728.753 102.636C729.048 102.636 729.29 102.621 729.48 102.591C729.669 102.553 729.821 102.523 729.934 102.5L730.48 104.909C730.298 104.977 730.044 105.045 729.719 105.114C729.393 105.189 728.98 105.227 728.48 105.227C727.722 105.227 726.98 105.064 726.253 104.739C725.533 104.413 724.934 103.917 724.457 103.25C723.987 102.583 723.753 101.742 723.753 100.727V83.3636ZM736.933 94.5V105H734.251V81.7273H736.933V90.2727H737.16C737.569 89.3712 738.183 88.6553 739.001 88.125C739.827 87.5871 740.925 87.3182 742.296 87.3182C743.486 87.3182 744.527 87.5568 745.421 88.0341C746.315 88.5038 747.008 89.2273 747.501 90.2045C748.001 91.1742 748.251 92.4091 748.251 93.9091V105H745.569V94.0909C745.569 92.7045 745.209 91.6326 744.489 90.875C743.777 90.1098 742.789 89.7273 741.524 89.7273C740.645 89.7273 739.857 89.9129 739.16 90.2841C738.471 90.6553 737.925 91.197 737.524 91.9091C737.13 92.6212 736.933 93.4848 736.933 94.5ZM772.517 97.8636V87.5455H775.199V105H772.517V102.045H772.335C771.926 102.932 771.29 103.686 770.426 104.307C769.563 104.92 768.472 105.227 767.153 105.227C766.062 105.227 765.093 104.989 764.244 104.511C763.396 104.027 762.729 103.299 762.244 102.33C761.759 101.352 761.517 100.121 761.517 98.6364V87.5455H764.199V98.4545C764.199 99.7273 764.555 100.742 765.267 101.5C765.987 102.258 766.903 102.636 768.017 102.636C768.684 102.636 769.362 102.466 770.051 102.125C770.748 101.784 771.331 101.261 771.801 100.557C772.278 99.8523 772.517 98.9545 772.517 97.8636ZM792.154 91.4545L789.745 92.1364C789.594 91.7348 789.37 91.3447 789.075 90.9659C788.787 90.5795 788.393 90.2614 787.893 90.0114C787.393 89.7614 786.753 89.6364 785.973 89.6364C784.904 89.6364 784.014 89.8826 783.302 90.375C782.598 90.8598 782.245 91.4773 782.245 92.2273C782.245 92.8939 782.488 93.4205 782.973 93.8068C783.457 94.1932 784.215 94.5152 785.245 94.7727L787.836 95.4091C789.397 95.7879 790.56 96.3674 791.325 97.1477C792.09 97.9205 792.473 98.9167 792.473 100.136C792.473 101.136 792.185 102.03 791.609 102.818C791.041 103.606 790.245 104.227 789.223 104.682C788.2 105.136 787.01 105.364 785.654 105.364C783.874 105.364 782.401 104.977 781.234 104.205C780.067 103.432 779.329 102.303 779.018 100.818L781.564 100.182C781.806 101.121 782.264 101.826 782.939 102.295C783.62 102.765 784.51 103 785.609 103C786.859 103 787.851 102.735 788.586 102.205C789.329 101.667 789.7 101.023 789.7 100.273C789.7 99.6667 789.488 99.1591 789.064 98.75C788.639 98.3333 787.988 98.0227 787.109 97.8182L784.2 97.1364C782.601 96.7576 781.427 96.1705 780.677 95.375C779.935 94.572 779.564 93.5682 779.564 92.3636C779.564 91.3788 779.84 90.5076 780.393 89.75C780.954 88.9924 781.715 88.3977 782.677 87.9659C783.647 87.5341 784.745 87.3182 785.973 87.3182C787.7 87.3182 789.056 87.697 790.041 88.4545C791.033 89.2121 791.738 90.2121 792.154 91.4545ZM798.144 105.182C797.583 105.182 797.102 104.981 796.701 104.58C796.299 104.178 796.099 103.697 796.099 103.136C796.099 102.576 796.299 102.095 796.701 101.693C797.102 101.292 797.583 101.091 798.144 101.091C798.705 101.091 799.186 101.292 799.587 101.693C799.989 102.095 800.19 102.576 800.19 103.136C800.19 103.508 800.095 103.848 799.905 104.159C799.724 104.47 799.477 104.72 799.167 104.909C798.864 105.091 798.523 105.182 798.144 105.182Z" fill="#000E38"/>
<path d="M414.25 151.135C413.45 151.135 412.72 150.93 412.06 150.52C411.4 150.11 410.875 149.51 410.485 148.72C410.105 147.93 409.915 146.96 409.915 145.81C409.915 144.68 410.11 143.71 410.5 142.9C410.89 142.09 411.435 141.47 412.135 141.04C412.835 140.61 413.65 140.395 414.58 140.395C415.08 140.395 415.6 140.455 416.14 140.575C416.68 140.695 417.24 140.885 417.82 141.145L417.715 143.5H416.98L416.71 141.64L416.935 141.88C416.535 141.71 416.13 141.585 415.72 141.505C415.32 141.415 414.945 141.37 414.595 141.37C413.905 141.37 413.31 141.545 412.81 141.895C412.31 142.235 411.92 142.725 411.64 143.365C411.37 144.005 411.235 144.77 411.235 145.66C411.235 146.62 411.38 147.43 411.67 148.09C411.96 148.75 412.355 149.255 412.855 149.605C413.365 149.945 413.935 150.115 414.565 150.115C415.025 150.115 415.505 150.015 416.005 149.815C416.515 149.615 417.005 149.31 417.475 148.9L417.97 149.635C417.38 150.145 416.765 150.525 416.125 150.775C415.485 151.015 414.86 151.135 414.25 151.135ZM422.532 142.945C423.632 142.945 424.492 143.29 425.112 143.98C425.742 144.67 426.057 145.645 426.057 146.905C426.057 147.755 425.902 148.5 425.592 149.14C425.292 149.77 424.862 150.26 424.302 150.61C423.742 150.96 423.067 151.135 422.277 151.135C421.197 151.135 420.352 150.8 419.742 150.13C419.132 149.45 418.827 148.475 418.827 147.205C418.827 146.325 418.972 145.57 419.262 144.94C419.562 144.3 419.987 143.81 420.537 143.47C421.097 143.12 421.762 142.945 422.532 142.945ZM422.472 143.83C421.702 143.83 421.112 144.12 420.702 144.7C420.292 145.28 420.087 146.095 420.087 147.145C420.087 148.175 420.282 148.95 420.672 149.47C421.062 149.99 421.622 150.25 422.352 150.25C422.882 150.25 423.327 150.12 423.687 149.86C424.057 149.59 424.332 149.21 424.512 148.72C424.702 148.23 424.797 147.645 424.797 146.965C424.797 145.945 424.592 145.17 424.182 144.64C423.782 144.1 423.212 143.83 422.472 143.83ZM427.17 151V150.355L428.52 150.055L428.34 150.28V143.83L428.52 144.055L427.17 143.77V143.125L429.27 143.02L429.435 144.49L429.27 144.43C429.77 143.92 430.29 143.545 430.83 143.305C431.38 143.065 431.9 142.945 432.39 142.945C433.05 142.945 433.595 143.15 434.025 143.56C434.465 143.96 434.68 144.585 434.67 145.435V150.28L434.52 150.07L435.84 150.355V151H432.345V150.355L433.65 150.07L433.47 150.295V145.69C433.47 145.07 433.33 144.615 433.05 144.325C432.77 144.035 432.395 143.89 431.925 143.89C431.555 143.89 431.15 143.99 430.71 144.19C430.28 144.39 429.855 144.7 429.435 145.12L429.54 144.88V150.295L429.39 150.085L430.665 150.355V151H427.17ZM439.168 151.135C438.648 151.135 438.238 150.975 437.938 150.655C437.638 150.325 437.488 149.83 437.488 149.17V143.725L437.683 143.92H436.138V143.26L437.698 143.035L437.488 143.275V141.295L438.688 141.1V143.275L438.523 143.08H440.878L440.833 143.92H438.523L438.688 143.725V149.005C438.688 149.425 438.768 149.73 438.928 149.92C439.098 150.11 439.333 150.205 439.633 150.205C439.813 150.205 440.008 150.175 440.218 150.115C440.428 150.055 440.653 149.97 440.893 149.86L441.148 150.55C440.438 150.94 439.778 151.135 439.168 151.135ZM447.816 150.325L447.621 150.055L449.001 150.325V150.985L446.901 151.075L446.721 149.635L446.826 149.68C446.386 150.16 445.911 150.525 445.401 150.775C444.891 151.015 444.396 151.135 443.916 151.135C443.336 151.135 442.846 150.95 442.446 150.58C442.046 150.21 441.846 149.65 441.846 148.9C441.846 148.31 441.971 147.86 442.221 147.55C442.471 147.23 442.816 147.005 443.256 146.875C443.696 146.745 444.206 146.68 444.786 146.68H446.751L446.616 146.83V145.39C446.616 144.84 446.471 144.45 446.181 144.22C445.891 143.98 445.491 143.86 444.981 143.86C444.711 143.86 444.421 143.89 444.111 143.95C443.811 144 443.491 144.085 443.151 144.205L443.331 144.01L443.181 145.375H442.386L442.266 143.515C442.836 143.325 443.371 143.185 443.871 143.095C444.371 142.995 444.831 142.945 445.251 142.945C446.051 142.945 446.676 143.125 447.126 143.485C447.586 143.835 447.816 144.4 447.816 145.18V150.325ZM443.061 148.795C443.061 149.285 443.176 149.645 443.406 149.875C443.646 150.105 443.946 150.22 444.306 150.22C444.656 150.22 445.041 150.115 445.461 149.905C445.891 149.685 446.306 149.39 446.706 149.02L446.616 149.335V147.325L446.751 147.46H444.966C444.256 147.46 443.761 147.57 443.481 147.79C443.201 148 443.061 148.335 443.061 148.795ZM453.214 151.135C452.574 151.135 451.994 150.98 451.474 150.67C450.964 150.35 450.559 149.89 450.259 149.29C449.969 148.69 449.824 147.97 449.824 147.13C449.824 146.4 449.924 145.775 450.124 145.255C450.334 144.725 450.614 144.29 450.964 143.95C451.314 143.61 451.714 143.36 452.164 143.2C452.624 143.03 453.099 142.945 453.589 142.945C453.989 142.945 454.414 143 454.864 143.11C455.324 143.22 455.724 143.37 456.064 143.56L456.004 145.435H455.194L454.999 144.025L455.119 144.16C454.869 144.04 454.604 143.955 454.324 143.905C454.044 143.855 453.794 143.83 453.574 143.83C453.054 143.83 452.604 143.965 452.224 144.235C451.854 144.495 451.569 144.865 451.369 145.345C451.169 145.825 451.069 146.395 451.069 147.055C451.069 147.735 451.174 148.31 451.384 148.78C451.594 149.25 451.879 149.605 452.239 149.845C452.609 150.085 453.024 150.205 453.484 150.205C453.844 150.205 454.224 150.13 454.624 149.98C455.024 149.83 455.439 149.605 455.869 149.305L456.289 149.965C455.769 150.365 455.249 150.66 454.729 150.85C454.209 151.04 453.704 151.135 453.214 151.135ZM459.709 151.135C459.189 151.135 458.779 150.975 458.479 150.655C458.179 150.325 458.029 149.83 458.029 149.17V143.725L458.224 143.92H456.679V143.26L458.239 143.035L458.029 143.275V141.295L459.229 141.1V143.275L459.064 143.08H461.419L461.374 143.92H459.064L459.229 143.725V149.005C459.229 149.425 459.309 149.73 459.469 149.92C459.639 150.11 459.874 150.205 460.174 150.205C460.354 150.205 460.549 150.175 460.759 150.115C460.969 150.055 461.194 149.97 461.434 149.86L461.689 150.55C460.979 150.94 460.319 151.135 459.709 151.135ZM468.341 151.135C467.671 151.135 467.121 150.93 466.691 150.52C466.261 150.11 466.046 149.48 466.046 148.63V143.845L466.196 144.055L464.876 143.77V143.125L467.246 143.035V148.42C467.246 149.02 467.386 149.465 467.666 149.755C467.946 150.045 468.321 150.19 468.791 150.19C469.161 150.19 469.561 150.09 469.991 149.89C470.431 149.69 470.861 149.38 471.281 148.96L471.176 149.23V143.815L471.326 144.055L470.006 143.77V143.125L472.376 143.02V150.265L472.196 150.07L473.561 150.325V150.985L471.446 151.075L471.266 149.59L471.446 149.65C470.946 150.16 470.426 150.535 469.886 150.775C469.346 151.015 468.831 151.135 468.341 151.135ZM475.858 145C475.858 145.32 475.963 145.57 476.173 145.75C476.383 145.93 476.653 146.08 476.983 146.2C477.313 146.31 477.663 146.42 478.033 146.53C478.403 146.64 478.753 146.775 479.083 146.935C479.413 147.095 479.683 147.315 479.893 147.595C480.103 147.875 480.208 148.245 480.208 148.705C480.208 149.235 480.063 149.68 479.773 150.04C479.483 150.4 479.088 150.675 478.588 150.865C478.098 151.045 477.548 151.135 476.938 151.135C476.568 151.135 476.188 151.105 475.798 151.045C475.408 150.985 475.008 150.9 474.598 150.79L474.703 148.78H475.468L475.618 150.25L475.483 150.085C475.713 150.145 475.963 150.195 476.233 150.235C476.503 150.275 476.753 150.295 476.983 150.295C477.343 150.295 477.673 150.245 477.973 150.145C478.283 150.035 478.533 149.88 478.723 149.68C478.913 149.47 479.008 149.21 479.008 148.9C479.008 148.57 478.903 148.31 478.693 148.12C478.493 147.93 478.228 147.775 477.898 147.655C477.568 147.535 477.218 147.425 476.848 147.325C476.488 147.215 476.143 147.08 475.813 146.92C475.483 146.75 475.213 146.53 475.003 146.26C474.793 145.99 474.688 145.62 474.688 145.15C474.688 144.64 474.818 144.225 475.078 143.905C475.348 143.575 475.698 143.335 476.128 143.185C476.568 143.025 477.038 142.945 477.538 142.945C477.878 142.945 478.253 142.98 478.663 143.05C479.073 143.12 479.493 143.225 479.923 143.365L479.848 145.06H479.083L478.858 143.815L479.038 144.025C478.518 143.875 478.028 143.8 477.568 143.8C477.078 143.8 476.668 143.905 476.338 144.115C476.018 144.315 475.858 144.61 475.858 145ZM486.864 151.135C486.344 151.135 485.934 150.975 485.634 150.655C485.334 150.325 485.184 149.83 485.184 149.17V143.725L485.379 143.92H483.834V143.26L485.394 143.035L485.184 143.275V141.295L486.384 141.1V143.275L486.219 143.08H488.574L488.529 143.92H486.219L486.384 143.725V149.005C486.384 149.425 486.464 149.73 486.624 149.92C486.794 150.11 487.029 150.205 487.329 150.205C487.509 150.205 487.704 150.175 487.914 150.115C488.124 150.055 488.349 149.97 488.589 149.86L488.844 150.55C488.134 150.94 487.474 151.135 486.864 151.135ZM493.143 142.945C494.243 142.945 495.103 143.29 495.723 143.98C496.353 144.67 496.668 145.645 496.668 146.905C496.668 147.755 496.513 148.5 496.203 149.14C495.903 149.77 495.473 150.26 494.913 150.61C494.353 150.96 493.678 151.135 492.888 151.135C491.808 151.135 490.963 150.8 490.353 150.13C489.743 149.45 489.438 148.475 489.438 147.205C489.438 146.325 489.583 145.57 489.873 144.94C490.173 144.3 490.598 143.81 491.148 143.47C491.708 143.12 492.373 142.945 493.143 142.945ZM493.083 143.83C492.313 143.83 491.723 144.12 491.313 144.7C490.903 145.28 490.698 146.095 490.698 147.145C490.698 148.175 490.893 148.95 491.283 149.47C491.673 149.99 492.233 150.25 492.963 150.25C493.493 150.25 493.938 150.12 494.298 149.86C494.668 149.59 494.943 149.21 495.123 148.72C495.313 148.23 495.408 147.645 495.408 146.965C495.408 145.945 495.203 145.17 494.793 144.64C494.393 144.1 493.823 143.83 493.083 143.83ZM502.809 150.235L502.674 150.07L503.979 150.355V151H500.424V150.355L501.729 150.07L501.609 150.235V140.305L501.729 140.44L500.424 140.17V139.525L502.809 139.42V150.235ZM508.331 151.135C507.661 151.135 507.066 150.985 506.546 150.685C506.036 150.375 505.636 149.925 505.346 149.335C505.056 148.745 504.911 148.025 504.911 147.175C504.911 146.305 505.061 145.555 505.361 144.925C505.661 144.295 506.086 143.81 506.636 143.47C507.186 143.12 507.831 142.945 508.571 142.945C509.271 142.945 509.846 143.095 510.296 143.395C510.756 143.685 511.096 144.09 511.316 144.61C511.546 145.13 511.661 145.725 511.661 146.395C511.661 146.505 511.656 146.615 511.646 146.725C511.636 146.835 511.621 146.97 511.601 147.13H505.826V146.275H510.551L510.416 146.365C510.426 145.915 510.371 145.5 510.251 145.12C510.131 144.74 509.926 144.435 509.636 144.205C509.346 143.975 508.961 143.86 508.481 143.86C507.971 143.86 507.541 143.995 507.191 144.265C506.841 144.535 506.581 144.905 506.411 145.375C506.241 145.845 506.156 146.39 506.156 147.01C506.156 147.67 506.251 148.24 506.441 148.72C506.631 149.19 506.906 149.555 507.266 149.815C507.636 150.075 508.086 150.205 508.616 150.205C508.986 150.205 509.391 150.135 509.831 149.995C510.271 149.845 510.726 149.62 511.196 149.32L511.631 149.995C511.071 150.375 510.511 150.66 509.951 150.85C509.391 151.04 508.851 151.135 508.331 151.135ZM518.98 150.325L518.785 150.055L520.165 150.325V150.985L518.065 151.075L517.885 149.635L517.99 149.68C517.55 150.16 517.075 150.525 516.565 150.775C516.055 151.015 515.56 151.135 515.08 151.135C514.5 151.135 514.01 150.95 513.61 150.58C513.21 150.21 513.01 149.65 513.01 148.9C513.01 148.31 513.135 147.86 513.385 147.55C513.635 147.23 513.98 147.005 514.42 146.875C514.86 146.745 515.37 146.68 515.95 146.68H517.915L517.78 146.83V145.39C517.78 144.84 517.635 144.45 517.345 144.22C517.055 143.98 516.655 143.86 516.145 143.86C515.875 143.86 515.585 143.89 515.275 143.95C514.975 144 514.655 144.085 514.315 144.205L514.495 144.01L514.345 145.375H513.55L513.43 143.515C514 143.325 514.535 143.185 515.035 143.095C515.535 142.995 515.995 142.945 516.415 142.945C517.215 142.945 517.84 143.125 518.29 143.485C518.75 143.835 518.98 144.4 518.98 145.18V150.325ZM514.225 148.795C514.225 149.285 514.34 149.645 514.57 149.875C514.81 150.105 515.11 150.22 515.47 150.22C515.82 150.22 516.205 150.115 516.625 149.905C517.055 149.685 517.47 149.39 517.87 149.02L517.78 149.335V147.325L517.915 147.46H516.13C515.42 147.46 514.925 147.57 514.645 147.79C514.365 148 514.225 148.335 514.225 148.795ZM520.868 151V150.355L522.188 150.07L522.038 150.295V143.83L522.203 144.055L520.868 143.77V143.125L522.968 143.02L523.133 144.49L522.968 144.43C523.418 143.96 523.858 143.595 524.288 143.335C524.718 143.075 525.188 142.945 525.698 142.945C526.018 142.945 526.353 142.995 526.703 143.095L526.613 145.195H525.863L525.683 143.71L525.818 143.98C525.748 143.96 525.673 143.945 525.593 143.935C525.513 143.925 525.433 143.92 525.353 143.92C524.953 143.92 524.563 144.04 524.183 144.28C523.813 144.52 523.458 144.83 523.118 145.21L523.238 144.85V150.295L523.058 150.07L524.693 150.355V151H520.868ZM527.163 151V150.355L528.513 150.055L528.333 150.28V143.83L528.513 144.055L527.163 143.77V143.125L529.263 143.02L529.428 144.49L529.263 144.43C529.763 143.92 530.283 143.545 530.823 143.305C531.373 143.065 531.893 142.945 532.383 142.945C533.043 142.945 533.588 143.15 534.018 143.56C534.458 143.96 534.673 144.585 534.663 145.435V150.28L534.513 150.07L535.833 150.355V151H532.338V150.355L533.643 150.07L533.463 150.295V145.69C533.463 145.07 533.323 144.615 533.043 144.325C532.763 144.035 532.388 143.89 531.918 143.89C531.548 143.89 531.143 143.99 530.703 144.19C530.273 144.39 529.848 144.7 529.428 145.12L529.533 144.88V150.295L529.383 150.085L530.658 150.355V151H527.163ZM546.573 144.445L546.408 144.475C546.898 143.965 547.418 143.585 547.968 143.335C548.518 143.075 549.033 142.945 549.513 142.945C550.123 142.945 550.633 143.15 551.043 143.56C551.463 143.96 551.673 144.58 551.673 145.42V150.28L551.523 150.07L552.843 150.355V151H549.363V150.355L550.638 150.07L550.473 150.295V145.69C550.473 145.07 550.338 144.615 550.068 144.325C549.808 144.035 549.468 143.89 549.048 143.89C548.688 143.89 548.288 143.995 547.848 144.205C547.418 144.415 546.993 144.735 546.573 145.165L546.678 144.88C546.688 144.97 546.693 145.055 546.693 145.135C546.703 145.215 546.708 145.295 546.708 145.375V150.28L546.558 150.07L547.803 150.355V151H544.413V150.355L545.688 150.07L545.508 150.295V145.69C545.508 145.07 545.373 144.615 545.103 144.325C544.843 144.035 544.503 143.89 544.083 143.89C543.723 143.89 543.328 143.99 542.898 144.19C542.468 144.39 542.043 144.7 541.623 145.12L541.728 144.895V150.295L541.578 150.085L542.823 150.355V151H539.358V150.355L540.708 150.055L540.528 150.28V143.83L540.708 144.055L539.358 143.77V143.125L541.458 143.02L541.623 144.49L541.458 144.43C541.948 143.92 542.463 143.545 543.003 143.305C543.553 143.065 544.073 142.945 544.563 142.945C545.023 142.945 545.433 143.07 545.793 143.32C546.153 143.56 546.413 143.935 546.573 144.445ZM557.36 142.945C558.46 142.945 559.32 143.29 559.94 143.98C560.57 144.67 560.885 145.645 560.885 146.905C560.885 147.755 560.73 148.5 560.42 149.14C560.12 149.77 559.69 150.26 559.13 150.61C558.57 150.96 557.895 151.135 557.105 151.135C556.025 151.135 555.18 150.8 554.57 150.13C553.96 149.45 553.655 148.475 553.655 147.205C553.655 146.325 553.8 145.57 554.09 144.94C554.39 144.3 554.815 143.81 555.365 143.47C555.925 143.12 556.59 142.945 557.36 142.945ZM557.3 143.83C556.53 143.83 555.94 144.12 555.53 144.7C555.12 145.28 554.915 146.095 554.915 147.145C554.915 148.175 555.11 148.95 555.5 149.47C555.89 149.99 556.45 150.25 557.18 150.25C557.71 150.25 558.155 150.12 558.515 149.86C558.885 149.59 559.16 149.21 559.34 148.72C559.53 148.23 559.625 147.645 559.625 146.965C559.625 145.945 559.42 145.17 559.01 144.64C558.61 144.1 558.04 143.83 557.3 143.83ZM561.998 151V150.355L563.318 150.07L563.168 150.295V143.83L563.333 144.055L561.998 143.77V143.125L564.098 143.02L564.263 144.49L564.098 144.43C564.548 143.96 564.988 143.595 565.418 143.335C565.848 143.075 566.318 142.945 566.828 142.945C567.148 142.945 567.483 142.995 567.833 143.095L567.743 145.195H566.993L566.813 143.71L566.948 143.98C566.878 143.96 566.803 143.945 566.723 143.935C566.643 143.925 566.563 143.92 566.483 143.92C566.083 143.92 565.693 144.04 565.313 144.28C564.943 144.52 564.588 144.83 564.248 145.21L564.368 144.85V150.295L564.188 150.07L565.823 150.355V151H561.998ZM571.702 151.135C571.032 151.135 570.437 150.985 569.917 150.685C569.407 150.375 569.007 149.925 568.717 149.335C568.427 148.745 568.282 148.025 568.282 147.175C568.282 146.305 568.432 145.555 568.732 144.925C569.032 144.295 569.457 143.81 570.007 143.47C570.557 143.12 571.202 142.945 571.942 142.945C572.642 142.945 573.217 143.095 573.667 143.395C574.127 143.685 574.467 144.09 574.687 144.61C574.917 145.13 575.032 145.725 575.032 146.395C575.032 146.505 575.027 146.615 575.017 146.725C575.007 146.835 574.992 146.97 574.972 147.13H569.197V146.275H573.922L573.787 146.365C573.797 145.915 573.742 145.5 573.622 145.12C573.502 144.74 573.297 144.435 573.007 144.205C572.717 143.975 572.332 143.86 571.852 143.86C571.342 143.86 570.912 143.995 570.562 144.265C570.212 144.535 569.952 144.905 569.782 145.375C569.612 145.845 569.527 146.39 569.527 147.01C569.527 147.67 569.622 148.24 569.812 148.72C570.002 149.19 570.277 149.555 570.637 149.815C571.007 150.075 571.457 150.205 571.987 150.205C572.357 150.205 572.762 150.135 573.202 149.995C573.642 149.845 574.097 149.62 574.567 149.32L575.002 149.995C574.442 150.375 573.882 150.66 573.322 150.85C572.762 151.04 572.222 151.135 571.702 151.135ZM585.203 150.325L585.008 150.055L586.388 150.325V150.985L584.288 151.075L584.108 149.635L584.213 149.68C583.773 150.16 583.298 150.525 582.788 150.775C582.278 151.015 581.783 151.135 581.303 151.135C580.723 151.135 580.233 150.95 579.833 150.58C579.433 150.21 579.233 149.65 579.233 148.9C579.233 148.31 579.358 147.86 579.608 147.55C579.858 147.23 580.203 147.005 580.643 146.875C581.083 146.745 581.593 146.68 582.173 146.68H584.138L584.003 146.83V145.39C584.003 144.84 583.858 144.45 583.568 144.22C583.278 143.98 582.878 143.86 582.368 143.86C582.098 143.86 581.808 143.89 581.498 143.95C581.198 144 580.878 144.085 580.538 144.205L580.718 144.01L580.568 145.375H579.773L579.653 143.515C580.223 143.325 580.758 143.185 581.258 143.095C581.758 142.995 582.218 142.945 582.638 142.945C583.438 142.945 584.063 143.125 584.513 143.485C584.973 143.835 585.203 144.4 585.203 145.18V150.325ZM580.448 148.795C580.448 149.285 580.563 149.645 580.793 149.875C581.033 150.105 581.333 150.22 581.693 150.22C582.043 150.22 582.428 150.115 582.848 149.905C583.278 149.685 583.693 149.39 584.093 149.02L584.003 149.335V147.325L584.138 147.46H582.353C581.643 147.46 581.148 147.57 580.868 147.79C580.588 148 580.448 148.335 580.448 148.795ZM590.271 151.135C589.911 151.135 589.526 151.11 589.116 151.06C588.716 151.01 588.291 150.935 587.841 150.835V140.125L588.081 140.47L586.671 140.17V139.525L589.041 139.42V144.355L588.876 144.175C589.296 143.775 589.731 143.47 590.181 143.26C590.631 143.05 591.081 142.945 591.531 142.945C592.091 142.945 592.591 143.1 593.031 143.41C593.481 143.72 593.836 144.17 594.096 144.76C594.356 145.35 594.486 146.075 594.486 146.935C594.486 147.585 594.401 148.17 594.231 148.69C594.071 149.21 593.821 149.65 593.481 150.01C593.141 150.37 592.706 150.65 592.176 150.85C591.646 151.04 591.011 151.135 590.271 151.135ZM590.496 150.25C591.386 150.25 592.066 149.975 592.536 149.425C593.006 148.875 593.241 148.075 593.241 147.025C593.241 146.365 593.146 145.8 592.956 145.33C592.776 144.86 592.526 144.5 592.206 144.25C591.886 143.99 591.521 143.86 591.111 143.86C590.761 143.86 590.396 143.955 590.016 144.145C589.646 144.325 589.271 144.605 588.891 144.985L589.041 144.55V150.34L588.876 150.01C589.486 150.17 590.026 150.25 590.496 150.25ZM599.467 142.945C600.567 142.945 601.427 143.29 602.047 143.98C602.677 144.67 602.992 145.645 602.992 146.905C602.992 147.755 602.837 148.5 602.527 149.14C602.227 149.77 601.797 150.26 601.237 150.61C600.677 150.96 600.002 151.135 599.212 151.135C598.132 151.135 597.287 150.8 596.677 150.13C596.067 149.45 595.762 148.475 595.762 147.205C595.762 146.325 595.907 145.57 596.197 144.94C596.497 144.3 596.922 143.81 597.472 143.47C598.032 143.12 598.697 142.945 599.467 142.945ZM599.407 143.83C598.637 143.83 598.047 144.12 597.637 144.7C597.227 145.28 597.022 146.095 597.022 147.145C597.022 148.175 597.217 148.95 597.607 149.47C597.997 149.99 598.557 150.25 599.287 150.25C599.817 150.25 600.262 150.12 600.622 149.86C600.992 149.59 601.267 149.21 601.447 148.72C601.637 148.23 601.732 147.645 601.732 146.965C601.732 145.945 601.527 145.17 601.117 144.64C600.717 144.1 600.147 143.83 599.407 143.83ZM607.255 151.135C606.585 151.135 606.035 150.93 605.605 150.52C605.175 150.11 604.96 149.48 604.96 148.63V143.845L605.11 144.055L603.79 143.77V143.125L606.16 143.035V148.42C606.16 149.02 606.3 149.465 606.58 149.755C606.86 150.045 607.235 150.19 607.705 150.19C608.075 150.19 608.475 150.09 608.905 149.89C609.345 149.69 609.775 149.38 610.195 148.96L610.09 149.23V143.815L610.24 144.055L608.92 143.77V143.125L611.29 143.02V150.265L611.11 150.07L612.475 150.325V150.985L610.36 151.075L610.18 149.59L610.36 149.65C609.86 150.16 609.34 150.535 608.8 150.775C608.26 151.015 607.745 151.135 607.255 151.135ZM615.912 151.135C615.392 151.135 614.982 150.975 614.682 150.655C614.382 150.325 614.232 149.83 614.232 149.17V143.725L614.427 143.92H612.882V143.26L614.442 143.035L614.232 143.275V141.295L615.432 141.1V143.275L615.267 143.08H617.622L617.577 143.92H615.267L615.432 143.725V149.005C615.432 149.425 615.512 149.73 615.672 149.92C615.842 150.11 616.077 150.205 616.377 150.205C616.557 150.205 616.752 150.175 616.962 150.115C617.172 150.055 617.397 149.97 617.637 149.86L617.892 150.55C617.182 150.94 616.522 151.135 615.912 151.135ZM625.235 142.945C626.335 142.945 627.195 143.29 627.815 143.98C628.445 144.67 628.76 145.645 628.76 146.905C628.76 147.755 628.605 148.5 628.295 149.14C627.995 149.77 627.565 150.26 627.005 150.61C626.445 150.96 625.77 151.135 624.98 151.135C623.9 151.135 623.055 150.8 622.445 150.13C621.835 149.45 621.53 148.475 621.53 147.205C621.53 146.325 621.675 145.57 621.965 144.94C622.265 144.3 622.69 143.81 623.24 143.47C623.8 143.12 624.465 142.945 625.235 142.945ZM625.175 143.83C624.405 143.83 623.815 144.12 623.405 144.7C622.995 145.28 622.79 146.095 622.79 147.145C622.79 148.175 622.985 148.95 623.375 149.47C623.765 149.99 624.325 150.25 625.055 150.25C625.585 150.25 626.03 150.12 626.39 149.86C626.76 149.59 627.035 149.21 627.215 148.72C627.405 148.23 627.5 147.645 627.5 146.965C627.5 145.945 627.295 145.17 626.885 144.64C626.485 144.1 625.915 143.83 625.175 143.83ZM633.023 151.135C632.353 151.135 631.803 150.93 631.373 150.52C630.943 150.11 630.728 149.48 630.728 148.63V143.845L630.878 144.055L629.558 143.77V143.125L631.928 143.035V148.42C631.928 149.02 632.068 149.465 632.348 149.755C632.628 150.045 633.003 150.19 633.473 150.19C633.843 150.19 634.243 150.09 634.673 149.89C635.113 149.69 635.543 149.38 635.963 148.96L635.858 149.23V143.815L636.008 144.055L634.688 143.77V143.125L637.058 143.02V150.265L636.878 150.07L638.243 150.325V150.985L636.128 151.075L635.948 149.59L636.128 149.65C635.628 150.16 635.108 150.535 634.568 150.775C634.028 151.015 633.513 151.135 633.023 151.135ZM639.024 151V150.355L640.344 150.07L640.194 150.295V143.83L640.359 144.055L639.024 143.77V143.125L641.124 143.02L641.289 144.49L641.124 144.43C641.574 143.96 642.014 143.595 642.444 143.335C642.874 143.075 643.344 142.945 643.854 142.945C644.174 142.945 644.509 142.995 644.859 143.095L644.769 145.195H644.019L643.839 143.71L643.974 143.98C643.904 143.96 643.829 143.945 643.749 143.935C643.669 143.925 643.589 143.92 643.509 143.92C643.109 143.92 642.719 144.04 642.339 144.28C641.969 144.52 641.614 144.83 641.274 145.21L641.394 144.85V150.295L641.214 150.07L642.849 150.355V151H639.024ZM409.585 174V173.355L410.905 173.07L410.755 173.25V166.815L410.905 166.98H409.555V166.32L410.935 166.125L410.755 166.35V165.09C410.755 164.15 410.995 163.46 411.475 163.02C411.965 162.57 412.605 162.345 413.395 162.345C413.655 162.345 413.92 162.37 414.19 162.42C414.46 162.46 414.745 162.53 415.045 162.63L414.85 163.455C414.62 163.385 414.4 163.33 414.19 163.29C413.98 163.25 413.775 163.23 413.575 163.23C413.085 163.23 412.69 163.37 412.39 163.65C412.1 163.93 411.955 164.375 411.955 164.985V166.35L411.76 166.14H414.055L414.025 166.98H411.805L411.955 166.815V173.235L411.805 173.07L413.38 173.355V174H409.585ZM417.829 174.135C417.159 174.135 416.609 173.93 416.179 173.52C415.749 173.11 415.534 172.48 415.534 171.63V166.845L415.684 167.055L414.364 166.77V166.125L416.734 166.035V171.42C416.734 172.02 416.874 172.465 417.154 172.755C417.434 173.045 417.809 173.19 418.279 173.19C418.649 173.19 419.049 173.09 419.479 172.89C419.919 172.69 420.349 172.38 420.769 171.96L420.664 172.23V166.815L420.814 167.055L419.494 166.77V166.125L421.864 166.02V173.265L421.684 173.07L423.049 173.325V173.985L420.934 174.075L420.754 172.59L420.934 172.65C420.434 173.16 419.914 173.535 419.374 173.775C418.834 174.015 418.319 174.135 417.829 174.135ZM426.006 173.235L425.871 173.07L427.176 173.355V174H423.621V173.355L424.926 173.07L424.806 173.235V163.305L424.926 163.44L423.621 163.17V162.525L426.006 162.42V173.235ZM430.177 173.235L430.042 173.07L431.347 173.355V174H427.792V173.355L429.097 173.07L428.977 173.235V163.305L429.097 163.44L427.792 163.17V162.525L430.177 162.42V173.235ZM434.982 174V173.355L436.302 173.07L436.152 173.295V166.83L436.317 167.055L434.982 166.77V166.125L437.082 166.02L437.247 167.49L437.082 167.43C437.532 166.96 437.972 166.595 438.402 166.335C438.832 166.075 439.302 165.945 439.812 165.945C440.132 165.945 440.467 165.995 440.817 166.095L440.727 168.195H439.977L439.797 166.71L439.932 166.98C439.862 166.96 439.787 166.945 439.707 166.935C439.627 166.925 439.547 166.92 439.467 166.92C439.067 166.92 438.677 167.04 438.297 167.28C437.927 167.52 437.572 167.83 437.232 168.21L437.352 167.85V173.295L437.172 173.07L438.807 173.355V174H434.982ZM447.149 173.325L446.954 173.055L448.334 173.325V173.985L446.234 174.075L446.054 172.635L446.159 172.68C445.719 173.16 445.244 173.525 444.734 173.775C444.224 174.015 443.729 174.135 443.249 174.135C442.669 174.135 442.179 173.95 441.779 173.58C441.379 173.21 441.179 172.65 441.179 171.9C441.179 171.31 441.304 170.86 441.554 170.55C441.804 170.23 442.149 170.005 442.589 169.875C443.029 169.745 443.539 169.68 444.119 169.68H446.084L445.949 169.83V168.39C445.949 167.84 445.804 167.45 445.514 167.22C445.224 166.98 444.824 166.86 444.314 166.86C444.044 166.86 443.754 166.89 443.444 166.95C443.144 167 442.824 167.085 442.484 167.205L442.664 167.01L442.514 168.375H441.719L441.599 166.515C442.169 166.325 442.704 166.185 443.204 166.095C443.704 165.995 444.164 165.945 444.584 165.945C445.384 165.945 446.009 166.125 446.459 166.485C446.919 166.835 447.149 167.4 447.149 168.18V173.325ZM442.394 171.795C442.394 172.285 442.509 172.645 442.739 172.875C442.979 173.105 443.279 173.22 443.639 173.22C443.989 173.22 444.374 173.115 444.794 172.905C445.224 172.685 445.639 172.39 446.039 172.02L445.949 172.335V170.325L446.084 170.46H444.299C443.589 170.46 443.094 170.57 442.814 170.79C442.534 171 442.394 171.335 442.394 171.795ZM449.038 174V173.355L450.388 173.055L450.208 173.28V166.83L450.388 167.055L449.038 166.77V166.125L451.138 166.02L451.303 167.49L451.138 167.43C451.638 166.92 452.158 166.545 452.698 166.305C453.248 166.065 453.768 165.945 454.258 165.945C454.918 165.945 455.463 166.15 455.893 166.56C456.333 166.96 456.548 167.585 456.538 168.435V173.28L456.388 173.07L457.708 173.355V174H454.213V173.355L455.518 173.07L455.338 173.295V168.69C455.338 168.07 455.198 167.615 454.918 167.325C454.638 167.035 454.263 166.89 453.793 166.89C453.423 166.89 453.018 166.99 452.578 167.19C452.148 167.39 451.723 167.7 451.303 168.12L451.408 167.88V173.295L451.258 173.085L452.533 173.355V174H449.038ZM461.77 177.585C460.6 177.585 459.725 177.415 459.145 177.075C458.565 176.735 458.275 176.245 458.275 175.605C458.275 175.155 458.425 174.755 458.725 174.405C459.025 174.055 459.465 173.75 460.045 173.49L460.06 173.73C459.74 173.71 459.495 173.645 459.325 173.535C459.155 173.415 459.07 173.25 459.07 173.04C459.07 172.96 459.08 172.88 459.1 172.8C459.12 172.72 459.155 172.61 459.205 172.47C459.265 172.32 459.35 172.125 459.46 171.885C459.58 171.635 459.73 171.31 459.91 170.91L459.94 171.12C459.51 170.89 459.18 170.58 458.95 170.19C458.72 169.79 458.605 169.32 458.605 168.78C458.605 167.91 458.89 167.22 459.46 166.71C460.04 166.2 460.835 165.945 461.845 165.945C462.525 165.945 463.11 166.065 463.6 166.305L463.27 166.23L465.625 166.125L465.64 166.845L464.245 167.115L464.35 166.935C464.56 167.135 464.72 167.38 464.83 167.67C464.94 167.96 464.995 168.29 464.995 168.66C464.995 169.54 464.7 170.235 464.11 170.745C463.52 171.255 462.735 171.51 461.755 171.51C461.195 171.51 460.68 171.415 460.21 171.225L460.48 171.09L460.09 173.055L459.835 172.905H462.775C463.735 172.905 464.465 173.095 464.965 173.475C465.465 173.845 465.715 174.38 465.715 175.08C465.715 175.89 465.38 176.51 464.71 176.94C464.05 177.37 463.07 177.585 461.77 177.585ZM461.875 176.67C462.785 176.67 463.46 176.545 463.9 176.295C464.34 176.045 464.56 175.67 464.56 175.17C464.56 174.73 464.395 174.395 464.065 174.165C463.735 173.945 463.24 173.835 462.58 173.835H460.195L460.54 173.76C459.74 174.26 459.34 174.8 459.34 175.38C459.34 175.81 459.545 176.13 459.955 176.34C460.375 176.56 461.015 176.67 461.875 176.67ZM461.755 170.67C462.395 170.67 462.895 170.5 463.255 170.16C463.615 169.81 463.795 169.32 463.795 168.69C463.795 168.06 463.625 167.585 463.285 167.265C462.945 166.945 462.46 166.785 461.83 166.785C461.19 166.785 460.695 166.955 460.345 167.295C459.995 167.625 459.82 168.11 459.82 168.75C459.82 169.37 459.985 169.845 460.315 170.175C460.655 170.505 461.135 170.67 461.755 170.67ZM469.988 174.135C469.318 174.135 468.723 173.985 468.203 173.685C467.693 173.375 467.293 172.925 467.003 172.335C466.713 171.745 466.568 171.025 466.568 170.175C466.568 169.305 466.718 168.555 467.018 167.925C467.318 167.295 467.743 166.81 468.293 166.47C468.843 166.12 469.488 165.945 470.228 165.945C470.928 165.945 471.503 166.095 471.953 166.395C472.413 166.685 472.753 167.09 472.973 167.61C473.203 168.13 473.318 168.725 473.318 169.395C473.318 169.505 473.313 169.615 473.303 169.725C473.293 169.835 473.278 169.97 473.258 170.13H467.483V169.275H472.208L472.073 169.365C472.083 168.915 472.028 168.5 471.908 168.12C471.788 167.74 471.583 167.435 471.293 167.205C471.003 166.975 470.618 166.86 470.138 166.86C469.628 166.86 469.198 166.995 468.848 167.265C468.498 167.535 468.238 167.905 468.068 168.375C467.898 168.845 467.813 169.39 467.813 170.01C467.813 170.67 467.908 171.24 468.098 171.72C468.288 172.19 468.563 172.555 468.923 172.815C469.293 173.075 469.743 173.205 470.273 173.205C470.643 173.205 471.048 173.135 471.488 172.995C471.928 172.845 472.383 172.62 472.853 172.32L473.288 172.995C472.728 173.375 472.168 173.66 471.608 173.85C471.048 174.04 470.508 174.135 469.988 174.135ZM481.164 165.945C482.264 165.945 483.124 166.29 483.744 166.98C484.374 167.67 484.689 168.645 484.689 169.905C484.689 170.755 484.534 171.5 484.224 172.14C483.924 172.77 483.494 173.26 482.934 173.61C482.374 173.96 481.699 174.135 480.909 174.135C479.829 174.135 478.984 173.8 478.374 173.13C477.764 172.45 477.459 171.475 477.459 170.205C477.459 169.325 477.604 168.57 477.894 167.94C478.194 167.3 478.619 166.81 479.169 166.47C479.729 166.12 480.394 165.945 481.164 165.945ZM481.104 166.83C480.334 166.83 479.744 167.12 479.334 167.7C478.924 168.28 478.719 169.095 478.719 170.145C478.719 171.175 478.914 171.95 479.304 172.47C479.694 172.99 480.254 173.25 480.984 173.25C481.514 173.25 481.959 173.12 482.319 172.86C482.689 172.59 482.964 172.21 483.144 171.72C483.334 171.23 483.429 170.645 483.429 169.965C483.429 168.945 483.224 168.17 482.814 167.64C482.414 167.1 481.844 166.83 481.104 166.83ZM485.817 174V173.355L487.137 173.07L486.987 173.25V166.815L487.137 166.98H485.787V166.32L487.167 166.125L486.987 166.35V165.09C486.987 164.15 487.227 163.46 487.707 163.02C488.197 162.57 488.837 162.345 489.627 162.345C489.887 162.345 490.152 162.37 490.422 162.42C490.692 162.46 490.977 162.53 491.277 162.63L491.082 163.455C490.852 163.385 490.632 163.33 490.422 163.29C490.212 163.25 490.007 163.23 489.807 163.23C489.317 163.23 488.922 163.37 488.622 163.65C488.332 163.93 488.187 164.375 488.187 164.985V166.35L487.992 166.14H490.287L490.257 166.98H488.037L488.187 166.815V173.235L488.037 173.07L489.612 173.355V174H485.817ZM495.235 168C495.235 168.32 495.34 168.57 495.55 168.75C495.76 168.93 496.03 169.08 496.36 169.2C496.69 169.31 497.04 169.42 497.41 169.53C497.78 169.64 498.13 169.775 498.46 169.935C498.79 170.095 499.06 170.315 499.27 170.595C499.48 170.875 499.585 171.245 499.585 171.705C499.585 172.235 499.44 172.68 499.15 173.04C498.86 173.4 498.465 173.675 497.965 173.865C497.475 174.045 496.925 174.135 496.315 174.135C495.945 174.135 495.565 174.105 495.175 174.045C494.785 173.985 494.385 173.9 493.975 173.79L494.08 171.78H494.845L494.995 173.25L494.86 173.085C495.09 173.145 495.34 173.195 495.61 173.235C495.88 173.275 496.13 173.295 496.36 173.295C496.72 173.295 497.05 173.245 497.35 173.145C497.66 173.035 497.91 172.88 498.1 172.68C498.29 172.47 498.385 172.21 498.385 171.9C498.385 171.57 498.28 171.31 498.07 171.12C497.87 170.93 497.605 170.775 497.275 170.655C496.945 170.535 496.595 170.425 496.225 170.325C495.865 170.215 495.52 170.08 495.19 169.92C494.86 169.75 494.59 169.53 494.38 169.26C494.17 168.99 494.065 168.62 494.065 168.15C494.065 167.64 494.195 167.225 494.455 166.905C494.725 166.575 495.075 166.335 495.505 166.185C495.945 166.025 496.415 165.945 496.915 165.945C497.255 165.945 497.63 165.98 498.04 166.05C498.45 166.12 498.87 166.225 499.3 166.365L499.225 168.06H498.46L498.235 166.815L498.415 167.025C497.895 166.875 497.405 166.8 496.945 166.8C496.455 166.8 496.045 166.905 495.715 167.115C495.395 167.315 495.235 167.61 495.235 168ZM504.303 174.135C503.633 174.135 503.038 173.985 502.518 173.685C502.008 173.375 501.608 172.925 501.318 172.335C501.028 171.745 500.883 171.025 500.883 170.175C500.883 169.305 501.033 168.555 501.333 167.925C501.633 167.295 502.058 166.81 502.608 166.47C503.158 166.12 503.803 165.945 504.543 165.945C505.243 165.945 505.818 166.095 506.268 166.395C506.728 166.685 507.068 167.09 507.288 167.61C507.518 168.13 507.633 168.725 507.633 169.395C507.633 169.505 507.628 169.615 507.618 169.725C507.608 169.835 507.593 169.97 507.573 170.13H501.798V169.275H506.523L506.388 169.365C506.398 168.915 506.343 168.5 506.223 168.12C506.103 167.74 505.898 167.435 505.608 167.205C505.318 166.975 504.933 166.86 504.453 166.86C503.943 166.86 503.513 166.995 503.163 167.265C502.813 167.535 502.553 167.905 502.383 168.375C502.213 168.845 502.128 169.39 502.128 170.01C502.128 170.67 502.223 171.24 502.413 171.72C502.603 172.19 502.878 172.555 503.238 172.815C503.608 173.075 504.058 173.205 504.588 173.205C504.958 173.205 505.363 173.135 505.803 172.995C506.243 172.845 506.698 172.62 507.168 172.32L507.603 172.995C507.043 173.375 506.483 173.66 505.923 173.85C505.363 174.04 504.823 174.135 504.303 174.135ZM508.786 174V173.355L510.106 173.07L509.956 173.295V166.83L510.121 167.055L508.786 166.77V166.125L510.886 166.02L511.051 167.49L510.886 167.43C511.336 166.96 511.776 166.595 512.206 166.335C512.636 166.075 513.106 165.945 513.616 165.945C513.936 165.945 514.271 165.995 514.621 166.095L514.531 168.195H513.781L513.601 166.71L513.736 166.98C513.666 166.96 513.591 166.945 513.511 166.935C513.431 166.925 513.351 166.92 513.271 166.92C512.871 166.92 512.481 167.04 512.101 167.28C511.731 167.52 511.376 167.83 511.036 168.21L511.156 167.85V173.295L510.976 173.07L512.611 173.355V174H508.786ZM519.634 166.125L522.769 166.02V166.68L521.749 166.98L521.959 166.755L519.349 174.03H517.939L515.554 166.785L515.764 166.98L514.729 166.77V166.125L518.029 166.02V166.68L516.664 166.935L516.784 166.755L518.794 173.265H518.674L520.849 166.8L520.939 166.935L519.634 166.77V166.125ZM525.402 173.235L525.267 173.07L526.572 173.355V174H523.032V173.355L524.337 173.07L524.202 173.235V166.905L524.322 167.04L523.032 166.77V166.125L525.402 166.035V173.235ZM524.712 164.415C524.482 164.415 524.292 164.34 524.142 164.19C523.992 164.04 523.917 163.835 523.917 163.575C523.917 163.305 523.992 163.1 524.142 162.96C524.302 162.81 524.497 162.735 524.727 162.735C524.967 162.735 525.162 162.805 525.312 162.945C525.462 163.085 525.537 163.295 525.537 163.575C525.537 163.845 525.457 164.055 525.297 164.205C525.137 164.345 524.942 164.415 524.712 164.415ZM530.86 174.135C530.22 174.135 529.64 173.98 529.12 173.67C528.61 173.35 528.205 172.89 527.905 172.29C527.615 171.69 527.47 170.97 527.47 170.13C527.47 169.4 527.57 168.775 527.77 168.255C527.98 167.725 528.26 167.29 528.61 166.95C528.96 166.61 529.36 166.36 529.81 166.2C530.27 166.03 530.745 165.945 531.235 165.945C531.635 165.945 532.06 166 532.51 166.11C532.97 166.22 533.37 166.37 533.71 166.56L533.65 168.435H532.84L532.645 167.025L532.765 167.16C532.515 167.04 532.25 166.955 531.97 166.905C531.69 166.855 531.44 166.83 531.22 166.83C530.7 166.83 530.25 166.965 529.87 167.235C529.5 167.495 529.215 167.865 529.015 168.345C528.815 168.825 528.715 169.395 528.715 170.055C528.715 170.735 528.82 171.31 529.03 171.78C529.24 172.25 529.525 172.605 529.885 172.845C530.255 173.085 530.67 173.205 531.13 173.205C531.49 173.205 531.87 173.13 532.27 172.98C532.67 172.83 533.085 172.605 533.515 172.305L533.935 172.965C533.415 173.365 532.895 173.66 532.375 173.85C531.855 174.04 531.35 174.135 530.86 174.135ZM538.197 174.135C537.527 174.135 536.932 173.985 536.412 173.685C535.902 173.375 535.502 172.925 535.212 172.335C534.922 171.745 534.777 171.025 534.777 170.175C534.777 169.305 534.927 168.555 535.227 167.925C535.527 167.295 535.952 166.81 536.502 166.47C537.052 166.12 537.697 165.945 538.437 165.945C539.137 165.945 539.712 166.095 540.162 166.395C540.622 166.685 540.962 167.09 541.182 167.61C541.412 168.13 541.527 168.725 541.527 169.395C541.527 169.505 541.522 169.615 541.512 169.725C541.502 169.835 541.487 169.97 541.467 170.13H535.692V169.275H540.417L540.282 169.365C540.292 168.915 540.237 168.5 540.117 168.12C539.997 167.74 539.792 167.435 539.502 167.205C539.212 166.975 538.827 166.86 538.347 166.86C537.837 166.86 537.407 166.995 537.057 167.265C536.707 167.535 536.447 167.905 536.277 168.375C536.107 168.845 536.022 169.39 536.022 170.01C536.022 170.67 536.117 171.24 536.307 171.72C536.497 172.19 536.772 172.555 537.132 172.815C537.502 173.075 537.952 173.205 538.482 173.205C538.852 173.205 539.257 173.135 539.697 172.995C540.137 172.845 540.592 172.62 541.062 172.32L541.497 172.995C540.937 173.375 540.377 173.66 539.817 173.85C539.257 174.04 538.717 174.135 538.197 174.135ZM544.195 168C544.195 168.32 544.3 168.57 544.51 168.75C544.72 168.93 544.99 169.08 545.32 169.2C545.65 169.31 546 169.42 546.37 169.53C546.74 169.64 547.09 169.775 547.42 169.935C547.75 170.095 548.02 170.315 548.23 170.595C548.44 170.875 548.545 171.245 548.545 171.705C548.545 172.235 548.4 172.68 548.11 173.04C547.82 173.4 547.425 173.675 546.925 173.865C546.435 174.045 545.885 174.135 545.275 174.135C544.905 174.135 544.525 174.105 544.135 174.045C543.745 173.985 543.345 173.9 542.935 173.79L543.04 171.78H543.805L543.955 173.25L543.82 173.085C544.05 173.145 544.3 173.195 544.57 173.235C544.84 173.275 545.09 173.295 545.32 173.295C545.68 173.295 546.01 173.245 546.31 173.145C546.62 173.035 546.87 172.88 547.06 172.68C547.25 172.47 547.345 172.21 547.345 171.9C547.345 171.57 547.24 171.31 547.03 171.12C546.83 170.93 546.565 170.775 546.235 170.655C545.905 170.535 545.555 170.425 545.185 170.325C544.825 170.215 544.48 170.08 544.15 169.92C543.82 169.75 543.55 169.53 543.34 169.26C543.13 168.99 543.025 168.62 543.025 168.15C543.025 167.64 543.155 167.225 543.415 166.905C543.685 166.575 544.035 166.335 544.465 166.185C544.905 166.025 545.375 165.945 545.875 165.945C546.215 165.945 546.59 165.98 547 166.05C547.41 166.12 547.83 166.225 548.26 166.365L548.185 168.06H547.42L547.195 166.815L547.375 167.025C546.855 166.875 546.365 166.8 545.905 166.8C545.415 166.8 545.005 166.905 544.675 167.115C544.355 167.315 544.195 167.61 544.195 168ZM558.711 173.325L558.516 173.055L559.896 173.325V173.985L557.796 174.075L557.616 172.635L557.721 172.68C557.281 173.16 556.806 173.525 556.296 173.775C555.786 174.015 555.291 174.135 554.811 174.135C554.231 174.135 553.741 173.95 553.341 173.58C552.941 173.21 552.741 172.65 552.741 171.9C552.741 171.31 552.866 170.86 553.116 170.55C553.366 170.23 553.711 170.005 554.151 169.875C554.591 169.745 555.101 169.68 555.681 169.68H557.646L557.511 169.83V168.39C557.511 167.84 557.366 167.45 557.076 167.22C556.786 166.98 556.386 166.86 555.876 166.86C555.606 166.86 555.316 166.89 555.006 166.95C554.706 167 554.386 167.085 554.046 167.205L554.226 167.01L554.076 168.375H553.281L553.161 166.515C553.731 166.325 554.266 166.185 554.766 166.095C555.266 165.995 555.726 165.945 556.146 165.945C556.946 165.945 557.571 166.125 558.021 166.485C558.481 166.835 558.711 167.4 558.711 168.18V173.325ZM553.956 171.795C553.956 172.285 554.071 172.645 554.301 172.875C554.541 173.105 554.841 173.22 555.201 173.22C555.551 173.22 555.936 173.115 556.356 172.905C556.786 172.685 557.201 172.39 557.601 172.02L557.511 172.335V170.325L557.646 170.46H555.861C555.151 170.46 554.656 170.57 554.376 170.79C554.096 171 553.956 171.335 553.956 171.795ZM560.599 174V173.355L561.949 173.055L561.769 173.28V166.83L561.949 167.055L560.599 166.77V166.125L562.699 166.02L562.864 167.49L562.699 167.43C563.199 166.92 563.719 166.545 564.259 166.305C564.809 166.065 565.329 165.945 565.819 165.945C566.479 165.945 567.024 166.15 567.454 166.56C567.894 166.96 568.109 167.585 568.099 168.435V173.28L567.949 173.07L569.269 173.355V174H565.774V173.355L567.079 173.07L566.899 173.295V168.69C566.899 168.07 566.759 167.615 566.479 167.325C566.199 167.035 565.824 166.89 565.354 166.89C564.984 166.89 564.579 166.99 564.139 167.19C563.709 167.39 563.284 167.7 562.864 168.12L562.969 167.88V173.295L562.819 173.085L564.094 173.355V174H560.599ZM573.046 174.135C572.496 174.135 571.996 173.985 571.546 173.685C571.096 173.375 570.741 172.925 570.481 172.335C570.221 171.735 570.091 171.01 570.091 170.16C570.091 168.77 570.446 167.72 571.156 167.01C571.866 166.3 572.841 165.945 574.081 165.945C574.341 165.945 574.611 165.965 574.891 166.005C575.181 166.045 575.476 166.105 575.776 166.185L575.536 166.32V163.305L575.671 163.47L574.291 163.17V162.525L576.736 162.42V173.265L576.556 173.055L577.906 173.325V173.985L575.806 174.075L575.626 172.785L575.776 172.845C575.326 173.275 574.871 173.6 574.411 173.82C573.961 174.03 573.506 174.135 573.046 174.135ZM573.466 173.22C573.816 173.22 574.176 173.13 574.546 172.95C574.926 172.76 575.306 172.48 575.686 172.11L575.536 172.515V166.83L575.701 167.13C575.091 166.93 574.536 166.83 574.036 166.83C573.156 166.83 572.486 167.115 572.026 167.685C571.566 168.255 571.336 169.045 571.336 170.055C571.336 170.715 571.426 171.285 571.606 171.765C571.796 172.235 572.051 172.595 572.371 172.845C572.701 173.095 573.066 173.22 573.466 173.22ZM585.376 165.945C586.476 165.945 587.336 166.29 587.956 166.98C588.586 167.67 588.901 168.645 588.901 169.905C588.901 170.755 588.746 171.5 588.436 172.14C588.136 172.77 587.706 173.26 587.146 173.61C586.586 173.96 585.911 174.135 585.121 174.135C584.041 174.135 583.196 173.8 582.586 173.13C581.976 172.45 581.671 171.475 581.671 170.205C581.671 169.325 581.816 168.57 582.106 167.94C582.406 167.3 582.831 166.81 583.381 166.47C583.941 166.12 584.606 165.945 585.376 165.945ZM585.316 166.83C584.546 166.83 583.956 167.12 583.546 167.7C583.136 168.28 582.931 169.095 582.931 170.145C582.931 171.175 583.126 171.95 583.516 172.47C583.906 172.99 584.466 173.25 585.196 173.25C585.726 173.25 586.171 173.12 586.531 172.86C586.901 172.59 587.176 172.21 587.356 171.72C587.546 171.23 587.641 170.645 587.641 169.965C587.641 168.945 587.436 168.17 587.026 167.64C586.626 167.1 586.056 166.83 585.316 166.83ZM590.029 174V173.355L591.349 173.07L591.199 173.25V166.815L591.349 166.98H589.999V166.32L591.379 166.125L591.199 166.35V165.3C591.199 164.66 591.329 164.145 591.589 163.755C591.859 163.355 592.219 163.06 592.669 162.87C593.119 162.68 593.629 162.585 594.199 162.585C594.719 162.585 595.259 162.66 595.819 162.81C596.389 162.95 596.949 163.16 597.499 163.44L596.884 164.145C596.454 163.925 596.019 163.755 595.579 163.635C595.139 163.515 594.724 163.455 594.334 163.455C593.784 163.455 593.324 163.6 592.954 163.89C592.584 164.17 592.399 164.615 592.399 165.225V166.35L592.204 166.155L596.764 166.14V166.98H592.249L592.399 166.815V173.235L592.249 173.07L593.674 173.355V174H590.029ZM595.009 174V173.355L596.329 173.07L596.179 173.25V165.09C596.179 164.15 596.419 163.46 596.899 163.02C597.389 162.57 598.029 162.345 598.819 162.345C599.079 162.345 599.344 162.37 599.614 162.42C599.884 162.46 600.169 162.53 600.469 162.63L600.274 163.455C600.044 163.385 599.824 163.33 599.614 163.29C599.404 163.25 599.199 163.23 598.999 163.23C598.509 163.23 598.114 163.37 597.814 163.65C597.524 163.93 597.379 164.375 597.379 164.985V166.35L597.184 166.14H599.479L599.449 166.98H597.229L597.379 166.815V173.235L597.229 173.07L598.804 173.355V174H595.009ZM603.482 174.135C602.812 174.135 602.217 173.985 601.697 173.685C601.187 173.375 600.787 172.925 600.497 172.335C600.207 171.745 600.062 171.025 600.062 170.175C600.062 169.305 600.212 168.555 600.512 167.925C600.812 167.295 601.237 166.81 601.787 166.47C602.337 166.12 602.982 165.945 603.722 165.945C604.422 165.945 604.997 166.095 605.447 166.395C605.907 166.685 606.247 167.09 606.467 167.61C606.697 168.13 606.812 168.725 606.812 169.395C606.812 169.505 606.807 169.615 606.797 169.725C606.787 169.835 606.772 169.97 606.752 170.13H600.977V169.275H605.702L605.567 169.365C605.577 168.915 605.522 168.5 605.402 168.12C605.282 167.74 605.077 167.435 604.787 167.205C604.497 166.975 604.112 166.86 603.632 166.86C603.122 166.86 602.692 166.995 602.342 167.265C601.992 167.535 601.732 167.905 601.562 168.375C601.392 168.845 601.307 169.39 601.307 170.01C601.307 170.67 601.402 171.24 601.592 171.72C601.782 172.19 602.057 172.555 602.417 172.815C602.787 173.075 603.237 173.205 603.767 173.205C604.137 173.205 604.542 173.135 604.982 172.995C605.422 172.845 605.877 172.62 606.347 172.32L606.782 172.995C606.222 173.375 605.662 173.66 605.102 173.85C604.542 174.04 604.002 174.135 603.482 174.135ZM607.966 174V173.355L609.286 173.07L609.136 173.295V166.83L609.301 167.055L607.966 166.77V166.125L610.066 166.02L610.231 167.49L610.066 167.43C610.516 166.96 610.956 166.595 611.386 166.335C611.816 166.075 612.286 165.945 612.796 165.945C613.116 165.945 613.451 165.995 613.801 166.095L613.711 168.195H612.961L612.781 166.71L612.916 166.98C612.846 166.96 612.771 166.945 612.691 166.935C612.611 166.925 612.531 166.92 612.451 166.92C612.051 166.92 611.661 167.04 611.281 167.28C610.911 167.52 610.556 167.83 610.216 168.21L610.336 167.85V173.295L610.156 173.07L611.791 173.355V174H607.966ZM616.631 173.235L616.496 173.07L617.801 173.355V174H614.261V173.355L615.566 173.07L615.431 173.235V166.905L615.551 167.04L614.261 166.77V166.125L616.631 166.035V173.235ZM615.941 164.415C615.711 164.415 615.521 164.34 615.371 164.19C615.221 164.04 615.146 163.835 615.146 163.575C615.146 163.305 615.221 163.1 615.371 162.96C615.531 162.81 615.726 162.735 615.956 162.735C616.196 162.735 616.391 162.805 616.541 162.945C616.691 163.085 616.766 163.295 616.766 163.575C616.766 163.845 616.686 164.055 616.526 164.205C616.366 164.345 616.171 164.415 615.941 164.415ZM618.579 174V173.355L619.929 173.055L619.749 173.28V166.83L619.929 167.055L618.579 166.77V166.125L620.679 166.02L620.844 167.49L620.679 167.43C621.179 166.92 621.699 166.545 622.239 166.305C622.789 166.065 623.309 165.945 623.799 165.945C624.459 165.945 625.004 166.15 625.434 166.56C625.874 166.96 626.089 167.585 626.079 168.435V173.28L625.929 173.07L627.249 173.355V174H623.754V173.355L625.059 173.07L624.879 173.295V168.69C624.879 168.07 624.739 167.615 624.459 167.325C624.179 167.035 623.804 166.89 623.334 166.89C622.964 166.89 622.559 166.99 622.119 167.19C621.689 167.39 621.264 167.7 620.844 168.12L620.949 167.88V173.295L620.799 173.085L622.074 173.355V174H618.579ZM631.311 177.585C630.141 177.585 629.266 177.415 628.686 177.075C628.106 176.735 627.816 176.245 627.816 175.605C627.816 175.155 627.966 174.755 628.266 174.405C628.566 174.055 629.006 173.75 629.586 173.49L629.601 173.73C629.281 173.71 629.036 173.645 628.866 173.535C628.696 173.415 628.611 173.25 628.611 173.04C628.611 172.96 628.621 172.88 628.641 172.8C628.661 172.72 628.696 172.61 628.746 172.47C628.806 172.32 628.891 172.125 629.001 171.885C629.121 171.635 629.271 171.31 629.451 170.91L629.481 171.12C629.051 170.89 628.721 170.58 628.491 170.19C628.261 169.79 628.146 169.32 628.146 168.78C628.146 167.91 628.431 167.22 629.001 166.71C629.581 166.2 630.376 165.945 631.386 165.945C632.066 165.945 632.651 166.065 633.141 166.305L632.811 166.23L635.166 166.125L635.181 166.845L633.786 167.115L633.891 166.935C634.101 167.135 634.261 167.38 634.371 167.67C634.481 167.96 634.536 168.29 634.536 168.66C634.536 169.54 634.241 170.235 633.651 170.745C633.061 171.255 632.276 171.51 631.296 171.51C630.736 171.51 630.221 171.415 629.751 171.225L630.021 171.09L629.631 173.055L629.376 172.905H632.316C633.276 172.905 634.006 173.095 634.506 173.475C635.006 173.845 635.256 174.38 635.256 175.08C635.256 175.89 634.921 176.51 634.251 176.94C633.591 177.37 632.611 177.585 631.311 177.585ZM631.416 176.67C632.326 176.67 633.001 176.545 633.441 176.295C633.881 176.045 634.101 175.67 634.101 175.17C634.101 174.73 633.936 174.395 633.606 174.165C633.276 173.945 632.781 173.835 632.121 173.835H629.736L630.081 173.76C629.281 174.26 628.881 174.8 628.881 175.38C628.881 175.81 629.086 176.13 629.496 176.34C629.916 176.56 630.556 176.67 631.416 176.67ZM631.296 170.67C631.936 170.67 632.436 170.5 632.796 170.16C633.156 169.81 633.336 169.32 633.336 168.69C633.336 168.06 633.166 167.585 632.826 167.265C632.486 166.945 632.001 166.785 631.371 166.785C630.731 166.785 630.236 166.955 629.886 167.295C629.536 167.625 629.361 168.11 629.361 168.75C629.361 169.37 629.526 169.845 629.856 170.175C630.196 170.505 630.676 170.67 631.296 170.67ZM637.518 168C637.518 168.32 637.623 168.57 637.833 168.75C638.043 168.93 638.313 169.08 638.643 169.2C638.973 169.31 639.323 169.42 639.693 169.53C640.063 169.64 640.413 169.775 640.743 169.935C641.073 170.095 641.343 170.315 641.553 170.595C641.763 170.875 641.868 171.245 641.868 171.705C641.868 172.235 641.723 172.68 641.433 173.04C641.143 173.4 640.748 173.675 640.248 173.865C639.758 174.045 639.208 174.135 638.598 174.135C638.228 174.135 637.848 174.105 637.458 174.045C637.068 173.985 636.668 173.9 636.258 173.79L636.363 171.78H637.128L637.278 173.25L637.143 173.085C637.373 173.145 637.623 173.195 637.893 173.235C638.163 173.275 638.413 173.295 638.643 173.295C639.003 173.295 639.333 173.245 639.633 173.145C639.943 173.035 640.193 172.88 640.383 172.68C640.573 172.47 640.668 172.21 640.668 171.9C640.668 171.57 640.563 171.31 640.353 171.12C640.153 170.93 639.888 170.775 639.558 170.655C639.228 170.535 638.878 170.425 638.508 170.325C638.148 170.215 637.803 170.08 637.473 169.92C637.143 169.75 636.873 169.53 636.663 169.26C636.453 168.99 636.348 168.62 636.348 168.15C636.348 167.64 636.478 167.225 636.738 166.905C637.008 166.575 637.358 166.335 637.788 166.185C638.228 166.025 638.698 165.945 639.198 165.945C639.538 165.945 639.913 165.98 640.323 166.05C640.733 166.12 641.153 166.225 641.583 166.365L641.508 168.06H640.743L640.518 166.815L640.698 167.025C640.178 166.875 639.688 166.8 639.228 166.8C638.738 166.8 638.328 166.905 637.998 167.115C637.678 167.315 637.518 167.61 637.518 168ZM642.934 173.295C642.934 173.055 643.014 172.865 643.174 172.725C643.334 172.585 643.519 172.515 643.729 172.515C643.969 172.515 644.159 172.585 644.299 172.725C644.439 172.865 644.509 173.055 644.509 173.295C644.509 173.535 644.429 173.725 644.269 173.865C644.119 174.005 643.939 174.075 643.729 174.075C643.489 174.075 643.294 174.005 643.144 173.865C643.004 173.725 642.934 173.535 642.934 173.295Z" fill="#000E38"/>
<path d="M755.233 174V163.818H756.466V172.906H761.199V174H755.233ZM766.151 174.159C765.415 174.159 764.78 173.997 764.246 173.672C763.716 173.344 763.307 172.886 763.018 172.3C762.733 171.71 762.591 171.024 762.591 170.241C762.591 169.459 762.733 168.77 763.018 168.173C763.307 167.573 763.708 167.106 764.222 166.771C764.739 166.433 765.342 166.264 766.031 166.264C766.429 166.264 766.822 166.33 767.21 166.463C767.597 166.596 767.95 166.811 768.268 167.109C768.587 167.404 768.84 167.795 769.029 168.283C769.218 168.77 769.312 169.37 769.312 170.082V170.58H763.426V169.565H768.119C768.119 169.134 768.033 168.75 767.861 168.412C767.692 168.074 767.45 167.807 767.135 167.612C766.823 167.416 766.455 167.318 766.031 167.318C765.564 167.318 765.16 167.434 764.818 167.666C764.48 167.895 764.22 168.193 764.038 168.561C763.855 168.929 763.764 169.323 763.764 169.744V170.42C763.764 170.997 763.864 171.486 764.062 171.887C764.265 172.285 764.545 172.588 764.903 172.797C765.261 173.002 765.677 173.105 766.151 173.105C766.459 173.105 766.737 173.062 766.986 172.976C767.238 172.886 767.455 172.754 767.637 172.578C767.819 172.399 767.96 172.177 768.06 171.912L769.193 172.23C769.074 172.615 768.873 172.953 768.592 173.244C768.31 173.533 767.962 173.758 767.548 173.92C767.133 174.08 766.668 174.159 766.151 174.159ZM773.344 174.179C772.861 174.179 772.421 174.088 772.027 173.906C771.633 173.72 771.319 173.453 771.087 173.105C770.855 172.754 770.739 172.33 770.739 171.832C770.739 171.395 770.826 171.04 770.998 170.768C771.17 170.493 771.401 170.278 771.689 170.122C771.977 169.966 772.295 169.85 772.643 169.774C772.995 169.695 773.348 169.632 773.702 169.585C774.166 169.526 774.543 169.481 774.831 169.451C775.123 169.418 775.335 169.363 775.467 169.287C775.603 169.211 775.671 169.078 775.671 168.889V168.849C775.671 168.359 775.537 167.978 775.268 167.706C775.003 167.434 774.601 167.298 774.06 167.298C773.5 167.298 773.061 167.421 772.743 167.666C772.425 167.911 772.201 168.173 772.072 168.452L770.958 168.054C771.157 167.59 771.422 167.229 771.754 166.97C772.088 166.708 772.453 166.526 772.847 166.423C773.245 166.317 773.636 166.264 774.021 166.264C774.266 166.264 774.548 166.294 774.866 166.354C775.187 166.41 775.497 166.528 775.795 166.707C776.097 166.886 776.347 167.156 776.546 167.517C776.745 167.878 776.844 168.362 776.844 168.969V174H775.671V172.966H775.612C775.532 173.132 775.399 173.309 775.214 173.498C775.028 173.687 774.781 173.848 774.473 173.98C774.165 174.113 773.789 174.179 773.344 174.179ZM773.523 173.125C773.987 173.125 774.379 173.034 774.697 172.852C775.018 172.669 775.26 172.434 775.423 172.146C775.588 171.857 775.671 171.554 775.671 171.236V170.162C775.621 170.222 775.512 170.276 775.343 170.326C775.177 170.372 774.985 170.414 774.766 170.45C774.551 170.483 774.34 170.513 774.135 170.54C773.933 170.563 773.769 170.583 773.643 170.599C773.338 170.639 773.053 170.704 772.788 170.793C772.526 170.879 772.314 171.01 772.151 171.186C771.992 171.358 771.913 171.594 771.913 171.892C771.913 172.3 772.063 172.608 772.365 172.817C772.67 173.022 773.056 173.125 773.523 173.125ZM778.986 174V166.364H780.119V167.517H780.199C780.338 167.139 780.59 166.833 780.955 166.597C781.319 166.362 781.73 166.244 782.188 166.244C782.274 166.244 782.382 166.246 782.511 166.249C782.64 166.253 782.738 166.258 782.804 166.264V167.457C782.764 167.447 782.673 167.433 782.531 167.413C782.392 167.389 782.244 167.378 782.088 167.378C781.717 167.378 781.386 167.456 781.094 167.612C780.806 167.764 780.577 167.976 780.408 168.248C780.242 168.516 780.159 168.823 780.159 169.168V174H778.986ZM785.368 169.406V174H784.195V166.364H785.328V167.557H785.428C785.607 167.169 785.879 166.857 786.243 166.622C786.608 166.384 787.078 166.264 787.655 166.264C788.172 166.264 788.625 166.37 789.012 166.582C789.4 166.791 789.702 167.109 789.917 167.537C790.133 167.961 790.24 168.498 790.24 169.148V174H789.067V169.227C789.067 168.627 788.911 168.16 788.6 167.825C788.288 167.487 787.861 167.318 787.317 167.318C786.943 167.318 786.608 167.399 786.313 167.562C786.021 167.724 785.791 167.961 785.622 168.273C785.453 168.584 785.368 168.962 785.368 169.406ZM796.322 174V166.364H797.455V167.557H797.555C797.714 167.149 797.971 166.833 798.325 166.607C798.68 166.379 799.106 166.264 799.603 166.264C800.107 166.264 800.526 166.379 800.861 166.607C801.199 166.833 801.463 167.149 801.651 167.557H801.731C801.927 167.162 802.22 166.849 802.611 166.617C803.002 166.382 803.471 166.264 804.018 166.264C804.701 166.264 805.259 166.478 805.693 166.906C806.128 167.33 806.345 167.991 806.345 168.889V174H805.171V168.889C805.171 168.326 805.017 167.923 804.709 167.681C804.401 167.439 804.038 167.318 803.62 167.318C803.083 167.318 802.667 167.481 802.372 167.805C802.077 168.127 801.93 168.535 801.93 169.028V174H800.737V168.77C800.737 168.336 800.596 167.986 800.314 167.721C800.032 167.452 799.669 167.318 799.225 167.318C798.92 167.318 798.635 167.399 798.37 167.562C798.108 167.724 797.896 167.95 797.734 168.238C797.575 168.523 797.495 168.853 797.495 169.227V174H796.322ZM811.592 174.159C810.903 174.159 810.298 173.995 809.778 173.667C809.26 173.339 808.856 172.88 808.564 172.29C808.276 171.7 808.132 171.01 808.132 170.222C808.132 169.426 808.276 168.732 808.564 168.138C808.856 167.545 809.26 167.085 809.778 166.756C810.298 166.428 810.903 166.264 811.592 166.264C812.282 166.264 812.885 166.428 813.402 166.756C813.922 167.085 814.327 167.545 814.615 168.138C814.907 168.732 815.052 169.426 815.052 170.222C815.052 171.01 814.907 171.7 814.615 172.29C814.327 172.88 813.922 173.339 813.402 173.667C812.885 173.995 812.282 174.159 811.592 174.159ZM811.592 173.105C812.116 173.105 812.547 172.971 812.885 172.702C813.223 172.434 813.473 172.081 813.635 171.643C813.798 171.206 813.879 170.732 813.879 170.222C813.879 169.711 813.798 169.236 813.635 168.795C813.473 168.354 813.223 167.998 812.885 167.726C812.547 167.454 812.116 167.318 811.592 167.318C811.068 167.318 810.638 167.454 810.3 167.726C809.961 167.998 809.711 168.354 809.549 168.795C809.386 169.236 809.305 169.711 809.305 170.222C809.305 170.732 809.386 171.206 809.549 171.643C809.711 172.081 809.961 172.434 810.3 172.702C810.638 172.971 811.068 173.105 811.592 173.105ZM816.843 174V166.364H817.977V167.517H818.056C818.196 167.139 818.448 166.833 818.812 166.597C819.177 166.362 819.588 166.244 820.045 166.244C820.131 166.244 820.239 166.246 820.368 166.249C820.498 166.253 820.595 166.258 820.662 166.264V167.457C820.622 167.447 820.531 167.433 820.388 167.413C820.249 167.389 820.101 167.378 819.946 167.378C819.574 167.378 819.243 167.456 818.951 167.612C818.663 167.764 818.434 167.976 818.265 168.248C818.1 168.516 818.017 168.823 818.017 169.168V174H816.843ZM825.022 174.159C824.286 174.159 823.651 173.997 823.118 173.672C822.587 173.344 822.178 172.886 821.89 172.3C821.605 171.71 821.462 171.024 821.462 170.241C821.462 169.459 821.605 168.77 821.89 168.173C822.178 167.573 822.579 167.106 823.093 166.771C823.61 166.433 824.213 166.264 824.902 166.264C825.3 166.264 825.693 166.33 826.081 166.463C826.468 166.596 826.821 166.811 827.14 167.109C827.458 167.404 827.711 167.795 827.9 168.283C828.089 168.77 828.184 169.37 828.184 170.082V170.58H822.297V169.565H826.99C826.99 169.134 826.904 168.75 826.732 168.412C826.563 168.074 826.321 167.807 826.006 167.612C825.694 167.416 825.327 167.318 824.902 167.318C824.435 167.318 824.031 167.434 823.689 167.666C823.351 167.895 823.091 168.193 822.909 168.561C822.726 168.929 822.635 169.323 822.635 169.744V170.42C822.635 170.997 822.735 171.486 822.934 171.887C823.136 172.285 823.416 172.588 823.774 172.797C824.132 173.002 824.548 173.105 825.022 173.105C825.33 173.105 825.608 173.062 825.857 172.976C826.109 172.886 826.326 172.754 826.508 172.578C826.69 172.399 826.831 172.177 826.931 171.912L828.064 172.23C827.945 172.615 827.744 172.953 827.463 173.244C827.181 173.533 826.833 173.758 826.419 173.92C826.004 174.08 825.539 174.159 825.022 174.159Z" fill="#000E38"/>
<path d="M843 169H859.8" stroke="#000E38" stroke-width="1.2"/>
<path d="M854.2 174.6L859.8 168.793L854.6 163.4" stroke="#000E38" stroke-width="1.2"/>
<defs>
<clipPath id="clip0_1_1291">
<rect width="143.741" height="25" fill="white" transform="translate(40 40)"/>
</clipPath>
</defs>
</svg>
