<svg width="900" height="210" viewBox="0 0 900 210" fill="none" xmlns="http://www.w3.org/2000/svg">
<rect width="900" height="210" fill="#00E5A4"/>
<g clip-path="url(#clip0_8_22)">
<path fill-rule="evenodd" clip-rule="evenodd" d="M43.266 40H40V61.7977H43.5207V46.3501L54.1376 61.7977H57.4036V40H53.8828V55.4476L43.266 40ZM67.5387 45.668C62.8443 45.668 59.6966 48.934 59.6966 53.8557H59.6875C59.6875 58.7411 62.8352 61.9798 67.848 61.9798C71.8054 61.9798 74.4801 59.5872 75.0441 56.4394H71.678C71.2141 58.2135 69.7221 59.2415 67.666 59.2415C65.0277 59.2415 63.3083 57.4675 63.2173 54.7564V54.5381H75.2352C75.2989 54.1014 75.3261 53.6647 75.3261 53.2644C75.2261 48.5974 72.233 45.668 67.5387 45.668ZM67.5751 48.379C69.9131 48.379 71.5598 49.7164 71.8418 52.0817H63.3447C63.5903 49.8073 65.428 48.379 67.5751 48.379ZM84.5055 45.668C88.7358 45.668 91.1649 47.6876 91.1649 51.4631V57.8496C91.1649 58.6592 91.5106 58.8776 92.1929 58.8776H92.8752V61.807H91.1012C88.9178 61.807 88.1718 60.8426 88.1718 59.2506C87.1165 60.8699 85.4971 61.9889 82.9134 61.9889C79.429 61.9889 77 60.2786 77 57.3219C77 54.0559 79.3654 52.2182 83.8231 52.2182H87.8443V51.2538C87.8443 49.4798 86.5706 48.3881 84.3599 48.3881C82.3675 48.3881 81.0302 49.3252 80.7755 50.7262H77.4731C77.8188 47.6148 80.4935 45.6862 84.5055 45.6862V45.668ZM83.3865 59.3688C86.1885 59.3688 87.8079 57.7222 87.8352 55.2568V54.6927H83.6594C81.5761 54.6927 80.4207 55.4751 80.4207 57.0945C80.4207 58.4318 81.5397 59.3688 83.3774 59.3688H83.3865ZM98.4879 48.2514L98.1149 45.8496H95.1218V61.7976H98.4879V53.7917C98.4879 51.3354 99.4522 48.9974 102.445 48.9974H108.013V61.7886H111.406V48.9974H115.673V48.8064V45.8497V45.8496H111.343V44.5124C111.343 43.4207 111.807 42.9567 112.898 42.9567H115.673V40H112.462C109.387 40 108.013 41.492 108.013 44.3577V45.8496H103.191C100.571 45.8496 99.2976 46.914 98.4879 48.2514ZM132.321 53.8284C132.321 48.9704 129.055 45.668 124.197 45.668C119.339 45.668 116.073 48.934 116.073 53.8284C116.073 58.7229 119.339 61.9889 124.197 61.9889C129.055 61.9889 132.321 58.6865 132.321 53.8284ZM124.197 48.5337C127.036 48.5337 128.901 50.7444 128.901 53.8284C128.901 56.9125 127.027 59.1232 124.197 59.1232C121.368 59.1232 119.53 56.9125 119.53 53.8284C119.53 50.7444 121.359 48.5337 124.197 48.5337ZM137.498 45.8496L137.871 48.2514C138.681 46.914 139.955 45.8496 142.575 45.8496H143.321V48.9974H141.829C138.836 48.9974 137.871 51.3354 137.871 53.7917V61.7976H134.505V45.8496H137.498ZM148.306 45.8493H145.376H145.367V61.7881H148.733V53.2546C148.733 50.4162 150.262 48.5512 152.472 48.5512C154.683 48.5512 155.838 50.0159 155.838 52.818V61.7881H159.232V53.1637C159.232 50.2979 160.697 48.5512 162.998 48.5512C165.173 48.5512 166.328 50.0159 166.328 52.818V61.7881H169.694V52.5996C169.694 47.5596 167.019 45.6582 163.717 45.6582C161.097 45.6582 159.296 46.8045 158.267 48.5512C157.303 46.4952 155.429 45.6582 153.346 45.6582C150.953 45.6946 149.579 46.7499 148.679 47.9326L148.306 45.8493Z" fill="#000E38"/>
<path d="M171.505 61.7977H183.741V65.0092H171.505V61.7977Z" fill="white"/>
</g>
<path d="M329.818 63V39.7273H332.636V60.5H343.455V63H329.818ZM347.135 63V45.5455H349.816V63H347.135ZM348.498 42.6364C347.975 42.6364 347.525 42.4583 347.146 42.1023C346.775 41.7462 346.589 41.3182 346.589 40.8182C346.589 40.3182 346.775 39.8902 347.146 39.5341C347.525 39.178 347.975 39 348.498 39C349.021 39 349.468 39.178 349.839 39.5341C350.218 39.8902 350.407 40.3182 350.407 40.8182C350.407 41.3182 350.218 41.7462 349.839 42.1023C349.468 42.4583 349.021 42.6364 348.498 42.6364ZM356.908 56.6364L356.863 53.3182H357.408L365.045 45.5455H368.363L360.226 53.7727H359.999L356.908 56.6364ZM354.408 63V39.7273H357.09V63H354.408ZM365.499 63L358.681 54.3636L360.59 52.5L368.908 63H365.499ZM378.094 63.3636C376.412 63.3636 374.961 62.9924 373.742 62.25C372.53 61.5 371.594 60.4545 370.935 59.1136C370.283 57.7652 369.958 56.197 369.958 54.4091C369.958 52.6212 370.283 51.0455 370.935 49.6818C371.594 48.3106 372.511 47.2424 373.685 46.4773C374.867 45.7045 376.245 45.3182 377.821 45.3182C378.73 45.3182 379.628 45.4697 380.514 45.7727C381.401 46.0758 382.208 46.5682 382.935 47.25C383.662 47.9242 384.242 48.8182 384.674 49.9318C385.105 51.0455 385.321 52.4167 385.321 54.0455V55.1818H371.867V52.8636H382.594C382.594 51.8788 382.397 51 382.003 50.2273C381.617 49.4545 381.064 48.8447 380.344 48.3977C379.632 47.9508 378.791 47.7273 377.821 47.7273C376.753 47.7273 375.829 47.9924 375.049 48.5227C374.276 49.0455 373.681 49.7273 373.264 50.5682C372.848 51.4091 372.639 52.3106 372.639 53.2727V54.8182C372.639 56.1364 372.867 57.2538 373.321 58.1705C373.783 59.0795 374.424 59.7727 375.242 60.25C376.06 60.7197 377.011 60.9545 378.094 60.9545C378.799 60.9545 379.435 60.8561 380.003 60.6591C380.579 60.4545 381.075 60.1515 381.492 59.75C381.908 59.3409 382.23 58.8333 382.458 58.2273L385.049 58.9545C384.776 59.8333 384.317 60.6061 383.674 61.2727C383.03 61.9318 382.234 62.447 381.287 62.8182C380.34 63.1818 379.276 63.3636 378.094 63.3636ZM405.352 45.5455V47.8182H396.306V45.5455H405.352ZM398.943 41.3636H401.624V58C401.624 58.7576 401.734 59.3258 401.954 59.7045C402.181 60.0758 402.469 60.3258 402.818 60.4545C403.174 60.5758 403.549 60.6364 403.943 60.6364C404.238 60.6364 404.48 60.6212 404.67 60.5909C404.859 60.553 405.011 60.5227 405.124 60.5L405.67 62.9091C405.488 62.9773 405.234 63.0455 404.909 63.1136C404.583 63.1894 404.17 63.2273 403.67 63.2273C402.912 63.2273 402.17 63.0644 401.443 62.7386C400.723 62.4129 400.124 61.9167 399.647 61.25C399.177 60.5833 398.943 59.7424 398.943 58.7273V41.3636ZM412.123 52.5V63H409.441V39.7273H412.123V48.2727H412.35C412.759 47.3712 413.373 46.6553 414.191 46.125C415.017 45.5871 416.115 45.3182 417.486 45.3182C418.676 45.3182 419.717 45.5568 420.611 46.0341C421.505 46.5038 422.198 47.2273 422.691 48.2045C423.191 49.1742 423.441 50.4091 423.441 51.9091V63H420.759V52.0909C420.759 50.7045 420.399 49.6326 419.679 48.875C418.967 48.1098 417.979 47.7273 416.714 47.7273C415.835 47.7273 415.047 47.9129 414.35 48.2841C413.66 48.6553 413.115 49.197 412.714 49.9091C412.32 50.6212 412.123 51.4848 412.123 52.5ZM428.027 63V45.5455H430.709V63H428.027ZM429.391 42.6364C428.868 42.6364 428.417 42.4583 428.038 42.1023C427.667 41.7462 427.482 41.3182 427.482 40.8182C427.482 40.3182 427.667 39.8902 428.038 39.5341C428.417 39.178 428.868 39 429.391 39C429.913 39 430.36 39.178 430.732 39.5341C431.11 39.8902 431.3 40.3182 431.3 40.8182C431.3 41.3182 431.11 41.7462 430.732 42.1023C430.36 42.4583 429.913 42.6364 429.391 42.6364ZM447.664 49.4545L445.255 50.1364C445.104 49.7348 444.88 49.3447 444.585 48.9659C444.297 48.5795 443.903 48.2614 443.403 48.0114C442.903 47.7614 442.263 47.6364 441.483 47.6364C440.414 47.6364 439.524 47.8826 438.812 48.375C438.108 48.8598 437.755 49.4773 437.755 50.2273C437.755 50.8939 437.998 51.4205 438.483 51.8068C438.967 52.1932 439.725 52.5152 440.755 52.7727L443.346 53.4091C444.907 53.7879 446.07 54.3674 446.835 55.1477C447.6 55.9205 447.983 56.9167 447.983 58.1364C447.983 59.1364 447.695 60.0303 447.119 60.8182C446.551 61.6061 445.755 62.2273 444.733 62.6818C443.71 63.1364 442.52 63.3636 441.164 63.3636C439.384 63.3636 437.911 62.9773 436.744 62.2045C435.577 61.4318 434.839 60.303 434.528 58.8182L437.074 58.1818C437.316 59.1212 437.774 59.8258 438.449 60.2955C439.13 60.7652 440.02 61 441.119 61C442.369 61 443.361 60.7348 444.096 60.2045C444.839 59.6667 445.21 59.0227 445.21 58.2727C445.21 57.6667 444.998 57.1591 444.574 56.75C444.149 56.3333 443.498 56.0227 442.619 55.8182L439.71 55.1364C438.111 54.7576 436.937 54.1705 436.187 53.375C435.445 52.572 435.074 51.5682 435.074 50.3636C435.074 49.3788 435.35 48.5076 435.903 47.75C436.464 46.9924 437.225 46.3977 438.187 45.9659C439.157 45.5341 440.255 45.3182 441.483 45.3182C443.21 45.3182 444.566 45.697 445.551 46.4545C446.543 47.2121 447.248 48.2121 447.664 49.4545ZM460.38 69.5455V45.5455H462.97V48.3182H463.289C463.486 48.0152 463.758 47.6288 464.107 47.1591C464.463 46.6818 464.97 46.2576 465.63 45.8864C466.296 45.5076 467.198 45.3182 468.334 45.3182C469.804 45.3182 471.099 45.6856 472.22 46.4205C473.342 47.1553 474.217 48.197 474.845 49.5455C475.474 50.8939 475.789 52.4848 475.789 54.3182C475.789 56.1667 475.474 57.7689 474.845 59.125C474.217 60.4735 473.345 61.5189 472.232 62.2614C471.118 62.9962 469.834 63.3636 468.38 63.3636C467.258 63.3636 466.361 63.178 465.686 62.8068C465.012 62.428 464.493 62 464.13 61.5227C463.766 61.0379 463.486 60.6364 463.289 60.3182H463.061V69.5455H460.38ZM463.016 54.2727C463.016 55.5909 463.209 56.7538 463.595 57.7614C463.982 58.7614 464.546 59.5455 465.289 60.1136C466.031 60.6742 466.94 60.9545 468.016 60.9545C469.137 60.9545 470.073 60.6591 470.823 60.0682C471.58 59.4697 472.148 58.6667 472.527 57.6591C472.914 56.6439 473.107 55.5152 473.107 54.2727C473.107 53.0455 472.917 51.9394 472.539 50.9545C472.167 49.9621 471.603 49.178 470.845 48.6023C470.095 48.0189 469.152 47.7273 468.016 47.7273C466.925 47.7273 466.008 48.0038 465.266 48.5568C464.523 49.1023 463.963 49.8674 463.584 50.8523C463.205 51.8295 463.016 52.9697 463.016 54.2727ZM479.56 63V45.5455H482.15V48.1818H482.332C482.65 47.3182 483.226 46.6174 484.06 46.0795C484.893 45.5417 485.832 45.2727 486.878 45.2727C487.075 45.2727 487.321 45.2765 487.616 45.2841C487.912 45.2917 488.135 45.303 488.287 45.3182V48.0455C488.196 48.0227 487.988 47.9886 487.662 47.9432C487.344 47.8902 487.007 47.8636 486.65 47.8636C485.802 47.8636 485.044 48.0417 484.378 48.3977C483.719 48.7462 483.196 49.2311 482.81 49.8523C482.431 50.4659 482.241 51.1667 482.241 51.9545V63H479.56ZM497.705 63.3636C496.13 63.3636 494.747 62.9886 493.558 62.2386C492.376 61.4886 491.452 60.4394 490.785 59.0909C490.126 57.7424 489.796 56.1667 489.796 54.3636C489.796 52.5455 490.126 50.9583 490.785 49.6023C491.452 48.2462 492.376 47.1932 493.558 46.4432C494.747 45.6932 496.13 45.3182 497.705 45.3182C499.281 45.3182 500.66 45.6932 501.842 46.4432C503.031 47.1932 503.955 48.2462 504.615 49.6023C505.281 50.9583 505.615 52.5455 505.615 54.3636C505.615 56.1667 505.281 57.7424 504.615 59.0909C503.955 60.4394 503.031 61.4886 501.842 62.2386C500.66 62.9886 499.281 63.3636 497.705 63.3636ZM497.705 60.9545C498.902 60.9545 499.887 60.6477 500.66 60.0341C501.433 59.4205 502.005 58.6136 502.376 57.6136C502.747 56.6136 502.933 55.5303 502.933 54.3636C502.933 53.197 502.747 52.1098 502.376 51.1023C502.005 50.0947 501.433 49.2803 500.66 48.6591C499.887 48.0379 498.902 47.7273 497.705 47.7273C496.508 47.7273 495.524 48.0379 494.751 48.6591C493.978 49.2803 493.406 50.0947 493.035 51.1023C492.664 52.1098 492.478 53.197 492.478 54.3636C492.478 55.5303 492.664 56.6136 493.035 57.6136C493.406 58.6136 493.978 59.4205 494.751 60.0341C495.524 60.6477 496.508 60.9545 497.705 60.9545ZM509.388 45.5455H512.07V64.2727C512.07 65.3485 511.885 66.2803 511.513 67.0682C511.15 67.8561 510.597 68.4659 509.854 68.8977C509.119 69.3295 508.191 69.5455 507.07 69.5455C506.979 69.5455 506.888 69.5455 506.797 69.5455C506.706 69.5455 506.616 69.5455 506.525 69.5455V67.0455C506.616 67.0455 506.699 67.0455 506.775 67.0455C506.85 67.0455 506.934 67.0455 507.025 67.0455C507.843 67.0455 508.441 66.803 508.82 66.3182C509.199 65.8409 509.388 65.1591 509.388 64.2727V45.5455ZM510.706 42.6364C510.184 42.6364 509.733 42.4583 509.354 42.1023C508.983 41.7462 508.797 41.3182 508.797 40.8182C508.797 40.3182 508.983 39.8902 509.354 39.5341C509.733 39.178 510.184 39 510.706 39C511.229 39 511.676 39.178 512.047 39.5341C512.426 39.8902 512.616 40.3182 512.616 40.8182C512.616 41.3182 512.426 41.7462 512.047 42.1023C511.676 42.4583 511.229 42.6364 510.706 42.6364ZM523.98 63.3636C522.298 63.3636 520.848 62.9924 519.628 62.25C518.416 61.5 517.48 60.4545 516.821 59.1136C516.17 57.7652 515.844 56.197 515.844 54.4091C515.844 52.6212 516.17 51.0455 516.821 49.6818C517.48 48.3106 518.397 47.2424 519.571 46.4773C520.753 45.7045 522.132 45.3182 523.708 45.3182C524.617 45.3182 525.514 45.4697 526.401 45.7727C527.287 46.0758 528.094 46.5682 528.821 47.25C529.548 47.9242 530.128 48.8182 530.56 49.9318C530.992 51.0455 531.208 52.4167 531.208 54.0455V55.1818H517.753V52.8636H528.48C528.48 51.8788 528.283 51 527.889 50.2273C527.503 49.4545 526.95 48.8447 526.23 48.3977C525.518 47.9508 524.677 47.7273 523.708 47.7273C522.639 47.7273 521.715 47.9924 520.935 48.5227C520.162 49.0455 519.567 49.7273 519.151 50.5682C518.734 51.4091 518.526 52.3106 518.526 53.2727V54.8182C518.526 56.1364 518.753 57.2538 519.208 58.1705C519.67 59.0795 520.31 59.7727 521.128 60.25C521.946 60.7197 522.897 60.9545 523.98 60.9545C524.685 60.9545 525.321 60.8561 525.889 60.6591C526.465 60.4545 526.961 60.1515 527.378 59.75C527.795 59.3409 528.117 58.8333 528.344 58.2273L530.935 58.9545C530.662 59.8333 530.204 60.6061 529.56 61.2727C528.916 61.9318 528.12 62.447 527.173 62.8182C526.226 63.1818 525.162 63.3636 523.98 63.3636ZM542.058 63.3636C540.422 63.3636 539.012 62.9773 537.831 62.2045C536.649 61.4318 535.74 60.3674 535.103 59.0114C534.467 57.6553 534.149 56.1061 534.149 54.3636C534.149 52.5909 534.475 51.0265 535.126 49.6705C535.785 48.3068 536.702 47.2424 537.876 46.4773C539.058 45.7045 540.437 45.3182 542.012 45.3182C543.24 45.3182 544.346 45.5455 545.331 46C546.316 46.4545 547.122 47.0909 547.751 47.9091C548.38 48.7273 548.77 49.6818 548.922 50.7727H546.24C546.035 49.9773 545.581 49.2727 544.876 48.6591C544.179 48.0379 543.24 47.7273 542.058 47.7273C541.012 47.7273 540.096 48 539.308 48.5455C538.528 49.0833 537.918 49.8447 537.478 50.8295C537.047 51.8068 536.831 52.9545 536.831 54.2727C536.831 55.6212 537.043 56.7955 537.467 57.7955C537.899 58.7955 538.505 59.572 539.285 60.125C540.073 60.678 540.997 60.9545 542.058 60.9545C542.755 60.9545 543.387 60.8333 543.956 60.5909C544.524 60.3485 545.005 60 545.399 59.5455C545.793 59.0909 546.073 58.5455 546.24 57.9091H548.922C548.77 58.9394 548.395 59.8674 547.797 60.6932C547.206 61.5114 546.422 62.1629 545.444 62.6477C544.475 63.125 543.346 63.3636 542.058 63.3636ZM560.113 45.5455V47.8182H551.068V45.5455H560.113ZM553.704 41.3636H556.386V58C556.386 58.7576 556.496 59.3258 556.715 59.7045C556.943 60.0758 557.23 60.3258 557.579 60.4545C557.935 60.5758 558.31 60.6364 558.704 60.6364C558.999 60.6364 559.242 60.6212 559.431 60.5909C559.621 60.553 559.772 60.5227 559.886 60.5L560.431 62.9091C560.249 62.9773 559.996 63.0455 559.67 63.1136C559.344 63.1894 558.931 63.2273 558.431 63.2273C557.674 63.2273 556.931 63.0644 556.204 62.7386C555.484 62.4129 554.886 61.9167 554.408 61.25C553.939 60.5833 553.704 59.7424 553.704 58.7273V41.3636ZM567.327 56.4545V56.3182C567.342 54.8712 567.494 53.7197 567.782 52.8636C568.069 52.0076 568.479 51.3144 569.009 50.7841C569.539 50.2538 570.176 49.7652 570.918 49.3182C571.365 49.0455 571.766 48.7235 572.122 48.3523C572.479 47.9735 572.759 47.5379 572.963 47.0455C573.176 46.553 573.282 46.0076 573.282 45.4091C573.282 44.6667 573.107 44.0227 572.759 43.4773C572.41 42.9318 571.944 42.5114 571.361 42.2159C570.778 41.9205 570.13 41.7727 569.418 41.7727C568.797 41.7727 568.198 41.9015 567.622 42.1591C567.047 42.4167 566.566 42.822 566.179 43.375C565.793 43.928 565.569 44.6515 565.509 45.5455H562.645C562.706 44.2576 563.039 43.1553 563.645 42.2386C564.259 41.322 565.066 40.6212 566.066 40.1364C567.073 39.6515 568.191 39.4091 569.418 39.4091C570.751 39.4091 571.91 39.6742 572.895 40.2045C573.888 40.7348 574.653 41.4621 575.191 42.3864C575.736 43.3106 576.009 44.3636 576.009 45.5455C576.009 46.3788 575.88 47.1326 575.622 47.8068C575.372 48.4811 575.009 49.0833 574.532 49.6136C574.062 50.1439 573.494 50.6136 572.827 51.0227C572.16 51.4394 571.626 51.8788 571.225 52.3409C570.823 52.7955 570.532 53.3371 570.35 53.9659C570.168 54.5947 570.069 55.3788 570.054 56.3182V56.4545H567.327ZM568.782 63.1818C568.221 63.1818 567.74 62.9811 567.338 62.5795C566.937 62.178 566.736 61.697 566.736 61.1364C566.736 60.5758 566.937 60.0947 567.338 59.6932C567.74 59.2917 568.221 59.0909 568.782 59.0909C569.342 59.0909 569.823 59.2917 570.225 59.6932C570.626 60.0947 570.827 60.5758 570.827 61.1364C570.827 61.5076 570.732 61.8485 570.543 62.1591C570.361 62.4697 570.115 62.7197 569.804 62.9091C569.501 63.0909 569.16 63.1818 568.782 63.1818ZM327.818 81.7273H331.045L337.5 92.5909H337.773L344.227 81.7273H347.455L339.045 95.4091V105H336.227V95.4091L327.818 81.7273ZM355.038 105.364C353.462 105.364 352.08 104.989 350.89 104.239C349.708 103.489 348.784 102.439 348.118 101.091C347.458 99.7424 347.129 98.1667 347.129 96.3636C347.129 94.5455 347.458 92.9583 348.118 91.6023C348.784 90.2462 349.708 89.1932 350.89 88.4432C352.08 87.6932 353.462 87.3182 355.038 87.3182C356.614 87.3182 357.993 87.6932 359.174 88.4432C360.364 89.1932 361.288 90.2462 361.947 91.6023C362.614 92.9583 362.947 94.5455 362.947 96.3636C362.947 98.1667 362.614 99.7424 361.947 101.091C361.288 102.439 360.364 103.489 359.174 104.239C357.993 104.989 356.614 105.364 355.038 105.364ZM355.038 102.955C356.235 102.955 357.22 102.648 357.993 102.034C358.765 101.42 359.337 100.614 359.708 99.6136C360.08 98.6136 360.265 97.5303 360.265 96.3636C360.265 95.197 360.08 94.1098 359.708 93.1023C359.337 92.0947 358.765 91.2803 357.993 90.6591C357.22 90.0379 356.235 89.7273 355.038 89.7273C353.841 89.7273 352.856 90.0379 352.083 90.6591C351.311 91.2803 350.739 92.0947 350.368 93.1023C349.996 94.1098 349.811 95.197 349.811 96.3636C349.811 97.5303 349.996 98.6136 350.368 99.6136C350.739 100.614 351.311 101.42 352.083 102.034C352.856 102.648 353.841 102.955 355.038 102.955ZM377.721 97.8636V87.5455H380.403V105H377.721V102.045H377.539C377.13 102.932 376.494 103.686 375.63 104.307C374.766 104.92 373.675 105.227 372.357 105.227C371.266 105.227 370.297 104.989 369.448 104.511C368.6 104.027 367.933 103.299 367.448 102.33C366.963 101.352 366.721 100.121 366.721 98.6364V87.5455H369.403V98.4545C369.403 99.7273 369.759 100.742 370.471 101.5C371.19 102.258 372.107 102.636 373.221 102.636C373.887 102.636 374.565 102.466 375.255 102.125C375.952 101.784 376.535 101.261 377.005 100.557C377.482 99.8523 377.721 98.9545 377.721 97.8636ZM387.827 81.7273V83.7727C387.827 84.3939 387.713 85.0568 387.486 85.7614C387.266 86.4583 386.941 87.1364 386.509 87.7955C386.085 88.447 385.569 89.0152 384.963 89.5L383.509 88.3182C383.986 87.6364 384.399 86.928 384.747 86.1932C385.103 85.4508 385.281 84.6591 385.281 83.8182V81.7273H387.827ZM393.731 81.7273V105H391.05V81.7273H393.731ZM401.005 81.7273V105H398.323V81.7273H401.005ZM416.959 81.7273V105H414.277V81.7273H416.959ZM428.642 105.364C427.066 105.364 425.683 104.989 424.494 104.239C423.312 103.489 422.388 102.439 421.721 101.091C421.062 99.7424 420.733 98.1667 420.733 96.3636C420.733 94.5455 421.062 92.9583 421.721 91.6023C422.388 90.2462 423.312 89.1932 424.494 88.4432C425.683 87.6932 427.066 87.3182 428.642 87.3182C430.217 87.3182 431.596 87.6932 432.778 88.4432C433.967 89.1932 434.892 90.2462 435.551 91.6023C436.217 92.9583 436.551 94.5455 436.551 96.3636C436.551 98.1667 436.217 99.7424 435.551 101.091C434.892 102.439 433.967 103.489 432.778 104.239C431.596 104.989 430.217 105.364 428.642 105.364ZM428.642 102.955C429.839 102.955 430.824 102.648 431.596 102.034C432.369 101.42 432.941 100.614 433.312 99.6136C433.683 98.6136 433.869 97.5303 433.869 96.3636C433.869 95.197 433.683 94.1098 433.312 93.1023C432.941 92.0947 432.369 91.2803 431.596 90.6591C430.824 90.0379 429.839 89.7273 428.642 89.7273C427.445 89.7273 426.46 90.0379 425.687 90.6591C424.914 91.2803 424.342 92.0947 423.971 93.1023C423.6 94.1098 423.414 95.197 423.414 96.3636C423.414 97.5303 423.6 98.6136 423.971 99.6136C424.342 100.614 424.914 101.42 425.687 102.034C426.46 102.648 427.445 102.955 428.642 102.955ZM453.972 87.5455L447.518 105H444.79L438.336 87.5455H441.245L446.063 101.455H446.245L451.063 87.5455H453.972ZM463.885 105.364C462.203 105.364 460.753 104.992 459.533 104.25C458.321 103.5 457.385 102.455 456.726 101.114C456.075 99.7652 455.749 98.197 455.749 96.4091C455.749 94.6212 456.075 93.0455 456.726 91.6818C457.385 90.3106 458.302 89.2424 459.476 88.4773C460.658 87.7045 462.037 87.3182 463.613 87.3182C464.522 87.3182 465.419 87.4697 466.306 87.7727C467.192 88.0758 467.999 88.5682 468.726 89.25C469.453 89.9242 470.033 90.8182 470.465 91.9318C470.897 93.0455 471.113 94.4167 471.113 96.0455V97.1818H457.658V94.8636H468.385C468.385 93.8788 468.188 93 467.794 92.2273C467.408 91.4545 466.855 90.8447 466.135 90.3977C465.423 89.9508 464.582 89.7273 463.613 89.7273C462.544 89.7273 461.62 89.9924 460.84 90.5227C460.067 91.0455 459.472 91.7273 459.056 92.5682C458.639 93.4091 458.431 94.3106 458.431 95.2727V96.8182C458.431 98.1364 458.658 99.2538 459.113 100.17C459.575 101.08 460.215 101.773 461.033 102.25C461.851 102.72 462.802 102.955 463.885 102.955C464.59 102.955 465.226 102.856 465.794 102.659C466.37 102.455 466.866 102.152 467.283 101.75C467.7 101.341 468.022 100.833 468.249 100.227L470.84 100.955C470.567 101.833 470.109 102.606 469.465 103.273C468.821 103.932 468.025 104.447 467.078 104.818C466.131 105.182 465.067 105.364 463.885 105.364ZM487.507 105L482.188 87.5455H485.007L488.779 100.909H488.961L492.688 87.5455H495.552L499.234 100.864H499.416L503.188 87.5455H506.007L500.688 105H498.052L494.234 91.5909H493.961L490.143 105H487.507ZM515.729 105.364C514.153 105.364 512.771 104.989 511.581 104.239C510.4 103.489 509.475 102.439 508.809 101.091C508.15 99.7424 507.82 98.1667 507.82 96.3636C507.82 94.5455 508.15 92.9583 508.809 91.6023C509.475 90.2462 510.4 89.1932 511.581 88.4432C512.771 87.6932 514.153 87.3182 515.729 87.3182C517.305 87.3182 518.684 87.6932 519.866 88.4432C521.055 89.1932 521.979 90.2462 522.638 91.6023C523.305 92.9583 523.638 94.5455 523.638 96.3636C523.638 98.1667 523.305 99.7424 522.638 101.091C521.979 102.439 521.055 103.489 519.866 104.239C518.684 104.989 517.305 105.364 515.729 105.364ZM515.729 102.955C516.926 102.955 517.911 102.648 518.684 102.034C519.456 101.42 520.028 100.614 520.4 99.6136C520.771 98.6136 520.956 97.5303 520.956 96.3636C520.956 95.197 520.771 94.1098 520.4 93.1023C520.028 92.0947 519.456 91.2803 518.684 90.6591C517.911 90.0379 516.926 89.7273 515.729 89.7273C514.532 89.7273 513.547 90.0379 512.775 90.6591C512.002 91.2803 511.43 92.0947 511.059 93.1023C510.688 94.1098 510.502 95.197 510.502 96.3636C510.502 97.5303 510.688 98.6136 511.059 99.6136C511.43 100.614 512.002 101.42 512.775 102.034C513.547 102.648 514.532 102.955 515.729 102.955ZM527.412 105V87.5455H530.003V90.1818H530.185C530.503 89.3182 531.079 88.6174 531.912 88.0795C532.745 87.5417 533.685 87.2727 534.73 87.2727C534.927 87.2727 535.173 87.2765 535.469 87.2841C535.764 87.2917 535.988 87.303 536.139 87.3182V90.0455C536.048 90.0227 535.84 89.9886 535.514 89.9432C535.196 89.8902 534.859 89.8636 534.503 89.8636C533.654 89.8636 532.897 90.0417 532.23 90.3977C531.571 90.7462 531.048 91.2311 530.662 91.8523C530.283 92.4659 530.094 93.1667 530.094 93.9545V105H527.412ZM541.498 98.6364L541.453 95.3182H541.998L549.635 87.5455H552.953L544.816 95.7727H544.589L541.498 98.6364ZM538.998 105V81.7273H541.68V105H538.998ZM550.089 105L543.271 96.3636L545.18 94.5L553.498 105H550.089ZM556.085 105V87.5455H558.766V105H556.085ZM557.448 84.6364C556.925 84.6364 556.475 84.4583 556.096 84.1023C555.725 83.7462 555.539 83.3182 555.539 82.8182C555.539 82.3182 555.725 81.8902 556.096 81.5341C556.475 81.178 556.925 81 557.448 81C557.971 81 558.418 81.178 558.789 81.5341C559.168 81.8902 559.357 82.3182 559.357 82.8182C559.357 83.3182 559.168 83.7462 558.789 84.1023C558.418 84.4583 557.971 84.6364 557.448 84.6364ZM566.04 94.5V105H563.358V87.5455H565.949V90.2727H566.176C566.586 89.3864 567.207 88.6742 568.04 88.1364C568.873 87.5909 569.949 87.3182 571.267 87.3182C572.449 87.3182 573.483 87.5606 574.37 88.0455C575.256 88.5227 575.945 89.25 576.438 90.2273C576.93 91.197 577.176 92.4242 577.176 93.9091V105H574.495V94.0909C574.495 92.7197 574.139 91.6515 573.426 90.8864C572.714 90.1136 571.737 89.7273 570.495 89.7273C569.639 89.7273 568.873 89.9129 568.199 90.2841C567.533 90.6553 567.006 91.197 566.62 91.9091C566.233 92.6212 566.04 93.4848 566.04 94.5ZM588.803 111.909C587.507 111.909 586.393 111.742 585.462 111.409C584.53 111.083 583.753 110.652 583.132 110.114C582.518 109.583 582.03 109.015 581.666 108.409L583.803 106.909C584.045 107.227 584.352 107.591 584.723 108C585.094 108.417 585.602 108.777 586.246 109.08C586.897 109.39 587.749 109.545 588.803 109.545C590.212 109.545 591.374 109.205 592.291 108.523C593.208 107.841 593.666 106.773 593.666 105.318V101.773H593.439C593.242 102.091 592.962 102.485 592.598 102.955C592.242 103.417 591.727 103.83 591.053 104.193C590.386 104.549 589.484 104.727 588.348 104.727C586.939 104.727 585.674 104.394 584.553 103.727C583.439 103.061 582.556 102.091 581.905 100.818C581.261 99.5455 580.939 98 580.939 96.1818C580.939 94.3939 581.253 92.8371 581.882 91.5114C582.511 90.178 583.386 89.1477 584.507 88.4205C585.628 87.6856 586.924 87.3182 588.393 87.3182C589.53 87.3182 590.431 87.5076 591.098 87.8864C591.772 88.2576 592.287 88.6818 592.643 89.1591C593.007 89.6288 593.287 90.0152 593.484 90.3182H593.757V87.5455H596.348V105.5C596.348 107 596.007 108.22 595.325 109.159C594.651 110.106 593.742 110.799 592.598 111.239C591.462 111.686 590.196 111.909 588.803 111.909ZM588.712 102.318C589.787 102.318 590.696 102.072 591.439 101.58C592.181 101.087 592.746 100.379 593.132 99.4545C593.518 98.5303 593.712 97.4242 593.712 96.1364C593.712 94.8788 593.522 93.7689 593.143 92.8068C592.765 91.8447 592.204 91.0909 591.462 90.5455C590.719 90 589.803 89.7273 588.712 89.7273C587.575 89.7273 586.628 90.0152 585.871 90.5909C585.121 91.1667 584.556 91.9394 584.178 92.9091C583.806 93.8788 583.621 94.9545 583.621 96.1364C583.621 97.3485 583.81 98.4205 584.189 99.3523C584.575 100.277 585.143 101.004 585.893 101.534C586.651 102.057 587.59 102.318 588.712 102.318ZM613.572 105L608.253 87.5455H611.072L614.844 100.909H615.026L618.753 87.5455H621.617L625.299 100.864H625.481L629.253 87.5455H632.072L626.753 105H624.117L620.299 91.5909H620.026L616.208 105H613.572ZM635.297 105V87.5455H637.979V105H635.297ZM636.661 84.6364C636.138 84.6364 635.687 84.4583 635.308 84.1023C634.937 83.7462 634.752 83.3182 634.752 82.8182C634.752 82.3182 634.937 81.8902 635.308 81.5341C635.687 81.178 636.138 81 636.661 81C637.183 81 637.63 81.178 638.002 81.5341C638.38 81.8902 638.57 82.3182 638.57 82.8182C638.57 83.3182 638.38 83.7462 638.002 84.1023C637.63 84.4583 637.183 84.6364 636.661 84.6364ZM650.162 87.5455V89.8182H641.116V87.5455H650.162ZM643.753 83.3636H646.434V100C646.434 100.758 646.544 101.326 646.764 101.705C646.991 102.076 647.279 102.326 647.628 102.455C647.984 102.576 648.359 102.636 648.753 102.636C649.048 102.636 649.29 102.621 649.48 102.591C649.669 102.553 649.821 102.523 649.934 102.5L650.48 104.909C650.298 104.977 650.044 105.045 649.719 105.114C649.393 105.189 648.98 105.227 648.48 105.227C647.722 105.227 646.98 105.064 646.253 104.739C645.533 104.413 644.934 103.917 644.457 103.25C643.987 102.583 643.753 101.742 643.753 100.727V83.3636ZM656.933 94.5V105H654.251V81.7273H656.933V90.2727H657.16C657.569 89.3712 658.183 88.6553 659.001 88.125C659.827 87.5871 660.925 87.3182 662.296 87.3182C663.486 87.3182 664.527 87.5568 665.421 88.0341C666.315 88.5038 667.008 89.2273 667.501 90.2045C668.001 91.1742 668.251 92.4091 668.251 93.9091V105H665.569V94.0909C665.569 92.7045 665.209 91.6326 664.489 90.875C663.777 90.1098 662.789 89.7273 661.524 89.7273C660.645 89.7273 659.857 89.9129 659.16 90.2841C658.471 90.6553 657.925 91.197 657.524 91.9091C657.13 92.6212 656.933 93.4848 656.933 94.5ZM692.517 97.8636V87.5455H695.199V105H692.517V102.045H692.335C691.926 102.932 691.29 103.686 690.426 104.307C689.563 104.92 688.472 105.227 687.153 105.227C686.062 105.227 685.093 104.989 684.244 104.511C683.396 104.027 682.729 103.299 682.244 102.33C681.759 101.352 681.517 100.121 681.517 98.6364V87.5455H684.199V98.4545C684.199 99.7273 684.555 100.742 685.267 101.5C685.987 102.258 686.903 102.636 688.017 102.636C688.684 102.636 689.362 102.466 690.051 102.125C690.748 101.784 691.331 101.261 691.801 100.557C692.278 99.8523 692.517 98.9545 692.517 97.8636ZM712.154 91.4545L709.745 92.1364C709.594 91.7348 709.37 91.3447 709.075 90.9659C708.787 90.5795 708.393 90.2614 707.893 90.0114C707.393 89.7614 706.753 89.6364 705.973 89.6364C704.904 89.6364 704.014 89.8826 703.302 90.375C702.598 90.8598 702.245 91.4773 702.245 92.2273C702.245 92.8939 702.488 93.4205 702.973 93.8068C703.457 94.1932 704.215 94.5152 705.245 94.7727L707.836 95.4091C709.397 95.7879 710.56 96.3674 711.325 97.1477C712.09 97.9205 712.473 98.9167 712.473 100.136C712.473 101.136 712.185 102.03 711.609 102.818C711.041 103.606 710.245 104.227 709.223 104.682C708.2 105.136 707.01 105.364 705.654 105.364C703.874 105.364 702.401 104.977 701.234 104.205C700.067 103.432 699.329 102.303 699.018 100.818L701.564 100.182C701.806 101.121 702.264 101.826 702.939 102.295C703.62 102.765 704.51 103 705.609 103C706.859 103 707.851 102.735 708.586 102.205C709.329 101.667 709.7 101.023 709.7 100.273C709.7 99.6667 709.488 99.1591 709.064 98.75C708.639 98.3333 707.988 98.0227 707.109 97.8182L704.2 97.1364C702.601 96.7576 701.427 96.1705 700.677 95.375C699.935 94.572 699.564 93.5682 699.564 92.3636C699.564 91.3788 699.84 90.5076 700.393 89.75C700.954 88.9924 701.715 88.3977 702.677 87.9659C703.647 87.5341 704.745 87.3182 705.973 87.3182C707.7 87.3182 709.056 87.697 710.041 88.4545C711.033 89.2121 711.738 90.2121 712.154 91.4545ZM718.144 105.182C717.583 105.182 717.102 104.981 716.701 104.58C716.299 104.178 716.099 103.697 716.099 103.136C716.099 102.576 716.299 102.095 716.701 101.693C717.102 101.292 717.583 101.091 718.144 101.091C718.705 101.091 719.186 101.292 719.587 101.693C719.989 102.095 720.19 102.576 720.19 103.136C720.19 103.508 720.095 103.848 719.905 104.159C719.724 104.47 719.477 104.72 719.167 104.909C718.864 105.091 718.523 105.182 718.144 105.182Z" fill="#000E38"/>
<path d="M334.25 151.135C333.45 151.135 332.72 150.93 332.06 150.52C331.4 150.11 330.875 149.51 330.485 148.72C330.105 147.93 329.915 146.96 329.915 145.81C329.915 144.68 330.11 143.71 330.5 142.9C330.89 142.09 331.435 141.47 332.135 141.04C332.835 140.61 333.65 140.395 334.58 140.395C335.08 140.395 335.6 140.455 336.14 140.575C336.68 140.695 337.24 140.885 337.82 141.145L337.715 143.5H336.98L336.71 141.64L336.935 141.88C336.535 141.71 336.13 141.585 335.72 141.505C335.32 141.415 334.945 141.37 334.595 141.37C333.905 141.37 333.31 141.545 332.81 141.895C332.31 142.235 331.92 142.725 331.64 143.365C331.37 144.005 331.235 144.77 331.235 145.66C331.235 146.62 331.38 147.43 331.67 148.09C331.96 148.75 332.355 149.255 332.855 149.605C333.365 149.945 333.935 150.115 334.565 150.115C335.025 150.115 335.505 150.015 336.005 149.815C336.515 149.615 337.005 149.31 337.475 148.9L337.97 149.635C337.38 150.145 336.765 150.525 336.125 150.775C335.485 151.015 334.86 151.135 334.25 151.135ZM342.532 142.945C343.632 142.945 344.492 143.29 345.112 143.98C345.742 144.67 346.057 145.645 346.057 146.905C346.057 147.755 345.902 148.5 345.592 149.14C345.292 149.77 344.862 150.26 344.302 150.61C343.742 150.96 343.067 151.135 342.277 151.135C341.197 151.135 340.352 150.8 339.742 150.13C339.132 149.45 338.827 148.475 338.827 147.205C338.827 146.325 338.972 145.57 339.262 144.94C339.562 144.3 339.987 143.81 340.537 143.47C341.097 143.12 341.762 142.945 342.532 142.945ZM342.472 143.83C341.702 143.83 341.112 144.12 340.702 144.7C340.292 145.28 340.087 146.095 340.087 147.145C340.087 148.175 340.282 148.95 340.672 149.47C341.062 149.99 341.622 150.25 342.352 150.25C342.882 150.25 343.327 150.12 343.687 149.86C344.057 149.59 344.332 149.21 344.512 148.72C344.702 148.23 344.797 147.645 344.797 146.965C344.797 145.945 344.592 145.17 344.182 144.64C343.782 144.1 343.212 143.83 342.472 143.83ZM347.17 151V150.355L348.52 150.055L348.34 150.28V143.83L348.52 144.055L347.17 143.77V143.125L349.27 143.02L349.435 144.49L349.27 144.43C349.77 143.92 350.29 143.545 350.83 143.305C351.38 143.065 351.9 142.945 352.39 142.945C353.05 142.945 353.595 143.15 354.025 143.56C354.465 143.96 354.68 144.585 354.67 145.435V150.28L354.52 150.07L355.84 150.355V151H352.345V150.355L353.65 150.07L353.47 150.295V145.69C353.47 145.07 353.33 144.615 353.05 144.325C352.77 144.035 352.395 143.89 351.925 143.89C351.555 143.89 351.15 143.99 350.71 144.19C350.28 144.39 349.855 144.7 349.435 145.12L349.54 144.88V150.295L349.39 150.085L350.665 150.355V151H347.17ZM359.168 151.135C358.648 151.135 358.238 150.975 357.938 150.655C357.638 150.325 357.488 149.83 357.488 149.17V143.725L357.683 143.92H356.138V143.26L357.698 143.035L357.488 143.275V141.295L358.688 141.1V143.275L358.523 143.08H360.878L360.833 143.92H358.523L358.688 143.725V149.005C358.688 149.425 358.768 149.73 358.928 149.92C359.098 150.11 359.333 150.205 359.633 150.205C359.813 150.205 360.008 150.175 360.218 150.115C360.428 150.055 360.653 149.97 360.893 149.86L361.148 150.55C360.438 150.94 359.778 151.135 359.168 151.135ZM367.816 150.325L367.621 150.055L369.001 150.325V150.985L366.901 151.075L366.721 149.635L366.826 149.68C366.386 150.16 365.911 150.525 365.401 150.775C364.891 151.015 364.396 151.135 363.916 151.135C363.336 151.135 362.846 150.95 362.446 150.58C362.046 150.21 361.846 149.65 361.846 148.9C361.846 148.31 361.971 147.86 362.221 147.55C362.471 147.23 362.816 147.005 363.256 146.875C363.696 146.745 364.206 146.68 364.786 146.68H366.751L366.616 146.83V145.39C366.616 144.84 366.471 144.45 366.181 144.22C365.891 143.98 365.491 143.86 364.981 143.86C364.711 143.86 364.421 143.89 364.111 143.95C363.811 144 363.491 144.085 363.151 144.205L363.331 144.01L363.181 145.375H362.386L362.266 143.515C362.836 143.325 363.371 143.185 363.871 143.095C364.371 142.995 364.831 142.945 365.251 142.945C366.051 142.945 366.676 143.125 367.126 143.485C367.586 143.835 367.816 144.4 367.816 145.18V150.325ZM363.061 148.795C363.061 149.285 363.176 149.645 363.406 149.875C363.646 150.105 363.946 150.22 364.306 150.22C364.656 150.22 365.041 150.115 365.461 149.905C365.891 149.685 366.306 149.39 366.706 149.02L366.616 149.335V147.325L366.751 147.46H364.966C364.256 147.46 363.761 147.57 363.481 147.79C363.201 148 363.061 148.335 363.061 148.795ZM373.214 151.135C372.574 151.135 371.994 150.98 371.474 150.67C370.964 150.35 370.559 149.89 370.259 149.29C369.969 148.69 369.824 147.97 369.824 147.13C369.824 146.4 369.924 145.775 370.124 145.255C370.334 144.725 370.614 144.29 370.964 143.95C371.314 143.61 371.714 143.36 372.164 143.2C372.624 143.03 373.099 142.945 373.589 142.945C373.989 142.945 374.414 143 374.864 143.11C375.324 143.22 375.724 143.37 376.064 143.56L376.004 145.435H375.194L374.999 144.025L375.119 144.16C374.869 144.04 374.604 143.955 374.324 143.905C374.044 143.855 373.794 143.83 373.574 143.83C373.054 143.83 372.604 143.965 372.224 144.235C371.854 144.495 371.569 144.865 371.369 145.345C371.169 145.825 371.069 146.395 371.069 147.055C371.069 147.735 371.174 148.31 371.384 148.78C371.594 149.25 371.879 149.605 372.239 149.845C372.609 150.085 373.024 150.205 373.484 150.205C373.844 150.205 374.224 150.13 374.624 149.98C375.024 149.83 375.439 149.605 375.869 149.305L376.289 149.965C375.769 150.365 375.249 150.66 374.729 150.85C374.209 151.04 373.704 151.135 373.214 151.135ZM379.709 151.135C379.189 151.135 378.779 150.975 378.479 150.655C378.179 150.325 378.029 149.83 378.029 149.17V143.725L378.224 143.92H376.679V143.26L378.239 143.035L378.029 143.275V141.295L379.229 141.1V143.275L379.064 143.08H381.419L381.374 143.92H379.064L379.229 143.725V149.005C379.229 149.425 379.309 149.73 379.469 149.92C379.639 150.11 379.874 150.205 380.174 150.205C380.354 150.205 380.549 150.175 380.759 150.115C380.969 150.055 381.194 149.97 381.434 149.86L381.689 150.55C380.979 150.94 380.319 151.135 379.709 151.135ZM388.341 151.135C387.671 151.135 387.121 150.93 386.691 150.52C386.261 150.11 386.046 149.48 386.046 148.63V143.845L386.196 144.055L384.876 143.77V143.125L387.246 143.035V148.42C387.246 149.02 387.386 149.465 387.666 149.755C387.946 150.045 388.321 150.19 388.791 150.19C389.161 150.19 389.561 150.09 389.991 149.89C390.431 149.69 390.861 149.38 391.281 148.96L391.176 149.23V143.815L391.326 144.055L390.006 143.77V143.125L392.376 143.02V150.265L392.196 150.07L393.561 150.325V150.985L391.446 151.075L391.266 149.59L391.446 149.65C390.946 150.16 390.426 150.535 389.886 150.775C389.346 151.015 388.831 151.135 388.341 151.135ZM395.858 145C395.858 145.32 395.963 145.57 396.173 145.75C396.383 145.93 396.653 146.08 396.983 146.2C397.313 146.31 397.663 146.42 398.033 146.53C398.403 146.64 398.753 146.775 399.083 146.935C399.413 147.095 399.683 147.315 399.893 147.595C400.103 147.875 400.208 148.245 400.208 148.705C400.208 149.235 400.063 149.68 399.773 150.04C399.483 150.4 399.088 150.675 398.588 150.865C398.098 151.045 397.548 151.135 396.938 151.135C396.568 151.135 396.188 151.105 395.798 151.045C395.408 150.985 395.008 150.9 394.598 150.79L394.703 148.78H395.468L395.618 150.25L395.483 150.085C395.713 150.145 395.963 150.195 396.233 150.235C396.503 150.275 396.753 150.295 396.983 150.295C397.343 150.295 397.673 150.245 397.973 150.145C398.283 150.035 398.533 149.88 398.723 149.68C398.913 149.47 399.008 149.21 399.008 148.9C399.008 148.57 398.903 148.31 398.693 148.12C398.493 147.93 398.228 147.775 397.898 147.655C397.568 147.535 397.218 147.425 396.848 147.325C396.488 147.215 396.143 147.08 395.813 146.92C395.483 146.75 395.213 146.53 395.003 146.26C394.793 145.99 394.688 145.62 394.688 145.15C394.688 144.64 394.818 144.225 395.078 143.905C395.348 143.575 395.698 143.335 396.128 143.185C396.568 143.025 397.038 142.945 397.538 142.945C397.878 142.945 398.253 142.98 398.663 143.05C399.073 143.12 399.493 143.225 399.923 143.365L399.848 145.06H399.083L398.858 143.815L399.038 144.025C398.518 143.875 398.028 143.8 397.568 143.8C397.078 143.8 396.668 143.905 396.338 144.115C396.018 144.315 395.858 144.61 395.858 145ZM406.864 151.135C406.344 151.135 405.934 150.975 405.634 150.655C405.334 150.325 405.184 149.83 405.184 149.17V143.725L405.379 143.92H403.834V143.26L405.394 143.035L405.184 143.275V141.295L406.384 141.1V143.275L406.219 143.08H408.574L408.529 143.92H406.219L406.384 143.725V149.005C406.384 149.425 406.464 149.73 406.624 149.92C406.794 150.11 407.029 150.205 407.329 150.205C407.509 150.205 407.704 150.175 407.914 150.115C408.124 150.055 408.349 149.97 408.589 149.86L408.844 150.55C408.134 150.94 407.474 151.135 406.864 151.135ZM413.143 142.945C414.243 142.945 415.103 143.29 415.723 143.98C416.353 144.67 416.668 145.645 416.668 146.905C416.668 147.755 416.513 148.5 416.203 149.14C415.903 149.77 415.473 150.26 414.913 150.61C414.353 150.96 413.678 151.135 412.888 151.135C411.808 151.135 410.963 150.8 410.353 150.13C409.743 149.45 409.438 148.475 409.438 147.205C409.438 146.325 409.583 145.57 409.873 144.94C410.173 144.3 410.598 143.81 411.148 143.47C411.708 143.12 412.373 142.945 413.143 142.945ZM413.083 143.83C412.313 143.83 411.723 144.12 411.313 144.7C410.903 145.28 410.698 146.095 410.698 147.145C410.698 148.175 410.893 148.95 411.283 149.47C411.673 149.99 412.233 150.25 412.963 150.25C413.493 150.25 413.938 150.12 414.298 149.86C414.668 149.59 414.943 149.21 415.123 148.72C415.313 148.23 415.408 147.645 415.408 146.965C415.408 145.945 415.203 145.17 414.793 144.64C414.393 144.1 413.823 143.83 413.083 143.83ZM422.809 150.235L422.674 150.07L423.979 150.355V151H420.424V150.355L421.729 150.07L421.609 150.235V140.305L421.729 140.44L420.424 140.17V139.525L422.809 139.42V150.235ZM428.331 151.135C427.661 151.135 427.066 150.985 426.546 150.685C426.036 150.375 425.636 149.925 425.346 149.335C425.056 148.745 424.911 148.025 424.911 147.175C424.911 146.305 425.061 145.555 425.361 144.925C425.661 144.295 426.086 143.81 426.636 143.47C427.186 143.12 427.831 142.945 428.571 142.945C429.271 142.945 429.846 143.095 430.296 143.395C430.756 143.685 431.096 144.09 431.316 144.61C431.546 145.13 431.661 145.725 431.661 146.395C431.661 146.505 431.656 146.615 431.646 146.725C431.636 146.835 431.621 146.97 431.601 147.13H425.826V146.275H430.551L430.416 146.365C430.426 145.915 430.371 145.5 430.251 145.12C430.131 144.74 429.926 144.435 429.636 144.205C429.346 143.975 428.961 143.86 428.481 143.86C427.971 143.86 427.541 143.995 427.191 144.265C426.841 144.535 426.581 144.905 426.411 145.375C426.241 145.845 426.156 146.39 426.156 147.01C426.156 147.67 426.251 148.24 426.441 148.72C426.631 149.19 426.906 149.555 427.266 149.815C427.636 150.075 428.086 150.205 428.616 150.205C428.986 150.205 429.391 150.135 429.831 149.995C430.271 149.845 430.726 149.62 431.196 149.32L431.631 149.995C431.071 150.375 430.511 150.66 429.951 150.85C429.391 151.04 428.851 151.135 428.331 151.135ZM438.98 150.325L438.785 150.055L440.165 150.325V150.985L438.065 151.075L437.885 149.635L437.99 149.68C437.55 150.16 437.075 150.525 436.565 150.775C436.055 151.015 435.56 151.135 435.08 151.135C434.5 151.135 434.01 150.95 433.61 150.58C433.21 150.21 433.01 149.65 433.01 148.9C433.01 148.31 433.135 147.86 433.385 147.55C433.635 147.23 433.98 147.005 434.42 146.875C434.86 146.745 435.37 146.68 435.95 146.68H437.915L437.78 146.83V145.39C437.78 144.84 437.635 144.45 437.345 144.22C437.055 143.98 436.655 143.86 436.145 143.86C435.875 143.86 435.585 143.89 435.275 143.95C434.975 144 434.655 144.085 434.315 144.205L434.495 144.01L434.345 145.375H433.55L433.43 143.515C434 143.325 434.535 143.185 435.035 143.095C435.535 142.995 435.995 142.945 436.415 142.945C437.215 142.945 437.84 143.125 438.29 143.485C438.75 143.835 438.98 144.4 438.98 145.18V150.325ZM434.225 148.795C434.225 149.285 434.34 149.645 434.57 149.875C434.81 150.105 435.11 150.22 435.47 150.22C435.82 150.22 436.205 150.115 436.625 149.905C437.055 149.685 437.47 149.39 437.87 149.02L437.78 149.335V147.325L437.915 147.46H436.13C435.42 147.46 434.925 147.57 434.645 147.79C434.365 148 434.225 148.335 434.225 148.795ZM440.868 151V150.355L442.188 150.07L442.038 150.295V143.83L442.203 144.055L440.868 143.77V143.125L442.968 143.02L443.133 144.49L442.968 144.43C443.418 143.96 443.858 143.595 444.288 143.335C444.718 143.075 445.188 142.945 445.698 142.945C446.018 142.945 446.353 142.995 446.703 143.095L446.613 145.195H445.863L445.683 143.71L445.818 143.98C445.748 143.96 445.673 143.945 445.593 143.935C445.513 143.925 445.433 143.92 445.353 143.92C444.953 143.92 444.563 144.04 444.183 144.28C443.813 144.52 443.458 144.83 443.118 145.21L443.238 144.85V150.295L443.058 150.07L444.693 150.355V151H440.868ZM447.163 151V150.355L448.513 150.055L448.333 150.28V143.83L448.513 144.055L447.163 143.77V143.125L449.263 143.02L449.428 144.49L449.263 144.43C449.763 143.92 450.283 143.545 450.823 143.305C451.373 143.065 451.893 142.945 452.383 142.945C453.043 142.945 453.588 143.15 454.018 143.56C454.458 143.96 454.673 144.585 454.663 145.435V150.28L454.513 150.07L455.833 150.355V151H452.338V150.355L453.643 150.07L453.463 150.295V145.69C453.463 145.07 453.323 144.615 453.043 144.325C452.763 144.035 452.388 143.89 451.918 143.89C451.548 143.89 451.143 143.99 450.703 144.19C450.273 144.39 449.848 144.7 449.428 145.12L449.533 144.88V150.295L449.383 150.085L450.658 150.355V151H447.163ZM466.573 144.445L466.408 144.475C466.898 143.965 467.418 143.585 467.968 143.335C468.518 143.075 469.033 142.945 469.513 142.945C470.123 142.945 470.633 143.15 471.043 143.56C471.463 143.96 471.673 144.58 471.673 145.42V150.28L471.523 150.07L472.843 150.355V151H469.363V150.355L470.638 150.07L470.473 150.295V145.69C470.473 145.07 470.338 144.615 470.068 144.325C469.808 144.035 469.468 143.89 469.048 143.89C468.688 143.89 468.288 143.995 467.848 144.205C467.418 144.415 466.993 144.735 466.573 145.165L466.678 144.88C466.688 144.97 466.693 145.055 466.693 145.135C466.703 145.215 466.708 145.295 466.708 145.375V150.28L466.558 150.07L467.803 150.355V151H464.413V150.355L465.688 150.07L465.508 150.295V145.69C465.508 145.07 465.373 144.615 465.103 144.325C464.843 144.035 464.503 143.89 464.083 143.89C463.723 143.89 463.328 143.99 462.898 144.19C462.468 144.39 462.043 144.7 461.623 145.12L461.728 144.895V150.295L461.578 150.085L462.823 150.355V151H459.358V150.355L460.708 150.055L460.528 150.28V143.83L460.708 144.055L459.358 143.77V143.125L461.458 143.02L461.623 144.49L461.458 144.43C461.948 143.92 462.463 143.545 463.003 143.305C463.553 143.065 464.073 142.945 464.563 142.945C465.023 142.945 465.433 143.07 465.793 143.32C466.153 143.56 466.413 143.935 466.573 144.445ZM477.36 142.945C478.46 142.945 479.32 143.29 479.94 143.98C480.57 144.67 480.885 145.645 480.885 146.905C480.885 147.755 480.73 148.5 480.42 149.14C480.12 149.77 479.69 150.26 479.13 150.61C478.57 150.96 477.895 151.135 477.105 151.135C476.025 151.135 475.18 150.8 474.57 150.13C473.96 149.45 473.655 148.475 473.655 147.205C473.655 146.325 473.8 145.57 474.09 144.94C474.39 144.3 474.815 143.81 475.365 143.47C475.925 143.12 476.59 142.945 477.36 142.945ZM477.3 143.83C476.53 143.83 475.94 144.12 475.53 144.7C475.12 145.28 474.915 146.095 474.915 147.145C474.915 148.175 475.11 148.95 475.5 149.47C475.89 149.99 476.45 150.25 477.18 150.25C477.71 150.25 478.155 150.12 478.515 149.86C478.885 149.59 479.16 149.21 479.34 148.72C479.53 148.23 479.625 147.645 479.625 146.965C479.625 145.945 479.42 145.17 479.01 144.64C478.61 144.1 478.04 143.83 477.3 143.83ZM481.998 151V150.355L483.318 150.07L483.168 150.295V143.83L483.333 144.055L481.998 143.77V143.125L484.098 143.02L484.263 144.49L484.098 144.43C484.548 143.96 484.988 143.595 485.418 143.335C485.848 143.075 486.318 142.945 486.828 142.945C487.148 142.945 487.483 142.995 487.833 143.095L487.743 145.195H486.993L486.813 143.71L486.948 143.98C486.878 143.96 486.803 143.945 486.723 143.935C486.643 143.925 486.563 143.92 486.483 143.92C486.083 143.92 485.693 144.04 485.313 144.28C484.943 144.52 484.588 144.83 484.248 145.21L484.368 144.85V150.295L484.188 150.07L485.823 150.355V151H481.998ZM491.702 151.135C491.032 151.135 490.437 150.985 489.917 150.685C489.407 150.375 489.007 149.925 488.717 149.335C488.427 148.745 488.282 148.025 488.282 147.175C488.282 146.305 488.432 145.555 488.732 144.925C489.032 144.295 489.457 143.81 490.007 143.47C490.557 143.12 491.202 142.945 491.942 142.945C492.642 142.945 493.217 143.095 493.667 143.395C494.127 143.685 494.467 144.09 494.687 144.61C494.917 145.13 495.032 145.725 495.032 146.395C495.032 146.505 495.027 146.615 495.017 146.725C495.007 146.835 494.992 146.97 494.972 147.13H489.197V146.275H493.922L493.787 146.365C493.797 145.915 493.742 145.5 493.622 145.12C493.502 144.74 493.297 144.435 493.007 144.205C492.717 143.975 492.332 143.86 491.852 143.86C491.342 143.86 490.912 143.995 490.562 144.265C490.212 144.535 489.952 144.905 489.782 145.375C489.612 145.845 489.527 146.39 489.527 147.01C489.527 147.67 489.622 148.24 489.812 148.72C490.002 149.19 490.277 149.555 490.637 149.815C491.007 150.075 491.457 150.205 491.987 150.205C492.357 150.205 492.762 150.135 493.202 149.995C493.642 149.845 494.097 149.62 494.567 149.32L495.002 149.995C494.442 150.375 493.882 150.66 493.322 150.85C492.762 151.04 492.222 151.135 491.702 151.135ZM505.203 150.325L505.008 150.055L506.388 150.325V150.985L504.288 151.075L504.108 149.635L504.213 149.68C503.773 150.16 503.298 150.525 502.788 150.775C502.278 151.015 501.783 151.135 501.303 151.135C500.723 151.135 500.233 150.95 499.833 150.58C499.433 150.21 499.233 149.65 499.233 148.9C499.233 148.31 499.358 147.86 499.608 147.55C499.858 147.23 500.203 147.005 500.643 146.875C501.083 146.745 501.593 146.68 502.173 146.68H504.138L504.003 146.83V145.39C504.003 144.84 503.858 144.45 503.568 144.22C503.278 143.98 502.878 143.86 502.368 143.86C502.098 143.86 501.808 143.89 501.498 143.95C501.198 144 500.878 144.085 500.538 144.205L500.718 144.01L500.568 145.375H499.773L499.653 143.515C500.223 143.325 500.758 143.185 501.258 143.095C501.758 142.995 502.218 142.945 502.638 142.945C503.438 142.945 504.063 143.125 504.513 143.485C504.973 143.835 505.203 144.4 505.203 145.18V150.325ZM500.448 148.795C500.448 149.285 500.563 149.645 500.793 149.875C501.033 150.105 501.333 150.22 501.693 150.22C502.043 150.22 502.428 150.115 502.848 149.905C503.278 149.685 503.693 149.39 504.093 149.02L504.003 149.335V147.325L504.138 147.46H502.353C501.643 147.46 501.148 147.57 500.868 147.79C500.588 148 500.448 148.335 500.448 148.795ZM510.271 151.135C509.911 151.135 509.526 151.11 509.116 151.06C508.716 151.01 508.291 150.935 507.841 150.835V140.125L508.081 140.47L506.671 140.17V139.525L509.041 139.42V144.355L508.876 144.175C509.296 143.775 509.731 143.47 510.181 143.26C510.631 143.05 511.081 142.945 511.531 142.945C512.091 142.945 512.591 143.1 513.031 143.41C513.481 143.72 513.836 144.17 514.096 144.76C514.356 145.35 514.486 146.075 514.486 146.935C514.486 147.585 514.401 148.17 514.231 148.69C514.071 149.21 513.821 149.65 513.481 150.01C513.141 150.37 512.706 150.65 512.176 150.85C511.646 151.04 511.011 151.135 510.271 151.135ZM510.496 150.25C511.386 150.25 512.066 149.975 512.536 149.425C513.006 148.875 513.241 148.075 513.241 147.025C513.241 146.365 513.146 145.8 512.956 145.33C512.776 144.86 512.526 144.5 512.206 144.25C511.886 143.99 511.521 143.86 511.111 143.86C510.761 143.86 510.396 143.955 510.016 144.145C509.646 144.325 509.271 144.605 508.891 144.985L509.041 144.55V150.34L508.876 150.01C509.486 150.17 510.026 150.25 510.496 150.25ZM519.467 142.945C520.567 142.945 521.427 143.29 522.047 143.98C522.677 144.67 522.992 145.645 522.992 146.905C522.992 147.755 522.837 148.5 522.527 149.14C522.227 149.77 521.797 150.26 521.237 150.61C520.677 150.96 520.002 151.135 519.212 151.135C518.132 151.135 517.287 150.8 516.677 150.13C516.067 149.45 515.762 148.475 515.762 147.205C515.762 146.325 515.907 145.57 516.197 144.94C516.497 144.3 516.922 143.81 517.472 143.47C518.032 143.12 518.697 142.945 519.467 142.945ZM519.407 143.83C518.637 143.83 518.047 144.12 517.637 144.7C517.227 145.28 517.022 146.095 517.022 147.145C517.022 148.175 517.217 148.95 517.607 149.47C517.997 149.99 518.557 150.25 519.287 150.25C519.817 150.25 520.262 150.12 520.622 149.86C520.992 149.59 521.267 149.21 521.447 148.72C521.637 148.23 521.732 147.645 521.732 146.965C521.732 145.945 521.527 145.17 521.117 144.64C520.717 144.1 520.147 143.83 519.407 143.83ZM527.255 151.135C526.585 151.135 526.035 150.93 525.605 150.52C525.175 150.11 524.96 149.48 524.96 148.63V143.845L525.11 144.055L523.79 143.77V143.125L526.16 143.035V148.42C526.16 149.02 526.3 149.465 526.58 149.755C526.86 150.045 527.235 150.19 527.705 150.19C528.075 150.19 528.475 150.09 528.905 149.89C529.345 149.69 529.775 149.38 530.195 148.96L530.09 149.23V143.815L530.24 144.055L528.92 143.77V143.125L531.29 143.02V150.265L531.11 150.07L532.475 150.325V150.985L530.36 151.075L530.18 149.59L530.36 149.65C529.86 150.16 529.34 150.535 528.8 150.775C528.26 151.015 527.745 151.135 527.255 151.135ZM535.912 151.135C535.392 151.135 534.982 150.975 534.682 150.655C534.382 150.325 534.232 149.83 534.232 149.17V143.725L534.427 143.92H532.882V143.26L534.442 143.035L534.232 143.275V141.295L535.432 141.1V143.275L535.267 143.08H537.622L537.577 143.92H535.267L535.432 143.725V149.005C535.432 149.425 535.512 149.73 535.672 149.92C535.842 150.11 536.077 150.205 536.377 150.205C536.557 150.205 536.752 150.175 536.962 150.115C537.172 150.055 537.397 149.97 537.637 149.86L537.892 150.55C537.182 150.94 536.522 151.135 535.912 151.135ZM545.235 142.945C546.335 142.945 547.195 143.29 547.815 143.98C548.445 144.67 548.76 145.645 548.76 146.905C548.76 147.755 548.605 148.5 548.295 149.14C547.995 149.77 547.565 150.26 547.005 150.61C546.445 150.96 545.77 151.135 544.98 151.135C543.9 151.135 543.055 150.8 542.445 150.13C541.835 149.45 541.53 148.475 541.53 147.205C541.53 146.325 541.675 145.57 541.965 144.94C542.265 144.3 542.69 143.81 543.24 143.47C543.8 143.12 544.465 142.945 545.235 142.945ZM545.175 143.83C544.405 143.83 543.815 144.12 543.405 144.7C542.995 145.28 542.79 146.095 542.79 147.145C542.79 148.175 542.985 148.95 543.375 149.47C543.765 149.99 544.325 150.25 545.055 150.25C545.585 150.25 546.03 150.12 546.39 149.86C546.76 149.59 547.035 149.21 547.215 148.72C547.405 148.23 547.5 147.645 547.5 146.965C547.5 145.945 547.295 145.17 546.885 144.64C546.485 144.1 545.915 143.83 545.175 143.83ZM553.023 151.135C552.353 151.135 551.803 150.93 551.373 150.52C550.943 150.11 550.728 149.48 550.728 148.63V143.845L550.878 144.055L549.558 143.77V143.125L551.928 143.035V148.42C551.928 149.02 552.068 149.465 552.348 149.755C552.628 150.045 553.003 150.19 553.473 150.19C553.843 150.19 554.243 150.09 554.673 149.89C555.113 149.69 555.543 149.38 555.963 148.96L555.858 149.23V143.815L556.008 144.055L554.688 143.77V143.125L557.058 143.02V150.265L556.878 150.07L558.243 150.325V150.985L556.128 151.075L555.948 149.59L556.128 149.65C555.628 150.16 555.108 150.535 554.568 150.775C554.028 151.015 553.513 151.135 553.023 151.135ZM559.024 151V150.355L560.344 150.07L560.194 150.295V143.83L560.359 144.055L559.024 143.77V143.125L561.124 143.02L561.289 144.49L561.124 144.43C561.574 143.96 562.014 143.595 562.444 143.335C562.874 143.075 563.344 142.945 563.854 142.945C564.174 142.945 564.509 142.995 564.859 143.095L564.769 145.195H564.019L563.839 143.71L563.974 143.98C563.904 143.96 563.829 143.945 563.749 143.935C563.669 143.925 563.589 143.92 563.509 143.92C563.109 143.92 562.719 144.04 562.339 144.28C561.969 144.52 561.614 144.83 561.274 145.21L561.394 144.85V150.295L561.214 150.07L562.849 150.355V151H559.024ZM568.378 151V150.355L569.698 150.07L569.548 150.25V143.815L569.698 143.98H568.348V143.32L569.728 143.125L569.548 143.35V142.09C569.548 141.15 569.788 140.46 570.268 140.02C570.758 139.57 571.398 139.345 572.188 139.345C572.448 139.345 572.713 139.37 572.983 139.42C573.253 139.46 573.538 139.53 573.838 139.63L573.643 140.455C573.413 140.385 573.193 140.33 572.983 140.29C572.773 140.25 572.568 140.23 572.368 140.23C571.878 140.23 571.483 140.37 571.183 140.65C570.893 140.93 570.748 141.375 570.748 141.985V143.35L570.553 143.14H572.848L572.818 143.98H570.598L570.748 143.815V150.235L570.598 150.07L572.173 150.355V151H568.378ZM576.622 151.135C575.952 151.135 575.402 150.93 574.972 150.52C574.542 150.11 574.327 149.48 574.327 148.63V143.845L574.477 144.055L573.157 143.77V143.125L575.527 143.035V148.42C575.527 149.02 575.667 149.465 575.947 149.755C576.227 150.045 576.602 150.19 577.072 150.19C577.442 150.19 577.842 150.09 578.272 149.89C578.712 149.69 579.142 149.38 579.562 148.96L579.457 149.23V143.815L579.607 144.055L578.287 143.77V143.125L580.657 143.02V150.265L580.477 150.07L581.842 150.325V150.985L579.727 151.075L579.547 149.59L579.727 149.65C579.227 150.16 578.707 150.535 578.167 150.775C577.627 151.015 577.112 151.135 576.622 151.135ZM584.799 150.235L584.664 150.07L585.969 150.355V151H582.414V150.355L583.719 150.07L583.599 150.235V140.305L583.719 140.44L582.414 140.17V139.525L584.799 139.42V150.235ZM588.97 150.235L588.835 150.07L590.14 150.355V151H586.585V150.355L587.89 150.07L587.77 150.235V140.305L587.89 140.44L586.585 140.17V139.525L588.97 139.42V150.235ZM593.775 151V150.355L595.095 150.07L594.945 150.295V143.83L595.11 144.055L593.775 143.77V143.125L595.875 143.02L596.04 144.49L595.875 144.43C596.325 143.96 596.765 143.595 597.195 143.335C597.625 143.075 598.095 142.945 598.605 142.945C598.925 142.945 599.26 142.995 599.61 143.095L599.52 145.195H598.77L598.59 143.71L598.725 143.98C598.655 143.96 598.58 143.945 598.5 143.935C598.42 143.925 598.34 143.92 598.26 143.92C597.86 143.92 597.47 144.04 597.09 144.28C596.72 144.52 596.365 144.83 596.025 145.21L596.145 144.85V150.295L595.965 150.07L597.6 150.355V151H593.775ZM605.942 150.325L605.747 150.055L607.127 150.325V150.985L605.027 151.075L604.847 149.635L604.952 149.68C604.512 150.16 604.037 150.525 603.527 150.775C603.017 151.015 602.522 151.135 602.042 151.135C601.462 151.135 600.972 150.95 600.572 150.58C600.172 150.21 599.972 149.65 599.972 148.9C599.972 148.31 600.097 147.86 600.347 147.55C600.597 147.23 600.942 147.005 601.382 146.875C601.822 146.745 602.332 146.68 602.912 146.68H604.877L604.742 146.83V145.39C604.742 144.84 604.597 144.45 604.307 144.22C604.017 143.98 603.617 143.86 603.107 143.86C602.837 143.86 602.547 143.89 602.237 143.95C601.937 144 601.617 144.085 601.277 144.205L601.457 144.01L601.307 145.375H600.512L600.392 143.515C600.962 143.325 601.497 143.185 601.997 143.095C602.497 142.995 602.957 142.945 603.377 142.945C604.177 142.945 604.802 143.125 605.252 143.485C605.712 143.835 605.942 144.4 605.942 145.18V150.325ZM601.187 148.795C601.187 149.285 601.302 149.645 601.532 149.875C601.772 150.105 602.072 150.22 602.432 150.22C602.782 150.22 603.167 150.115 603.587 149.905C604.017 149.685 604.432 149.39 604.832 149.02L604.742 149.335V147.325L604.877 147.46H603.092C602.382 147.46 601.887 147.57 601.607 147.79C601.327 148 601.187 148.335 601.187 148.795ZM607.831 151V150.355L609.181 150.055L609.001 150.28V143.83L609.181 144.055L607.831 143.77V143.125L609.931 143.02L610.096 144.49L609.931 144.43C610.431 143.92 610.951 143.545 611.491 143.305C612.041 143.065 612.561 142.945 613.051 142.945C613.711 142.945 614.256 143.15 614.686 143.56C615.126 143.96 615.341 144.585 615.331 145.435V150.28L615.181 150.07L616.501 150.355V151H613.006V150.355L614.311 150.07L614.131 150.295V145.69C614.131 145.07 613.991 144.615 613.711 144.325C613.431 144.035 613.056 143.89 612.586 143.89C612.216 143.89 611.811 143.99 611.371 144.19C610.941 144.39 610.516 144.7 610.096 145.12L610.201 144.88V150.295L610.051 150.085L611.326 150.355V151H607.831ZM620.563 154.585C619.393 154.585 618.518 154.415 617.938 154.075C617.358 153.735 617.068 153.245 617.068 152.605C617.068 152.155 617.218 151.755 617.518 151.405C617.818 151.055 618.258 150.75 618.838 150.49L618.853 150.73C618.533 150.71 618.288 150.645 618.118 150.535C617.948 150.415 617.863 150.25 617.863 150.04C617.863 149.96 617.873 149.88 617.893 149.8C617.913 149.72 617.948 149.61 617.998 149.47C618.058 149.32 618.143 149.125 618.253 148.885C618.373 148.635 618.523 148.31 618.703 147.91L618.733 148.12C618.303 147.89 617.973 147.58 617.743 147.19C617.513 146.79 617.398 146.32 617.398 145.78C617.398 144.91 617.683 144.22 618.253 143.71C618.833 143.2 619.628 142.945 620.638 142.945C621.318 142.945 621.903 143.065 622.393 143.305L622.063 143.23L624.418 143.125L624.433 143.845L623.038 144.115L623.143 143.935C623.353 144.135 623.513 144.38 623.623 144.67C623.733 144.96 623.788 145.29 623.788 145.66C623.788 146.54 623.493 147.235 622.903 147.745C622.313 148.255 621.528 148.51 620.548 148.51C619.988 148.51 619.473 148.415 619.003 148.225L619.273 148.09L618.883 150.055L618.628 149.905H621.568C622.528 149.905 623.258 150.095 623.758 150.475C624.258 150.845 624.508 151.38 624.508 152.08C624.508 152.89 624.173 153.51 623.503 153.94C622.843 154.37 621.863 154.585 620.563 154.585ZM620.668 153.67C621.578 153.67 622.253 153.545 622.693 153.295C623.133 153.045 623.353 152.67 623.353 152.17C623.353 151.73 623.188 151.395 622.858 151.165C622.528 150.945 622.033 150.835 621.373 150.835H618.988L619.333 150.76C618.533 151.26 618.133 151.8 618.133 152.38C618.133 152.81 618.338 153.13 618.748 153.34C619.168 153.56 619.808 153.67 620.668 153.67ZM620.548 147.67C621.188 147.67 621.688 147.5 622.048 147.16C622.408 146.81 622.588 146.32 622.588 145.69C622.588 145.06 622.418 144.585 622.078 144.265C621.738 143.945 621.253 143.785 620.623 143.785C619.983 143.785 619.488 143.955 619.138 144.295C618.788 144.625 618.613 145.11 618.613 145.75C618.613 146.37 618.778 146.845 619.108 147.175C619.448 147.505 619.928 147.67 620.548 147.67ZM628.781 151.135C628.111 151.135 627.516 150.985 626.996 150.685C626.486 150.375 626.086 149.925 625.796 149.335C625.506 148.745 625.361 148.025 625.361 147.175C625.361 146.305 625.511 145.555 625.811 144.925C626.111 144.295 626.536 143.81 627.086 143.47C627.636 143.12 628.281 142.945 629.021 142.945C629.721 142.945 630.296 143.095 630.746 143.395C631.206 143.685 631.546 144.09 631.766 144.61C631.996 145.13 632.111 145.725 632.111 146.395C632.111 146.505 632.106 146.615 632.096 146.725C632.086 146.835 632.071 146.97 632.051 147.13H626.276V146.275H631.001L630.866 146.365C630.876 145.915 630.821 145.5 630.701 145.12C630.581 144.74 630.376 144.435 630.086 144.205C629.796 143.975 629.411 143.86 628.931 143.86C628.421 143.86 627.991 143.995 627.641 144.265C627.291 144.535 627.031 144.905 626.861 145.375C626.691 145.845 626.606 146.39 626.606 147.01C626.606 147.67 626.701 148.24 626.891 148.72C627.081 149.19 627.356 149.555 627.716 149.815C628.086 150.075 628.536 150.205 629.066 150.205C629.436 150.205 629.841 150.135 630.281 149.995C630.721 149.845 631.176 149.62 631.646 149.32L632.081 149.995C631.521 150.375 630.961 150.66 630.401 150.85C629.841 151.04 629.301 151.135 628.781 151.135ZM333.41 165.945C334.51 165.945 335.37 166.29 335.99 166.98C336.62 167.67 336.935 168.645 336.935 169.905C336.935 170.755 336.78 171.5 336.47 172.14C336.17 172.77 335.74 173.26 335.18 173.61C334.62 173.96 333.945 174.135 333.155 174.135C332.075 174.135 331.23 173.8 330.62 173.13C330.01 172.45 329.705 171.475 329.705 170.205C329.705 169.325 329.85 168.57 330.14 167.94C330.44 167.3 330.865 166.81 331.415 166.47C331.975 166.12 332.64 165.945 333.41 165.945ZM333.35 166.83C332.58 166.83 331.99 167.12 331.58 167.7C331.17 168.28 330.965 169.095 330.965 170.145C330.965 171.175 331.16 171.95 331.55 172.47C331.94 172.99 332.5 173.25 333.23 173.25C333.76 173.25 334.205 173.12 334.565 172.86C334.935 172.59 335.21 172.21 335.39 171.72C335.58 171.23 335.675 170.645 335.675 169.965C335.675 168.945 335.47 168.17 335.06 167.64C334.66 167.1 334.09 166.83 333.35 166.83ZM338.063 174V173.355L339.383 173.07L339.233 173.25V166.815L339.383 166.98H338.033V166.32L339.413 166.125L339.233 166.35V165.09C339.233 164.15 339.473 163.46 339.953 163.02C340.443 162.57 341.083 162.345 341.873 162.345C342.133 162.345 342.398 162.37 342.668 162.42C342.938 162.46 343.223 162.53 343.523 162.63L343.328 163.455C343.098 163.385 342.878 163.33 342.668 163.29C342.458 163.25 342.253 163.23 342.053 163.23C341.563 163.23 341.168 163.37 340.868 163.65C340.578 163.93 340.433 164.375 340.433 164.985V166.35L340.238 166.14H342.533L342.503 166.98H340.283L340.433 166.815V173.235L340.283 173.07L341.858 173.355V174H338.063ZM347.481 168C347.481 168.32 347.586 168.57 347.796 168.75C348.006 168.93 348.276 169.08 348.606 169.2C348.936 169.31 349.286 169.42 349.656 169.53C350.026 169.64 350.376 169.775 350.706 169.935C351.036 170.095 351.306 170.315 351.516 170.595C351.726 170.875 351.831 171.245 351.831 171.705C351.831 172.235 351.686 172.68 351.396 173.04C351.106 173.4 350.711 173.675 350.211 173.865C349.721 174.045 349.171 174.135 348.561 174.135C348.191 174.135 347.811 174.105 347.421 174.045C347.031 173.985 346.631 173.9 346.221 173.79L346.326 171.78H347.091L347.241 173.25L347.106 173.085C347.336 173.145 347.586 173.195 347.856 173.235C348.126 173.275 348.376 173.295 348.606 173.295C348.966 173.295 349.296 173.245 349.596 173.145C349.906 173.035 350.156 172.88 350.346 172.68C350.536 172.47 350.631 172.21 350.631 171.9C350.631 171.57 350.526 171.31 350.316 171.12C350.116 170.93 349.851 170.775 349.521 170.655C349.191 170.535 348.841 170.425 348.471 170.325C348.111 170.215 347.766 170.08 347.436 169.92C347.106 169.75 346.836 169.53 346.626 169.26C346.416 168.99 346.311 168.62 346.311 168.15C346.311 167.64 346.441 167.225 346.701 166.905C346.971 166.575 347.321 166.335 347.751 166.185C348.191 166.025 348.661 165.945 349.161 165.945C349.501 165.945 349.876 165.98 350.286 166.05C350.696 166.12 351.116 166.225 351.546 166.365L351.471 168.06H350.706L350.481 166.815L350.661 167.025C350.141 166.875 349.651 166.8 349.191 166.8C348.701 166.8 348.291 166.905 347.961 167.115C347.641 167.315 347.481 167.61 347.481 168ZM356.549 174.135C355.879 174.135 355.284 173.985 354.764 173.685C354.254 173.375 353.854 172.925 353.564 172.335C353.274 171.745 353.129 171.025 353.129 170.175C353.129 169.305 353.279 168.555 353.579 167.925C353.879 167.295 354.304 166.81 354.854 166.47C355.404 166.12 356.049 165.945 356.789 165.945C357.489 165.945 358.064 166.095 358.514 166.395C358.974 166.685 359.314 167.09 359.534 167.61C359.764 168.13 359.879 168.725 359.879 169.395C359.879 169.505 359.874 169.615 359.864 169.725C359.854 169.835 359.839 169.97 359.819 170.13H354.044V169.275H358.769L358.634 169.365C358.644 168.915 358.589 168.5 358.469 168.12C358.349 167.74 358.144 167.435 357.854 167.205C357.564 166.975 357.179 166.86 356.699 166.86C356.189 166.86 355.759 166.995 355.409 167.265C355.059 167.535 354.799 167.905 354.629 168.375C354.459 168.845 354.374 169.39 354.374 170.01C354.374 170.67 354.469 171.24 354.659 171.72C354.849 172.19 355.124 172.555 355.484 172.815C355.854 173.075 356.304 173.205 356.834 173.205C357.204 173.205 357.609 173.135 358.049 172.995C358.489 172.845 358.944 172.62 359.414 172.32L359.849 172.995C359.289 173.375 358.729 173.66 358.169 173.85C357.609 174.04 357.069 174.135 356.549 174.135ZM361.032 174V173.355L362.352 173.07L362.202 173.295V166.83L362.367 167.055L361.032 166.77V166.125L363.132 166.02L363.297 167.49L363.132 167.43C363.582 166.96 364.022 166.595 364.452 166.335C364.882 166.075 365.352 165.945 365.862 165.945C366.182 165.945 366.517 165.995 366.867 166.095L366.777 168.195H366.027L365.847 166.71L365.982 166.98C365.912 166.96 365.837 166.945 365.757 166.935C365.677 166.925 365.597 166.92 365.517 166.92C365.117 166.92 364.727 167.04 364.347 167.28C363.977 167.52 363.622 167.83 363.282 168.21L363.402 167.85V173.295L363.222 173.07L364.857 173.355V174H361.032ZM371.88 166.125L375.015 166.02V166.68L373.995 166.98L374.205 166.755L371.595 174.03H370.185L367.8 166.785L368.01 166.98L366.975 166.77V166.125L370.275 166.02V166.68L368.91 166.935L369.03 166.755L371.04 173.265H370.92L373.095 166.8L373.185 166.935L371.88 166.77V166.125ZM377.648 173.235L377.513 173.07L378.818 173.355V174H375.278V173.355L376.583 173.07L376.448 173.235V166.905L376.568 167.04L375.278 166.77V166.125L377.648 166.035V173.235ZM376.958 164.415C376.728 164.415 376.538 164.34 376.388 164.19C376.238 164.04 376.163 163.835 376.163 163.575C376.163 163.305 376.238 163.1 376.388 162.96C376.548 162.81 376.743 162.735 376.973 162.735C377.213 162.735 377.408 162.805 377.558 162.945C377.708 163.085 377.783 163.295 377.783 163.575C377.783 163.845 377.703 164.055 377.543 164.205C377.383 164.345 377.188 164.415 376.958 164.415ZM383.106 174.135C382.466 174.135 381.886 173.98 381.366 173.67C380.856 173.35 380.451 172.89 380.151 172.29C379.861 171.69 379.716 170.97 379.716 170.13C379.716 169.4 379.816 168.775 380.016 168.255C380.226 167.725 380.506 167.29 380.856 166.95C381.206 166.61 381.606 166.36 382.056 166.2C382.516 166.03 382.991 165.945 383.481 165.945C383.881 165.945 384.306 166 384.756 166.11C385.216 166.22 385.616 166.37 385.956 166.56L385.896 168.435H385.086L384.891 167.025L385.011 167.16C384.761 167.04 384.496 166.955 384.216 166.905C383.936 166.855 383.686 166.83 383.466 166.83C382.946 166.83 382.496 166.965 382.116 167.235C381.746 167.495 381.461 167.865 381.261 168.345C381.061 168.825 380.961 169.395 380.961 170.055C380.961 170.735 381.066 171.31 381.276 171.78C381.486 172.25 381.771 172.605 382.131 172.845C382.501 173.085 382.916 173.205 383.376 173.205C383.736 173.205 384.116 173.13 384.516 172.98C384.916 172.83 385.331 172.605 385.761 172.305L386.181 172.965C385.661 173.365 385.141 173.66 384.621 173.85C384.101 174.04 383.596 174.135 383.106 174.135ZM390.442 174.135C389.772 174.135 389.177 173.985 388.657 173.685C388.147 173.375 387.747 172.925 387.457 172.335C387.167 171.745 387.022 171.025 387.022 170.175C387.022 169.305 387.172 168.555 387.472 167.925C387.772 167.295 388.197 166.81 388.747 166.47C389.297 166.12 389.942 165.945 390.682 165.945C391.382 165.945 391.957 166.095 392.407 166.395C392.867 166.685 393.207 167.09 393.427 167.61C393.657 168.13 393.772 168.725 393.772 169.395C393.772 169.505 393.767 169.615 393.757 169.725C393.747 169.835 393.732 169.97 393.712 170.13H387.937V169.275H392.662L392.527 169.365C392.537 168.915 392.482 168.5 392.362 168.12C392.242 167.74 392.037 167.435 391.747 167.205C391.457 166.975 391.072 166.86 390.592 166.86C390.082 166.86 389.652 166.995 389.302 167.265C388.952 167.535 388.692 167.905 388.522 168.375C388.352 168.845 388.267 169.39 388.267 170.01C388.267 170.67 388.362 171.24 388.552 171.72C388.742 172.19 389.017 172.555 389.377 172.815C389.747 173.075 390.197 173.205 390.727 173.205C391.097 173.205 391.502 173.135 391.942 172.995C392.382 172.845 392.837 172.62 393.307 172.32L393.742 172.995C393.182 173.375 392.622 173.66 392.062 173.85C391.502 174.04 390.962 174.135 390.442 174.135ZM396.44 168C396.44 168.32 396.545 168.57 396.755 168.75C396.965 168.93 397.235 169.08 397.565 169.2C397.895 169.31 398.245 169.42 398.615 169.53C398.985 169.64 399.335 169.775 399.665 169.935C399.995 170.095 400.265 170.315 400.475 170.595C400.685 170.875 400.79 171.245 400.79 171.705C400.79 172.235 400.645 172.68 400.355 173.04C400.065 173.4 399.67 173.675 399.17 173.865C398.68 174.045 398.13 174.135 397.52 174.135C397.15 174.135 396.77 174.105 396.38 174.045C395.99 173.985 395.59 173.9 395.18 173.79L395.285 171.78H396.05L396.2 173.25L396.065 173.085C396.295 173.145 396.545 173.195 396.815 173.235C397.085 173.275 397.335 173.295 397.565 173.295C397.925 173.295 398.255 173.245 398.555 173.145C398.865 173.035 399.115 172.88 399.305 172.68C399.495 172.47 399.59 172.21 399.59 171.9C399.59 171.57 399.485 171.31 399.275 171.12C399.075 170.93 398.81 170.775 398.48 170.655C398.15 170.535 397.8 170.425 397.43 170.325C397.07 170.215 396.725 170.08 396.395 169.92C396.065 169.75 395.795 169.53 395.585 169.26C395.375 168.99 395.27 168.62 395.27 168.15C395.27 167.64 395.4 167.225 395.66 166.905C395.93 166.575 396.28 166.335 396.71 166.185C397.15 166.025 397.62 165.945 398.12 165.945C398.46 165.945 398.835 165.98 399.245 166.05C399.655 166.12 400.075 166.225 400.505 166.365L400.43 168.06H399.665L399.44 166.815L399.62 167.025C399.1 166.875 398.61 166.8 398.15 166.8C397.66 166.8 397.25 166.905 396.92 167.115C396.6 167.315 396.44 167.61 396.44 168ZM410.956 173.325L410.761 173.055L412.141 173.325V173.985L410.041 174.075L409.861 172.635L409.966 172.68C409.526 173.16 409.051 173.525 408.541 173.775C408.031 174.015 407.536 174.135 407.056 174.135C406.476 174.135 405.986 173.95 405.586 173.58C405.186 173.21 404.986 172.65 404.986 171.9C404.986 171.31 405.111 170.86 405.361 170.55C405.611 170.23 405.956 170.005 406.396 169.875C406.836 169.745 407.346 169.68 407.926 169.68H409.891L409.756 169.83V168.39C409.756 167.84 409.611 167.45 409.321 167.22C409.031 166.98 408.631 166.86 408.121 166.86C407.851 166.86 407.561 166.89 407.251 166.95C406.951 167 406.631 167.085 406.291 167.205L406.471 167.01L406.321 168.375H405.526L405.406 166.515C405.976 166.325 406.511 166.185 407.011 166.095C407.511 165.995 407.971 165.945 408.391 165.945C409.191 165.945 409.816 166.125 410.266 166.485C410.726 166.835 410.956 167.4 410.956 168.18V173.325ZM406.201 171.795C406.201 172.285 406.316 172.645 406.546 172.875C406.786 173.105 407.086 173.22 407.446 173.22C407.796 173.22 408.181 173.115 408.601 172.905C409.031 172.685 409.446 172.39 409.846 172.02L409.756 172.335V170.325L409.891 170.46H408.106C407.396 170.46 406.901 170.57 406.621 170.79C406.341 171 406.201 171.335 406.201 171.795ZM412.845 174V173.355L414.195 173.055L414.015 173.28V166.83L414.195 167.055L412.845 166.77V166.125L414.945 166.02L415.11 167.49L414.945 167.43C415.445 166.92 415.965 166.545 416.505 166.305C417.055 166.065 417.575 165.945 418.065 165.945C418.725 165.945 419.27 166.15 419.7 166.56C420.14 166.96 420.355 167.585 420.345 168.435V173.28L420.195 173.07L421.515 173.355V174H418.02V173.355L419.325 173.07L419.145 173.295V168.69C419.145 168.07 419.005 167.615 418.725 167.325C418.445 167.035 418.07 166.89 417.6 166.89C417.23 166.89 416.825 166.99 416.385 167.19C415.955 167.39 415.53 167.7 415.11 168.12L415.215 167.88V173.295L415.065 173.085L416.34 173.355V174H412.845ZM425.292 174.135C424.742 174.135 424.242 173.985 423.792 173.685C423.342 173.375 422.987 172.925 422.727 172.335C422.467 171.735 422.337 171.01 422.337 170.16C422.337 168.77 422.692 167.72 423.402 167.01C424.112 166.3 425.087 165.945 426.327 165.945C426.587 165.945 426.857 165.965 427.137 166.005C427.427 166.045 427.722 166.105 428.022 166.185L427.782 166.32V163.305L427.917 163.47L426.537 163.17V162.525L428.982 162.42V173.265L428.802 173.055L430.152 173.325V173.985L428.052 174.075L427.872 172.785L428.022 172.845C427.572 173.275 427.117 173.6 426.657 173.82C426.207 174.03 425.752 174.135 425.292 174.135ZM425.712 173.22C426.062 173.22 426.422 173.13 426.792 172.95C427.172 172.76 427.552 172.48 427.932 172.11L427.782 172.515V166.83L427.947 167.13C427.337 166.93 426.782 166.83 426.282 166.83C425.402 166.83 424.732 167.115 424.272 167.685C423.812 168.255 423.582 169.045 423.582 170.055C423.582 170.715 423.672 171.285 423.852 171.765C424.042 172.235 424.297 172.595 424.617 172.845C424.947 173.095 425.312 173.22 425.712 173.22ZM437.621 165.945C438.721 165.945 439.581 166.29 440.201 166.98C440.831 167.67 441.146 168.645 441.146 169.905C441.146 170.755 440.991 171.5 440.681 172.14C440.381 172.77 439.951 173.26 439.391 173.61C438.831 173.96 438.156 174.135 437.366 174.135C436.286 174.135 435.441 173.8 434.831 173.13C434.221 172.45 433.916 171.475 433.916 170.205C433.916 169.325 434.061 168.57 434.351 167.94C434.651 167.3 435.076 166.81 435.626 166.47C436.186 166.12 436.851 165.945 437.621 165.945ZM437.561 166.83C436.791 166.83 436.201 167.12 435.791 167.7C435.381 168.28 435.176 169.095 435.176 170.145C435.176 171.175 435.371 171.95 435.761 172.47C436.151 172.99 436.711 173.25 437.441 173.25C437.971 173.25 438.416 173.12 438.776 172.86C439.146 172.59 439.421 172.21 439.601 171.72C439.791 171.23 439.886 170.645 439.886 169.965C439.886 168.945 439.681 168.17 439.271 167.64C438.871 167.1 438.301 166.83 437.561 166.83ZM442.274 174V173.355L443.594 173.07L443.444 173.25V166.815L443.594 166.98H442.244V166.32L443.624 166.125L443.444 166.35V165.3C443.444 164.66 443.574 164.145 443.834 163.755C444.104 163.355 444.464 163.06 444.914 162.87C445.364 162.68 445.874 162.585 446.444 162.585C446.964 162.585 447.504 162.66 448.064 162.81C448.634 162.95 449.194 163.16 449.744 163.44L449.129 164.145C448.699 163.925 448.264 163.755 447.824 163.635C447.384 163.515 446.969 163.455 446.579 163.455C446.029 163.455 445.569 163.6 445.199 163.89C444.829 164.17 444.644 164.615 444.644 165.225V166.35L444.449 166.155L449.009 166.14V166.98H444.494L444.644 166.815V173.235L444.494 173.07L445.919 173.355V174H442.274ZM447.254 174V173.355L448.574 173.07L448.424 173.25V165.09C448.424 164.15 448.664 163.46 449.144 163.02C449.634 162.57 450.274 162.345 451.064 162.345C451.324 162.345 451.589 162.37 451.859 162.42C452.129 162.46 452.414 162.53 452.714 162.63L452.519 163.455C452.289 163.385 452.069 163.33 451.859 163.29C451.649 163.25 451.444 163.23 451.244 163.23C450.754 163.23 450.359 163.37 450.059 163.65C449.769 163.93 449.624 164.375 449.624 164.985V166.35L449.429 166.14H451.724L451.694 166.98H449.474L449.624 166.815V173.235L449.474 173.07L451.049 173.355V174H447.254ZM455.728 174.135C455.058 174.135 454.463 173.985 453.943 173.685C453.433 173.375 453.033 172.925 452.743 172.335C452.453 171.745 452.308 171.025 452.308 170.175C452.308 169.305 452.458 168.555 452.758 167.925C453.058 167.295 453.483 166.81 454.033 166.47C454.583 166.12 455.228 165.945 455.968 165.945C456.668 165.945 457.243 166.095 457.693 166.395C458.153 166.685 458.493 167.09 458.713 167.61C458.943 168.13 459.058 168.725 459.058 169.395C459.058 169.505 459.053 169.615 459.043 169.725C459.033 169.835 459.018 169.97 458.998 170.13H453.223V169.275H457.948L457.813 169.365C457.823 168.915 457.768 168.5 457.648 168.12C457.528 167.74 457.323 167.435 457.033 167.205C456.743 166.975 456.358 166.86 455.878 166.86C455.368 166.86 454.938 166.995 454.588 167.265C454.238 167.535 453.978 167.905 453.808 168.375C453.638 168.845 453.553 169.39 453.553 170.01C453.553 170.67 453.648 171.24 453.838 171.72C454.028 172.19 454.303 172.555 454.663 172.815C455.033 173.075 455.483 173.205 456.013 173.205C456.383 173.205 456.788 173.135 457.228 172.995C457.668 172.845 458.123 172.62 458.593 172.32L459.028 172.995C458.468 173.375 457.908 173.66 457.348 173.85C456.788 174.04 456.248 174.135 455.728 174.135ZM460.211 174V173.355L461.531 173.07L461.381 173.295V166.83L461.546 167.055L460.211 166.77V166.125L462.311 166.02L462.476 167.49L462.311 167.43C462.761 166.96 463.201 166.595 463.631 166.335C464.061 166.075 464.531 165.945 465.041 165.945C465.361 165.945 465.696 165.995 466.046 166.095L465.956 168.195H465.206L465.026 166.71L465.161 166.98C465.091 166.96 465.016 166.945 464.936 166.935C464.856 166.925 464.776 166.92 464.696 166.92C464.296 166.92 463.906 167.04 463.526 167.28C463.156 167.52 462.801 167.83 462.461 168.21L462.581 167.85V173.295L462.401 173.07L464.036 173.355V174H460.211ZM468.877 173.235L468.742 173.07L470.047 173.355V174H466.507V173.355L467.812 173.07L467.677 173.235V166.905L467.797 167.04L466.507 166.77V166.125L468.877 166.035V173.235ZM468.187 164.415C467.957 164.415 467.767 164.34 467.617 164.19C467.467 164.04 467.392 163.835 467.392 163.575C467.392 163.305 467.467 163.1 467.617 162.96C467.777 162.81 467.972 162.735 468.202 162.735C468.442 162.735 468.637 162.805 468.787 162.945C468.937 163.085 469.012 163.295 469.012 163.575C469.012 163.845 468.932 164.055 468.772 164.205C468.612 164.345 468.417 164.415 468.187 164.415ZM470.824 174V173.355L472.174 173.055L471.994 173.28V166.83L472.174 167.055L470.824 166.77V166.125L472.924 166.02L473.089 167.49L472.924 167.43C473.424 166.92 473.944 166.545 474.484 166.305C475.034 166.065 475.554 165.945 476.044 165.945C476.704 165.945 477.249 166.15 477.679 166.56C478.119 166.96 478.334 167.585 478.324 168.435V173.28L478.174 173.07L479.494 173.355V174H475.999V173.355L477.304 173.07L477.124 173.295V168.69C477.124 168.07 476.984 167.615 476.704 167.325C476.424 167.035 476.049 166.89 475.579 166.89C475.209 166.89 474.804 166.99 474.364 167.19C473.934 167.39 473.509 167.7 473.089 168.12L473.194 167.88V173.295L473.044 173.085L474.319 173.355V174H470.824ZM483.556 177.585C482.386 177.585 481.511 177.415 480.931 177.075C480.351 176.735 480.061 176.245 480.061 175.605C480.061 175.155 480.211 174.755 480.511 174.405C480.811 174.055 481.251 173.75 481.831 173.49L481.846 173.73C481.526 173.71 481.281 173.645 481.111 173.535C480.941 173.415 480.856 173.25 480.856 173.04C480.856 172.96 480.866 172.88 480.886 172.8C480.906 172.72 480.941 172.61 480.991 172.47C481.051 172.32 481.136 172.125 481.246 171.885C481.366 171.635 481.516 171.31 481.696 170.91L481.726 171.12C481.296 170.89 480.966 170.58 480.736 170.19C480.506 169.79 480.391 169.32 480.391 168.78C480.391 167.91 480.676 167.22 481.246 166.71C481.826 166.2 482.621 165.945 483.631 165.945C484.311 165.945 484.896 166.065 485.386 166.305L485.056 166.23L487.411 166.125L487.426 166.845L486.031 167.115L486.136 166.935C486.346 167.135 486.506 167.38 486.616 167.67C486.726 167.96 486.781 168.29 486.781 168.66C486.781 169.54 486.486 170.235 485.896 170.745C485.306 171.255 484.521 171.51 483.541 171.51C482.981 171.51 482.466 171.415 481.996 171.225L482.266 171.09L481.876 173.055L481.621 172.905H484.561C485.521 172.905 486.251 173.095 486.751 173.475C487.251 173.845 487.501 174.38 487.501 175.08C487.501 175.89 487.166 176.51 486.496 176.94C485.836 177.37 484.856 177.585 483.556 177.585ZM483.661 176.67C484.571 176.67 485.246 176.545 485.686 176.295C486.126 176.045 486.346 175.67 486.346 175.17C486.346 174.73 486.181 174.395 485.851 174.165C485.521 173.945 485.026 173.835 484.366 173.835H481.981L482.326 173.76C481.526 174.26 481.126 174.8 481.126 175.38C481.126 175.81 481.331 176.13 481.741 176.34C482.161 176.56 482.801 176.67 483.661 176.67ZM483.541 170.67C484.181 170.67 484.681 170.5 485.041 170.16C485.401 169.81 485.581 169.32 485.581 168.69C485.581 168.06 485.411 167.585 485.071 167.265C484.731 166.945 484.246 166.785 483.616 166.785C482.976 166.785 482.481 166.955 482.131 167.295C481.781 167.625 481.606 168.11 481.606 168.75C481.606 169.37 481.771 169.845 482.101 170.175C482.441 170.505 482.921 170.67 483.541 170.67ZM489.764 168C489.764 168.32 489.869 168.57 490.079 168.75C490.289 168.93 490.559 169.08 490.889 169.2C491.219 169.31 491.569 169.42 491.939 169.53C492.309 169.64 492.659 169.775 492.989 169.935C493.319 170.095 493.589 170.315 493.799 170.595C494.009 170.875 494.114 171.245 494.114 171.705C494.114 172.235 493.969 172.68 493.679 173.04C493.389 173.4 492.994 173.675 492.494 173.865C492.004 174.045 491.454 174.135 490.844 174.135C490.474 174.135 490.094 174.105 489.704 174.045C489.314 173.985 488.914 173.9 488.504 173.79L488.609 171.78H489.374L489.524 173.25L489.389 173.085C489.619 173.145 489.869 173.195 490.139 173.235C490.409 173.275 490.659 173.295 490.889 173.295C491.249 173.295 491.579 173.245 491.879 173.145C492.189 173.035 492.439 172.88 492.629 172.68C492.819 172.47 492.914 172.21 492.914 171.9C492.914 171.57 492.809 171.31 492.599 171.12C492.399 170.93 492.134 170.775 491.804 170.655C491.474 170.535 491.124 170.425 490.754 170.325C490.394 170.215 490.049 170.08 489.719 169.92C489.389 169.75 489.119 169.53 488.909 169.26C488.699 168.99 488.594 168.62 488.594 168.15C488.594 167.64 488.724 167.225 488.984 166.905C489.254 166.575 489.604 166.335 490.034 166.185C490.474 166.025 490.944 165.945 491.444 165.945C491.784 165.945 492.159 165.98 492.569 166.05C492.979 166.12 493.399 166.225 493.829 166.365L493.754 168.06H492.989L492.764 166.815L492.944 167.025C492.424 166.875 491.934 166.8 491.474 166.8C490.984 166.8 490.574 166.905 490.244 167.115C489.924 167.315 489.764 167.61 489.764 168ZM495.179 173.295C495.179 173.055 495.259 172.865 495.419 172.725C495.579 172.585 495.764 172.515 495.974 172.515C496.214 172.515 496.404 172.585 496.544 172.725C496.684 172.865 496.754 173.055 496.754 173.295C496.754 173.535 496.674 173.725 496.514 173.865C496.364 174.005 496.184 174.075 495.974 174.075C495.734 174.075 495.539 174.005 495.389 173.865C495.249 173.725 495.179 173.535 495.179 173.295Z" fill="#000E38"/>
<path d="M755.233 174V163.818H756.466V172.906H761.199V174H755.233ZM766.151 174.159C765.415 174.159 764.78 173.997 764.246 173.672C763.716 173.344 763.307 172.886 763.018 172.3C762.733 171.71 762.591 171.024 762.591 170.241C762.591 169.459 762.733 168.77 763.018 168.173C763.307 167.573 763.708 167.106 764.222 166.771C764.739 166.433 765.342 166.264 766.031 166.264C766.429 166.264 766.822 166.33 767.21 166.463C767.597 166.596 767.95 166.811 768.268 167.109C768.587 167.404 768.84 167.795 769.029 168.283C769.218 168.77 769.312 169.37 769.312 170.082V170.58H763.426V169.565H768.119C768.119 169.134 768.033 168.75 767.861 168.412C767.692 168.074 767.45 167.807 767.135 167.612C766.823 167.416 766.455 167.318 766.031 167.318C765.564 167.318 765.16 167.434 764.818 167.666C764.48 167.895 764.22 168.193 764.038 168.561C763.855 168.929 763.764 169.323 763.764 169.744V170.42C763.764 170.997 763.864 171.486 764.062 171.887C764.265 172.285 764.545 172.588 764.903 172.797C765.261 173.002 765.677 173.105 766.151 173.105C766.459 173.105 766.737 173.062 766.986 172.976C767.238 172.886 767.455 172.754 767.637 172.578C767.819 172.399 767.96 172.177 768.06 171.912L769.193 172.23C769.074 172.615 768.873 172.953 768.592 173.244C768.31 173.533 767.962 173.758 767.548 173.92C767.133 174.08 766.668 174.159 766.151 174.159ZM773.344 174.179C772.861 174.179 772.421 174.088 772.027 173.906C771.633 173.72 771.319 173.453 771.087 173.105C770.855 172.754 770.739 172.33 770.739 171.832C770.739 171.395 770.826 171.04 770.998 170.768C771.17 170.493 771.401 170.278 771.689 170.122C771.977 169.966 772.295 169.85 772.643 169.774C772.995 169.695 773.348 169.632 773.702 169.585C774.166 169.526 774.543 169.481 774.831 169.451C775.123 169.418 775.335 169.363 775.467 169.287C775.603 169.211 775.671 169.078 775.671 168.889V168.849C775.671 168.359 775.537 167.978 775.268 167.706C775.003 167.434 774.601 167.298 774.06 167.298C773.5 167.298 773.061 167.421 772.743 167.666C772.425 167.911 772.201 168.173 772.072 168.452L770.958 168.054C771.157 167.59 771.422 167.229 771.754 166.97C772.088 166.708 772.453 166.526 772.847 166.423C773.245 166.317 773.636 166.264 774.021 166.264C774.266 166.264 774.548 166.294 774.866 166.354C775.187 166.41 775.497 166.528 775.795 166.707C776.097 166.886 776.347 167.156 776.546 167.517C776.745 167.878 776.844 168.362 776.844 168.969V174H775.671V172.966H775.612C775.532 173.132 775.399 173.309 775.214 173.498C775.028 173.687 774.781 173.848 774.473 173.98C774.165 174.113 773.789 174.179 773.344 174.179ZM773.523 173.125C773.987 173.125 774.379 173.034 774.697 172.852C775.018 172.669 775.26 172.434 775.423 172.146C775.588 171.857 775.671 171.554 775.671 171.236V170.162C775.621 170.222 775.512 170.276 775.343 170.326C775.177 170.372 774.985 170.414 774.766 170.45C774.551 170.483 774.34 170.513 774.135 170.54C773.933 170.563 773.769 170.583 773.643 170.599C773.338 170.639 773.053 170.704 772.788 170.793C772.526 170.879 772.314 171.01 772.151 171.186C771.992 171.358 771.913 171.594 771.913 171.892C771.913 172.3 772.063 172.608 772.365 172.817C772.67 173.022 773.056 173.125 773.523 173.125ZM778.986 174V166.364H780.119V167.517H780.199C780.338 167.139 780.59 166.833 780.955 166.597C781.319 166.362 781.73 166.244 782.188 166.244C782.274 166.244 782.382 166.246 782.511 166.249C782.64 166.253 782.738 166.258 782.804 166.264V167.457C782.764 167.447 782.673 167.433 782.531 167.413C782.392 167.389 782.244 167.378 782.088 167.378C781.717 167.378 781.386 167.456 781.094 167.612C780.806 167.764 780.577 167.976 780.408 168.248C780.242 168.516 780.159 168.823 780.159 169.168V174H778.986ZM785.368 169.406V174H784.195V166.364H785.328V167.557H785.428C785.607 167.169 785.879 166.857 786.243 166.622C786.608 166.384 787.078 166.264 787.655 166.264C788.172 166.264 788.625 166.37 789.012 166.582C789.4 166.791 789.702 167.109 789.917 167.537C790.133 167.961 790.24 168.498 790.24 169.148V174H789.067V169.227C789.067 168.627 788.911 168.16 788.6 167.825C788.288 167.487 787.861 167.318 787.317 167.318C786.943 167.318 786.608 167.399 786.313 167.562C786.021 167.724 785.791 167.961 785.622 168.273C785.453 168.584 785.368 168.962 785.368 169.406ZM796.322 174V166.364H797.455V167.557H797.555C797.714 167.149 797.971 166.833 798.325 166.607C798.68 166.379 799.106 166.264 799.603 166.264C800.107 166.264 800.526 166.379 800.861 166.607C801.199 166.833 801.463 167.149 801.651 167.557H801.731C801.927 167.162 802.22 166.849 802.611 166.617C803.002 166.382 803.471 166.264 804.018 166.264C804.701 166.264 805.259 166.478 805.693 166.906C806.128 167.33 806.345 167.991 806.345 168.889V174H805.171V168.889C805.171 168.326 805.017 167.923 804.709 167.681C804.401 167.439 804.038 167.318 803.62 167.318C803.083 167.318 802.667 167.481 802.372 167.805C802.077 168.127 801.93 168.535 801.93 169.028V174H800.737V168.77C800.737 168.336 800.596 167.986 800.314 167.721C800.032 167.452 799.669 167.318 799.225 167.318C798.92 167.318 798.635 167.399 798.37 167.562C798.108 167.724 797.896 167.95 797.734 168.238C797.575 168.523 797.495 168.853 797.495 169.227V174H796.322ZM811.592 174.159C810.903 174.159 810.298 173.995 809.778 173.667C809.26 173.339 808.856 172.88 808.564 172.29C808.276 171.7 808.132 171.01 808.132 170.222C808.132 169.426 808.276 168.732 808.564 168.138C808.856 167.545 809.26 167.085 809.778 166.756C810.298 166.428 810.903 166.264 811.592 166.264C812.282 166.264 812.885 166.428 813.402 166.756C813.922 167.085 814.327 167.545 814.615 168.138C814.907 168.732 815.052 169.426 815.052 170.222C815.052 171.01 814.907 171.7 814.615 172.29C814.327 172.88 813.922 173.339 813.402 173.667C812.885 173.995 812.282 174.159 811.592 174.159ZM811.592 173.105C812.116 173.105 812.547 172.971 812.885 172.702C813.223 172.434 813.473 172.081 813.635 171.643C813.798 171.206 813.879 170.732 813.879 170.222C813.879 169.711 813.798 169.236 813.635 168.795C813.473 168.354 813.223 167.998 812.885 167.726C812.547 167.454 812.116 167.318 811.592 167.318C811.068 167.318 810.638 167.454 810.3 167.726C809.961 167.998 809.711 168.354 809.549 168.795C809.386 169.236 809.305 169.711 809.305 170.222C809.305 170.732 809.386 171.206 809.549 171.643C809.711 172.081 809.961 172.434 810.3 172.702C810.638 172.971 811.068 173.105 811.592 173.105ZM816.843 174V166.364H817.977V167.517H818.056C818.196 167.139 818.448 166.833 818.812 166.597C819.177 166.362 819.588 166.244 820.045 166.244C820.131 166.244 820.239 166.246 820.368 166.249C820.498 166.253 820.595 166.258 820.662 166.264V167.457C820.622 167.447 820.531 167.433 820.388 167.413C820.249 167.389 820.101 167.378 819.946 167.378C819.574 167.378 819.243 167.456 818.951 167.612C818.663 167.764 818.434 167.976 818.265 168.248C818.1 168.516 818.017 168.823 818.017 169.168V174H816.843ZM825.022 174.159C824.286 174.159 823.651 173.997 823.118 173.672C822.587 173.344 822.178 172.886 821.89 172.3C821.605 171.71 821.462 171.024 821.462 170.241C821.462 169.459 821.605 168.77 821.89 168.173C822.178 167.573 822.579 167.106 823.093 166.771C823.61 166.433 824.213 166.264 824.902 166.264C825.3 166.264 825.693 166.33 826.081 166.463C826.468 166.596 826.821 166.811 827.14 167.109C827.458 167.404 827.711 167.795 827.9 168.283C828.089 168.77 828.184 169.37 828.184 170.082V170.58H822.297V169.565H826.99C826.99 169.134 826.904 168.75 826.732 168.412C826.563 168.074 826.321 167.807 826.006 167.612C825.694 167.416 825.327 167.318 824.902 167.318C824.435 167.318 824.031 167.434 823.689 167.666C823.351 167.895 823.091 168.193 822.909 168.561C822.726 168.929 822.635 169.323 822.635 169.744V170.42C822.635 170.997 822.735 171.486 822.934 171.887C823.136 172.285 823.416 172.588 823.774 172.797C824.132 173.002 824.548 173.105 825.022 173.105C825.33 173.105 825.608 173.062 825.857 172.976C826.109 172.886 826.326 172.754 826.508 172.578C826.69 172.399 826.831 172.177 826.931 171.912L828.064 172.23C827.945 172.615 827.744 172.953 827.463 173.244C827.181 173.533 826.833 173.758 826.419 173.92C826.004 174.08 825.539 174.159 825.022 174.159Z" fill="#000E38"/>
<path d="M843 169H859.8" stroke="#000E38" stroke-width="1.2"/>
<path d="M854.2 174.6L859.8 168.793L854.6 163.4" stroke="#000E38" stroke-width="1.2"/>
<defs>
<clipPath id="clip0_8_22">
<rect width="143.741" height="25" fill="white" transform="translate(40 40)"/>
</clipPath>
</defs>
</svg>
